SplineFontDB: 3.0
FontName: Celtica-Book
FullName: Celtica Book
FamilyName: Celtica
Weight: Book
Copyright: Copyright (c) 2020-2024 by Wojciech Kalinowski "wmk69" with Reserved Font Name "Celtica-Book".\nThis Font Software is licensed under the SIL Open Font License, Version 1.1.
Version: 1.1.0; 2021-05-14
ItalicAngle: 0
UnderlinePosition: -80
UnderlineWidth: 200
Ascent: 1638
Descent: 410
InvalidEm: 0
LayerCount: 2
Layer: 0 1 "Warstwa t+AUIA-a" 1
Layer: 1 1 "Plan pierwszy" 0
XUID: [1021 783 23647091 2952791]
StyleMap: 0x0040
FSType: 0
OS2Version: 3
OS2_WeightWidthSlopeOnly: 0
OS2_UseTypoMetrics: 1
CreationTime: 1260698820
ModificationTime: 1620981667
PfmFamily: 17
TTFWeight: 400
TTFWidth: 5
LineGap: 300
VLineGap: 0
Panose: 2 14 5 2 5 5 8 6 7 4
OS2TypoAscent: 2000
OS2TypoAOffset: 0
OS2TypoDescent: -500
OS2TypoDOffset: 0
OS2TypoLinegap: 300
OS2WinAscent: 2000
OS2WinAOffset: 0
OS2WinDescent: 500
OS2WinDOffset: 0
HheadAscent: 2000
HheadAOffset: 0
HheadDescent: -500
HheadDOffset: 0
OS2SubXSize: 1434
OS2SubYSize: 1331
OS2SubXOff: 0
OS2SubYOff: 287
OS2SupXSize: 1434
OS2SupYSize: 1331
OS2SupXOff: 0
OS2SupYOff: 977
OS2StrikeYSize: 102
OS2StrikeYPos: 512
OS2CapHeight: 1530
OS2XHeight: 1120
OS2Vendor: '    '
OS2CodePages: 20000093.00000000
OS2UnicodeRanges: 8000002f.4000204b.00000000.00000000
Lookup: 258 0 0 "'kern' Horizontal Kerning lookup 0" { "'kern' Horizontal Kerning lookup 0-1" [307,0,4] } ['kern' ('DFLT' <'dflt' > 'grek' <'dflt' > 'latn' <'dflt' > ) ]
MarkAttachClasses: 1
DEI: 91125
KernClass2: 64 45 "'kern' Horizontal Kerning lookup 0-1"
 84 A Agrave Aacute Acircumflex Atilde Adieresis Aring Amacron Abreve Aogonek Aringacute
 28 B germandbls uni1E02 uni1E9E
 140 C E AE Ccedilla Egrave Eacute Ecircumflex Edieresis Cacute Ccircumflex Cdotaccent Ccaron Emacron Ebreve Edotaccent Eogonek Ecaron OE AEacute
 134 D M O P Q Eth Ograve Oacute Ocircumflex Otilde Odieresis Oslash Dcaron Dcroat Omacron Obreve Ohungarumlaut Oslashacute uni1E0A uni1E56
 9 F uni1E1E

StartChar: .notdef
Encoding: 65536 -1 0
Width: 994
Flags: W
HStem: 0 68<260 734> 1442 68<260 734>
VStem: 150 110<68 1442> 734 110<68 1442>
LayerCount: 2
Fore
SplineSet
150 0 m 1,0,-1
 150 1510 l 1,1,-1
 844 1510 l 1,2,-1
 844 0 l 1,3,-1
 150 0 l 1,0,-1
260 68 m 1,4,-1
 734 68 l 1,5,-1
 734 1442 l 1,6,-1
 260 1442 l 1,7,-1
 260 68 l 1,4,-1
EndSplineSet
Validated: 1
EndChar

StartChar: exclam
Encoding: 33 33 4
Width: 692
GlyphClass: 2
Flags: W
HStem: -20 264<235.191 416.809>
VStem: 196 260<19.7072 204.293> 225 221<1289 1510> 260 172<350 522> 282 190<447.532 1386.88>
LayerCount: 2
Fore
SplineSet
225 1510 m 1,0,1
 446 1510 l 1,2,3
 471 1304 471 1304 472 1068 c 0,4,5
 472 701 472 701 432 350 c 1,6,-1
 260 350 l 1,7,8
 282 589 282 589 282 815 c 0,9,10
 282 1178 282 1178 225 1510 c 1,0,1
326 -20 m 128,-1,12
 272 -20 272 -20 234 18.5 c 128,-1,13
 196 57 196 57 196 112 c 128,-1,14
 196 167 196 167 234 205.5 c 128,-1,15
 272 244 272 244 326 244 c 128,-1,16
 380 244 380 244 418 205.5 c 128,-1,17
 456 167 456 167 456 112 c 128,-1,18
 456 57 456 57 418 18.5 c 128,-1,11
 380 -20 380 -20 326 -20 c 128,-1,12
EndSplineSet
Validated: 1
EndChar

StartChar: quotedbl
Encoding: 34 34 5
Width: 592
GlyphClass: 2
Flags: W
HStem: 1120 454
VStem: 91 152<1165.55 1528.36> 390 152<1165.55 1528.36>
LayerCount: 2
Fore
SplineSet
349 1516 m 1,0,-1
 521 1574 l 1,1,2
 542 1468 542 1468 542 1369 c 0,3,4
 542 1269 542 1269 521 1168 c 1,5,-1
 379 1120 l 1,6,7
 390 1196 390 1196 390 1266 c 0,8,9
 390 1401 390 1401 349 1516 c 1,0,-1
50 1516 m 1,10,-1
 222 1574 l 1,11,12
 243 1468 243 1468 243 1369 c 0,13,14
 243 1269 243 1269 222 1168 c 1,15,-1
 80 1120 l 1,16,17
 91 1196 91 1196 91 1266 c 0,18,19
 91 1401 91 1401 50 1516 c 1,10,-1
EndSplineSet
Validated: 1
EndChar

StartChar: numbersign
Encoding: 35 35 6
Width: 1370
GlyphClass: 2
Flags: W
HStem: 513 126<222.38 450 576 794 920 1141.62> 857 126<222.38 450 576 794 920 1141.62>
VStem: 450 126<285.38 513 639 857 983 1204.62> 794 126<285.38 513 639 857 983 1204.62>
LayerCount: 2
Fore
SplineSet
489 1233 m 1,0,1
 576 1199 576 1199 576 1048 c 2,2,-1
 576 983 l 1,3,-1
 794 983 l 1,4,-1
 794 1220 l 1,5,-1
 833 1233 l 1,6,7
 920 1199 920 1199 920 1048 c 2,8,-1
 920 983 l 1,9,-1
 1157 983 l 1,10,-1
 1170 944 l 1,11,12
 1136 857 1136 857 985 857 c 2,13,-1
 920 857 l 1,14,-1
 920 639 l 1,15,-1
 1157 639 l 1,16,-1
 1170 600 l 1,17,18
 1136 513 1136 513 985 513 c 2,19,-1
 920 513 l 1,20,-1
 920 270 l 1,21,-1
 881 257 l 1,22,23
 794 291 794 291 794 442 c 2,24,-1
 794 513 l 1,25,-1
 576 513 l 1,26,-1
 576 270 l 1,27,-1
 537 257 l 1,28,29
 450 291 450 291 450 442 c 2,30,-1
 450 513 l 1,31,-1
 207 513 l 1,32,-1
 194 552 l 1,33,34
 228 639 228 639 379 639 c 2,35,-1
 450 639 l 1,36,-1
 450 857 l 1,37,-1
 207 857 l 1,38,-1
 194 896 l 1,39,40
 228 983 228 983 379 983 c 2,41,-1
 450 983 l 1,42,-1
 450 1220 l 1,43,-1
 489 1233 l 1,0,1
576 639 m 1,44,-1
 794 639 l 1,45,-1
 794 857 l 1,46,-1
 576 857 l 1,47,-1
 576 639 l 1,44,-1
EndSplineSet
Validated: 1
EndChar

StartChar: dollar
Encoding: 36 36 7
Width: 1241
GlyphClass: 2
Flags: W
HStem: -20 125<284.799 582> 770 122<682 809.688> 1415 114<682 864.587>
VStem: 141 220<978.205 1276.22> 582 100<-171.65 -18 152 770 895 1401 1529 1681.31> 916 225<325.588 658.143>
LayerCount: 2
Fore
SplineSet
521 -20 m 0,0,1
 275 -20 275 -20 100 117 c 1,2,-1
 151 270 l 1,3,4
 270 105 270 105 462 105 c 0,5,6
 524 105 524 105 582 118 c 1,7,-1
 582 775 l 1,8,9
 399 782 399 782 280 874 c 0,10,11
 141 981 141 981 141 1146 c 0,12,13
 141 1313 141 1313 281 1422 c 0,14,15
 399 1514 399 1514 582 1528 c 1,16,-1
 582 1690 l 1,17,-1
 610 1699 l 1,18,19
 682 1666 682 1666 682 1565 c 2,20,-1
 682 1529 l 1,21,22
 893 1522 893 1522 1011 1430 c 1,23,-1
 960 1277 l 1,24,25
 880 1415 880 1415 682 1415 c 1,26,-1
 682 892 l 1,27,28
 865 880 865 880 980 793 c 0,29,30
 1141 671 1141 671 1141 470 c 0,31,32
 1141 252 1141 252 964 117 c 0,33,34
 842 24 842 24 682 -6 c 1,35,-1
 682 -180 l 1,36,-1
 654 -189 l 1,37,38
 582 -157 582 -157 582 -55 c 2,39,-1
 582 -18 l 1,40,41
 552 -20 552 -20 521 -20 c 0,0,1
582 895 m 1,42,-1
 582 1401 l 1,43,44
 552 1394 552 1394 527 1382 c 0,45,46
 438 1342 438 1342 395 1258 c 0,47,48
 361 1192 361 1192 361 1108 c 0,49,50
 361 1018 361 1018 416 961 c 0,51,52
 472 903 472 903 582 895 c 1,42,-1
682 770 m 1,53,-1
 682 152 l 1,54,55
 702 161 702 161 721 172 c 0,56,57
 845 242 845 242 888 364 c 0,58,59
 916 443 916 443 916 525 c 0,60,61
 916 639 916 639 837 707 c 0,62,63
 779 757 779 757 682 770 c 1,53,-1
EndSplineSet
Validated: 1
EndChar

StartChar: percent
Encoding: 37 37 8
Width: 1646
GlyphClass: 2
Flags: W
HStem: -20 88<1027.28 1248.26> 0 21G<548 640.296> 539 91<1080.56 1301.29> 880 88<343.279 564.256> 1439 91<396.561 617.286>
VStem: 150 142<1034.43 1326.29> 668 144<1079.57 1376.07> 834 142<134.429 426.29> 1352 144<179.569 476.071>
DStem2: 1013 1510 633 0 0.342692 0.939448<-1478.74 -70.0529>
LayerCount: 2
Fore
SplineSet
1132 68 m 0,0,1
 1198 68 1198 68 1255 117 c 0,2,3
 1311 165 1311 165 1336 241 c 0,4,5
 1352 291 1352 291 1352 349 c 0,6,7
 1352 412 1352 412 1325 462 c 0,8,9
 1282 539 1282 539 1197 539 c 0,10,11
 1131 539 1131 539 1074 490 c 0,12,13
 1018 442 1018 442 993 366 c 0,14,15
 976 316 976 316 976 258 c 0,16,17
 976 194 976 194 1004 144 c 0,18,19
 1046 68 1046 68 1132 68 c 0,0,1
1165 -20 m 0,20,21
 1019 -20 1019 -20 933 66 c 0,22,23
 834 162 834 162 834 305 c 0,24,25
 834 449 834 449 933 544 c 0,26,27
 1024 630 1024 630 1165 630 c 0,28,29
 1308 630 1308 630 1397 544 c 0,30,31
 1496 449 1496 449 1496 305 c 0,32,33
 1496 162 1496 162 1397 66 c 0,34,35
 1307 -20 1307 -20 1165 -20 c 0,20,21
448 968 m 0,36,37
 514 968 514 968 571 1017 c 0,38,39
 627 1065 627 1065 652 1141 c 0,40,41
 668 1191 668 1191 668 1249 c 0,42,43
 668 1312 668 1312 641 1362 c 0,44,45
 598 1439 598 1439 513 1439 c 0,46,47
 447 1439 447 1439 390 1390 c 0,48,49
 334 1342 334 1342 309 1266 c 0,50,51
 292 1216 292 1216 292 1158 c 0,52,53
 292 1094 292 1094 320 1044 c 0,54,55
 362 968 362 968 448 968 c 0,36,37
481 1530 m 0,56,57
 624 1530 624 1530 713 1444 c 0,58,59
 812 1349 812 1349 812 1205 c 0,60,61
 812 1062 812 1062 713 966 c 0,62,63
 623 880 623 880 481 880 c 0,64,65
 335 880 335 880 249 966 c 0,66,67
 150 1062 150 1062 150 1205 c 0,68,69
 150 1349 150 1349 249 1444 c 0,70,71
 340 1530 340 1530 481 1530 c 0,56,57
573 0 m 1,72,73
 523 39 523 39 523 113 c 0,74,75
 523 167 523 167 549 238 c 2,76,-1
 1013 1510 l 1,77,-1
 1073 1510 l 1,78,79
 1123 1471 1123 1471 1123 1397 c 0,80,81
 1123 1343 1123 1343 1097 1272 c 2,82,-1
 633 0 l 1,83,-1
 573 0 l 1,72,73
EndSplineSet
Validated: 1
EndChar

StartChar: quotesingle
Encoding: 39 39 9
Width: 293
GlyphClass: 2
Flags: W
HStem: 1120 454
VStem: 91 152<1165.55 1528.36>
LayerCount: 2
Fore
SplineSet
50 1516 m 1,0,-1
 222 1574 l 1,1,2
 243 1468 243 1468 243 1369 c 0,3,4
 243 1269 243 1269 222 1168 c 1,5,-1
 80 1120 l 1,6,7
 91 1196 91 1196 91 1266 c 0,8,9
 91 1401 91 1401 50 1516 c 1,0,-1
EndSplineSet
Validated: 1
EndChar

StartChar: parenleft
Encoding: 40 40 10
Width: 817
GlyphClass: 2
Flags: W
VStem: 200 180<398.868 1111.13>
LayerCount: 2
Fore
SplineSet
807 -250 m 1,0,1
 530 -250 l 1,2,3
 200 218 200 218 200 755 c 128,-1,4
 200 1292 200 1292 530 1760 c 1,5,-1
 807 1760 l 1,6,7
 380 1344 380 1344 380 755 c 128,-1,8
 380 166 380 166 807 -250 c 1,0,1
EndSplineSet
Validated: 1
EndChar

StartChar: parenright
Encoding: 41 41 11
Width: 817
GlyphClass: 2
Flags: W
VStem: 437 180<398.868 1111.13>
LayerCount: 2
Fore
SplineSet
10 -250 m 1,0,1
 437 166 437 166 437 755 c 128,-1,2
 437 1344 437 1344 10 1760 c 1,3,-1
 287 1760 l 1,4,5
 617 1292 617 1292 617 755 c 128,-1,6
 617 218 617 218 287 -250 c 1,7,-1
 10 -250 l 1,0,1
EndSplineSet
Validated: 1
EndChar

StartChar: asterisk
Encoding: 42 42 12
Width: 1080
GlyphClass: 2
Flags: W
HStem: 1510 20G<477 559.5>
VStem: 477 126<704.38 994 1212 1501.62>
DStem2: 477 1212 150 1255 0.865982 -0.500074<-264.31 -0.0487877 218.179 482.44> 299 1037 213 841 0.865982 0.500074<-155.178 132.593 350.82 638.592>
LayerCount: 2
Fore
SplineSet
516 1530 m 1,0,1
 603 1496 603 1496 603 1345 c 2,2,-1
 603 1212 l 1,3,-1
 867 1365 l 1,4,-1
 898 1337 l 1,5,6
 899 1328 899 1328 899 1320 c 0,7,8
 899 1238 899 1238 781 1169 c 2,9,-1
 666 1103 l 1,10,-1
 930 951 l 1,11,-1
 922 910 l 1,12,13
 890 885 890 885 847 885 c 0,14,15
 792 885 792 885 718 927 c 2,16,-1
 603 994 l 1,17,-1
 603 689 l 1,18,-1
 564 676 l 1,19,20
 477 710 477 710 477 861 c 2,21,-1
 477 994 l 1,22,-1
 213 841 l 1,23,-1
 182 869 l 1,24,25
 181 878 181 878 181 886 c 0,26,27
 181 968 181 968 299 1037 c 2,28,-1
 414 1103 l 1,29,-1
 150 1255 l 1,30,-1
 158 1296 l 1,31,32
 190 1321 190 1321 233 1321 c 0,33,34
 288 1321 288 1321 362 1279 c 2,35,-1
 477 1212 l 1,36,-1
 477 1517 l 1,37,-1
 516 1530 l 1,0,1
EndSplineSet
Validated: 1
EndChar

StartChar: plus
Encoding: 43 43 13
Width: 1158
GlyphClass: 2
Flags: W
HStem: 665 160<190.627 499 659 967.373>
VStem: 499 160<356.627 665 825 1133.37>
LayerCount: 2
Fore
SplineSet
556 1174 m 1,0,1
 659 1140 659 1140 659 960 c 2,2,-1
 659 825 l 1,3,-1
 989 825 l 1,4,-1
 1008 768 l 1,5,6
 974 665 974 665 794 665 c 2,7,-1
 659 665 l 1,8,-1
 659 335 l 1,9,-1
 602 316 l 1,10,11
 499 350 499 350 499 530 c 2,12,-1
 499 665 l 1,13,-1
 169 665 l 1,14,-1
 150 722 l 1,15,16
 184 825 184 825 364 825 c 2,17,-1
 499 825 l 1,18,-1
 499 1155 l 1,19,-1
 556 1174 l 1,0,1
EndSplineSet
Validated: 1
EndChar

StartChar: comma
Encoding: 44 44 14
Width: 427
GlyphClass: 2
Flags: W
HStem: -292 572
VStem: 206 171<-108.337 113.384>
LayerCount: 2
Fore
SplineSet
254 280 m 1,0,1
 377 169 377 169 377 45 c 0,2,3
 377 -94 377 -94 222 -251 c 1,4,-1
 99 -292 l 1,5,6
 206 -142 206 -142 206 -24 c 0,7,8
 206 118 206 118 50 211 c 1,9,-1
 254 280 l 1,0,1
EndSplineSet
Validated: 1
EndChar

StartChar: hyphen
Encoding: 45 45 15
Width: 1158
GlyphClass: 2
Flags: W
HStem: 665 160<190.627 967.373>
LayerCount: 2
Fore
SplineSet
150 722 m 1,0,1
 184 825 184 825 364 825 c 2,2,-1
 989 825 l 1,3,-1
 1008 768 l 1,4,5
 974 665 974 665 794 665 c 2,6,-1
 169 665 l 1,7,-1
 150 722 l 1,0,1
EndSplineSet
Validated: 1
EndChar

StartChar: period
Encoding: 46 46 16
Width: 360
GlyphClass: 2
Flags: W
HStem: -20 264<89.1914 270.809>
VStem: 50 260<19.7072 204.293>
LayerCount: 2
Fore
SplineSet
180 -20 m 128,-1,1
 126 -20 126 -20 88 18.5 c 128,-1,2
 50 57 50 57 50 112 c 128,-1,3
 50 167 50 167 88 205.5 c 128,-1,4
 126 244 126 244 180 244 c 128,-1,5
 234 244 234 244 272 205.5 c 128,-1,6
 310 167 310 167 310 112 c 128,-1,7
 310 57 310 57 272 18.5 c 128,-1,0
 234 -20 234 -20 180 -20 c 128,-1,1
EndSplineSet
Validated: 1
EndChar

StartChar: slash
Encoding: 47 47 17
Width: 830
GlyphClass: 2
Flags: W
DStem2: 670 1690 160 -180 0.34202 0.939693<-1861.53 -70.1259>
LayerCount: 2
Fore
SplineSet
100 -180 m 1,0,1
 50 -141 50 -141 50 -67 c 0,2,3
 50 -14 50 -14 76 58 c 2,4,-1
 670 1690 l 1,5,-1
 730 1690 l 1,6,7
 780 1651 780 1651 780 1577 c 0,8,9
 780 1524 780 1524 754 1452 c 2,10,-1
 160 -180 l 1,11,-1
 100 -180 l 1,0,1
EndSplineSet
Validated: 1
EndChar

StartChar: zero
Encoding: 48 48 18
Width: 1726
GlyphClass: 2
Flags: W
HStem: -20 130<594.795 991.87> 1398 132<732.642 1129.49>
VStem: 100 207<472.148 927.611> 1419 207<576.28 1032.87>
LayerCount: 2
Fore
SplineSet
862 -20 m 128,-1,1
 556 -20 556 -20 335 183 c 0,2,3
 100 399 100 399 100 755 c 128,-1,4
 100 1111 100 1111 335 1327 c 0,5,6
 556 1530 556 1530 862 1530 c 128,-1,7
 1168 1530 1168 1530 1389 1327 c 0,8,9
 1626 1109 1626 1109 1626 755 c 128,-1,10
 1626 401 1626 401 1389 183 c 0,11,0
 1168 -20 1168 -20 862 -20 c 128,-1,1
775 110 m 0,12,13
 971 110 971 110 1138 239 c 0,14,15
 1306 369 1306 369 1374 576 c 0,16,17
 1419 713 1419 713 1419 872 c 0,18,19
 1419 1045 1419 1045 1333 1183 c 0,20,21
 1202 1398 1202 1398 951 1398 c 0,22,23
 753 1398 753 1398 588 1268 c 0,24,25
 420 1135 420 1135 352 931 c 0,26,27
 307 796 307 796 307 636 c 0,28,29
 307 468 307 468 393 324 c 0,30,31
 521 110 521 110 775 110 c 0,12,13
EndSplineSet
Validated: 1
EndChar

StartChar: one
Encoding: 49 49 19
Width: 700
GlyphClass: 2
Flags: W
HStem: -20 21G<316.5 436.261> 1510 20G<262 383.5>
VStem: 255 190<32.2031 1406.85>
LayerCount: 2
Fore
SplineSet
378 -20 m 1,0,1
 255 15 255 15 255 194 c 2,2,-1
 255 1312 l 2,3,4
 255 1421 255 1421 153 1421 c 0,5,6
 115 1421 115 1421 80 1412 c 1,7,-1
 70 1446 l 1,8,-1
 322 1530 l 1,9,10
 445 1495 445 1495 445 1319 c 2,11,-1
 445 3 l 1,12,-1
 378 -20 l 1,0,1
EndSplineSet
Validated: 1
EndChar

StartChar: two
Encoding: 50 50 20
Width: 1400
GlyphClass: 2
Flags: W
HStem: 0 128<411 1176.59> 559 120<495.061 621> 1410 120<576.805 879.205>
VStem: 176 204<830.77 1192.77> 986 204<886.528 1258.12>
LayerCount: 2
Fore
SplineSet
185 0 m 1,0,-1
 150 101 l 1,1,2
 830 483 830 483 960 941 c 24,3,4
 986 1032 986 1032 986 1115 c 0,5,6
 986 1221 986 1221 934 1305 c 0,7,8
 869 1410 869 1410 745 1410 c 0,9,10
 627 1410 627 1410 542 1343 c 0,11,12
 445 1267 445 1267 406 1148 c 0,13,14
 380 1067 380 1067 380 974 c 0,15,16
 380 874 380 874 430 794 c 0,17,18
 502 679 502 679 621 679 c 1,19,-1
 663 559 l 1,20,21
 465 559 465 559 323 691 c 0,22,23
 176 828 176 828 176 1045 c 0,24,25
 176 1263 176 1263 323 1398 c 0,26,27
 468 1530 468 1530 692 1530 c 24,28,29
 901 1530 901 1530 1043 1398 c 0,30,31
 1190 1261 1190 1261 1190 1044 c 0,32,33
 1190 541 1190 541 411 128 c 1,34,-1
 1073 128 l 2,35,36
 1164 128 1164 128 1229 239 c 1,37,-1
 1250 239 l 1,38,-1
 1195 74 l 2,39,40
 1170 0 1170 0 1066 0 c 2,41,-1
 185 0 l 1,0,-1
EndSplineSet
Validated: 1
EndChar

StartChar: three
Encoding: 51 51 21
Width: 1248
GlyphClass: 2
Flags: W
HStem: -20 120<399.697 697.043> 1382 128<277.406 801>
VStem: 100 188<226.574 335.88> 894 204<317.231 679.23>
LayerCount: 2
Fore
SplineSet
582 -20 m 0,0,1
 373 -20 373 -20 231 112 c 0,2,3
 133 204 133 204 100 331 c 1,4,-1
 288 395 l 1,5,6
 288 295 288 295 338 215 c 0,7,8
 410 100 410 100 529 100 c 0,9,10
 646 100 646 100 732 167 c 0,11,12
 829 243 829 243 868 362 c 0,13,14
 894 443 894 443 894 536 c 0,15,16
 894 636 894 636 844 716 c 0,17,18
 772 831 772 831 653 831 c 0,19,20
 557 831 557 831 482 785 c 1,21,-1
 446 885 l 1,22,23
 729 1106 729 1106 801 1382 c 1,24,-1
 381 1382 l 2,25,26
 290 1382 290 1382 225 1271 c 1,27,-1
 204 1271 l 1,28,-1
 259 1436 l 2,29,30
 284 1510 284 1510 388 1510 c 2,31,-1
 987 1510 l 1,32,-1
 1022 1409 l 1,33,34
 940 1115 940 1115 673 947 c 1,35,36
 835 927 835 927 951 819 c 0,37,38
 1098 682 1098 682 1098 465 c 0,39,40
 1098 247 1098 247 951 112 c 0,41,42
 806 -20 806 -20 582 -20 c 0,0,1
EndSplineSet
Validated: 1
EndChar

StartChar: five
Encoding: 53 53 22
Width: 1248
GlyphClass: 2
Flags: W
HStem: -20 120<399.697 697.043> 831 120<482.756 786.554> 1382 128<470.979 993.125>
VStem: 100 188<226.574 335.88> 187 188<916.033 1237.75> 894 204<317.231 679.258>
LayerCount: 2
Fore
SplineSet
582 -20 m 0,0,1
 373 -20 373 -20 231 112 c 0,2,3
 133 204 133 204 100 331 c 1,4,-1
 288 395 l 1,5,6
 288 295 288 295 338 215 c 0,7,8
 410 100 410 100 529 100 c 0,9,10
 646 100 646 100 732 167 c 0,11,12
 829 243 829 243 868 362 c 0,13,14
 894 443 894 443 894 536 c 0,15,16
 894 651 894 651 848 720 c 0,17,18
 775 831 775 831 653 831 c 0,19,20
 532 831 532 831 450 764 c 0,21,22
 407 729 407 729 370 680 c 1,23,24
 187 876 187 876 187 1098 c 0,25,26
 187 1294 187 1294 330 1510 c 1,27,-1
 890 1510 l 2,28,29
 980 1510 980 1510 1046 1621 c 1,30,-1
 1067 1621 l 1,31,-1
 1012 1456 l 2,32,33
 987 1382 987 1382 883 1382 c 2,34,-1
 496 1382 l 1,35,36
 375 1198 375 1198 375 1028 c 0,37,38
 375 971 375 971 388 915 c 1,39,40
 486 951 486 951 600 951 c 0,41,42
 809 951 809 951 951 819 c 0,43,44
 1098 682 1098 682 1098 465 c 0,45,46
 1098 247 1098 247 951 112 c 0,47,48
 806 -20 806 -20 582 -20 c 0,0,1
EndSplineSet
Validated: 1
EndChar

StartChar: six
Encoding: 54 54 23
Width: 1374
GlyphClass: 2
Flags: W
HStem: -20 120<523.988 823.195> 831 120<779 904.939> 1510 20G<496 866.048>
VStem: 150 204<355.632 804.092> 1020 204<317.231 679.23>
LayerCount: 2
Fore
SplineSet
708 -20 m 24,0,1
 497 -20 497 -20 357 112 c 0,2,3
 150 309 150 309 150 611 c 0,4,5
 150 1139 150 1139 842 1530 c 1,6,-1
 943 1446 l 1,7,8
 699 1273 699 1273 526 1044 c 0,9,10
 354 816 354 816 354 540 c 0,11,12
 354 339 354 339 453 212 c 0,13,14
 540 100 540 100 655 100 c 0,15,16
 773 100 773 100 858 167 c 0,17,18
 955 243 955 243 994 362 c 0,19,20
 1020 443 1020 443 1020 536 c 0,21,22
 1020 636 1020 636 970 716 c 0,23,24
 898 831 898 831 779 831 c 1,25,-1
 737 951 l 1,26,27
 935 951 935 951 1077 819 c 0,28,29
 1224 682 1224 682 1224 465 c 0,30,31
 1224 247 1224 247 1077 112 c 0,32,33
 932 -20 932 -20 708 -20 c 24,0,1
EndSplineSet
Validated: 1
EndChar

StartChar: seven
Encoding: 55 55 24
Width: 1000
GlyphClass: 2
Flags: W
HStem: 1382 128<93.4062 739>
VStem: 258 202<27 238.906>
LayerCount: 2
Fore
SplineSet
204 1510 m 2,0,1
 945 1510 l 1,2,-1
 980 1409 l 1,3,4
 558 897 558 897 460 27 c 1,5,-1
 258 -40 l 1,6,7
 375 912 375 912 739 1382 c 1,8,-1
 197 1382 l 2,9,10
 106 1382 106 1382 41 1271 c 1,11,-1
 20 1271 l 1,12,-1
 75 1436 l 2,13,14
 100 1510 100 1510 204 1510 c 2,0,1
EndSplineSet
Validated: 1
EndChar

StartChar: eight
Encoding: 56 56 25
Width: 1341
GlyphClass: 2
Flags: W
HStem: -20 120<474.602 776.945> 774 120<483.293 861.148> 1410 120<543.938 848.564>
VStem: 150 207<216.005 546.233> 191 210<978.21 1273.15> 936 205<1028.35 1325.19> 976 215<316.692 657.498>
LayerCount: 2
Fore
SplineSet
621 -20 m 0,0,1
 445 -20 445 -20 311 81 c 0,2,3
 150 203 150 203 150 404 c 0,4,5
 150 622 150 622 327 757 c 1,6,-1
 535 690 l 1,7,8
 439 630 439 630 392 530 c 0,9,10
 357 456 357 456 357 353 c 0,11,12
 357 241 357 241 444 167 c 0,13,14
 522 100 522 100 626 100 c 0,15,16
 745 100 745 100 846 197 c 0,17,18
 915 264 915 264 946 349 c 0,19,20
 976 434 976 434 976 525 c 0,21,22
 976 636 976 636 893 707 c 0,23,24
 815 774 815 774 663 774 c 0,25,26
 459 774 459 774 330 874 c 0,27,28
 191 981 191 981 191 1146 c 0,29,30
 191 1313 191 1313 331 1422 c 0,31,32
 470 1530 470 1530 679 1530 c 0,33,34
 873 1530 873 1530 1002 1430 c 0,35,36
 1141 1323 1141 1323 1141 1158 c 0,37,38
 1141 1015 1141 1015 1038 914 c 1,39,-1
 850 976 l 1,40,41
 883 1008 883 1008 902 1046 c 0,42,43
 936 1112 936 1112 936 1196 c 0,44,45
 936 1281 936 1281 876 1343 c 0,46,47
 811 1410 811 1410 715 1410 c 0,48,49
 643 1410 643 1410 577 1382 c 0,50,51
 485 1342 485 1342 444 1272 c 0,52,53
 401 1199 401 1199 401 1108.5 c 128,-1,54
 401 1018 401 1018 456 961 c 0,55,56
 521 894 521 894 669 894 c 0,57,58
 896 894 896 894 1030 793 c 0,59,60
 1191 671 1191 671 1191 470 c 0,61,62
 1191 252 1191 252 1014 117 c 0,63,64
 834 -20 834 -20 621 -20 c 0,0,1
EndSplineSet
Validated: 1
EndChar

StartChar: nine
Encoding: 57 57 26
Width: 1374
GlyphClass: 2
Flags: W
HStem: -20 21G<507.952 878> 559 120<469.061 595> 1410 120<550.805 850.012>
VStem: 150 204<830.77 1192.77> 1020 204<705.908 1154.37>
LayerCount: 2
Fore
SplineSet
532 -20 m 1,0,-1
 431 64 l 1,1,2
 675 237 675 237 848 466 c 0,3,4
 1020 694 1020 694 1020 970 c 0,5,6
 1020 1171 1020 1171 921 1298 c 0,7,8
 834 1410 834 1410 719 1410 c 0,9,10
 601 1410 601 1410 516 1343 c 0,11,12
 419 1267 419 1267 380 1148 c 0,13,14
 354 1067 354 1067 354 974 c 0,15,16
 354 874 354 874 404 794 c 0,17,18
 476 679 476 679 595 679 c 1,19,-1
 637 559 l 1,20,21
 439 559 439 559 297 691 c 0,22,23
 150 828 150 828 150 1045 c 0,24,25
 150 1263 150 1263 297 1398 c 0,26,27
 442 1530 442 1530 666 1530 c 24,28,29
 877 1530 877 1530 1017 1398 c 0,30,31
 1224 1201 1224 1201 1224 899 c 0,32,33
 1224 371 1224 371 532 -20 c 1,0,-1
EndSplineSet
Validated: 1
EndChar

StartChar: colon
Encoding: 58 58 27
Width: 362
GlyphClass: 2
Flags: W
HStem: -20 264<91.1914 272.809> 622 264<89.1914 270.809>
VStem: 52 260<19.7072 204.293 661.707 846.293>
LayerCount: 2
Fore
SplineSet
182 -20 m 128,-1,1
 128 -20 128 -20 90 18.5 c 128,-1,2
 52 57 52 57 52 112 c 128,-1,3
 52 167 52 167 90 205.5 c 128,-1,4
 128 244 128 244 182 244 c 128,-1,5
 236 244 236 244 274 205.5 c 128,-1,6
 312 167 312 167 312 112 c 128,-1,7
 312 57 312 57 274 18.5 c 128,-1,0
 236 -20 236 -20 182 -20 c 128,-1,1
180 886 m 128,-1,9
 234 886 234 886 272 847.5 c 128,-1,10
 310 809 310 809 310 754 c 128,-1,11
 310 699 310 699 272 660.5 c 128,-1,12
 234 622 234 622 180 622 c 128,-1,13
 126 622 126 622 88 660.5 c 128,-1,14
 50 699 50 699 50 754 c 128,-1,15
 50 809 50 809 88 847.5 c 128,-1,8
 126 886 126 886 180 886 c 128,-1,9
EndSplineSet
Validated: 1
EndChar

StartChar: semicolon
Encoding: 59 59 28
Width: 378
GlyphClass: 2
Flags: W
HStem: 622 264<89.1914 270.809>
VStem: 50 260<661.707 846.293> 186 171<-108.337 113.384>
LayerCount: 2
Fore
SplineSet
234 280 m 1,0,1
 357 169 357 169 357 45 c 0,2,3
 357 -94 357 -94 202 -251 c 1,4,-1
 79 -292 l 1,5,6
 186 -142 186 -142 186 -24 c 0,7,8
 186 118 186 118 30 211 c 1,9,-1
 234 280 l 1,0,1
50 754 m 128,-1,11
 50 809 50 809 88 847.5 c 128,-1,12
 126 886 126 886 180 886 c 128,-1,13
 234 886 234 886 272 847.5 c 128,-1,14
 310 809 310 809 310 754 c 128,-1,15
 310 699 310 699 272 660.5 c 128,-1,16
 234 622 234 622 180 622 c 128,-1,17
 126 622 126 622 88 660.5 c 128,-1,10
 50 699 50 699 50 754 c 128,-1,11
EndSplineSet
Validated: 1
EndChar

StartChar: less
Encoding: 60 60 29
Width: 1250
GlyphClass: 2
Flags: W
DStem2: 406 742 150 685 0.906254 -0.422734<0 648.303> 300 869 406 742 0.906118 0.423025<42.3243 754.222>
LayerCount: 2
Fore
SplineSet
1043 382 m 1,0,1
 999 345 999 345 938 345 c 0,2,3
 880 345 880 345 806 379 c 2,4,-1
 150 685 l 1,5,6
 150 798 150 798 300 869 c 2,7,-1
 1009 1200 l 1,8,-1
 1050 1156 l 1,9,10
 1050 1043 1050 1043 900 973 c 2,11,-1
 406 742 l 1,12,-1
 1050 442 l 1,13,-1
 1043 382 l 1,0,1
EndSplineSet
Validated: 1
EndChar

StartChar: equal
Encoding: 61 61 30
Width: 1158
GlyphClass: 2
Flags: W
HStem: 484 160<190.627 967.373> 846 160<190.627 967.373>
LayerCount: 2
Fore
SplineSet
150 541 m 1,0,1
 184 644 184 644 364 644 c 2,2,-1
 989 644 l 1,3,-1
 1008 587 l 1,4,5
 974 484 974 484 794 484 c 2,6,-1
 169 484 l 1,7,-1
 150 541 l 1,0,1
150 903 m 1,8,9
 184 1006 184 1006 364 1006 c 2,10,-1
 989 1006 l 1,11,-1
 1008 949 l 1,12,13
 974 846 974 846 794 846 c 2,14,-1
 169 846 l 1,15,-1
 150 903 l 1,8,9
EndSplineSet
Validated: 1
EndChar

StartChar: greater
Encoding: 62 62 31
Width: 1250
GlyphClass: 2
Flags: W
DStem2: 1100 860 200 1103 0.906254 -0.422734<-856.208 -207.905> 350 572 241 345 0.906118 0.423025<-166.556 545.341>
LayerCount: 2
Fore
SplineSet
207 1163 m 1,0,1
 251 1200 251 1200 312 1200 c 0,2,3
 370 1200 370 1200 444 1166 c 2,4,-1
 1100 860 l 1,5,6
 1100 747 1100 747 950 676 c 2,7,-1
 241 345 l 1,8,-1
 200 389 l 1,9,10
 200 502 200 502 350 572 c 2,11,-1
 844 803 l 1,12,-1
 200 1103 l 1,13,-1
 207 1163 l 1,0,1
EndSplineSet
Validated: 1
EndChar

StartChar: question
Encoding: 63 63 32
Width: 1314
GlyphClass: 2
Flags: W
HStem: -20 264<542.191 723.809> 1410 120<550.805 853.205>
VStem: 150 204<974 1190.97> 503 260<19.7072 204.293> 960 204<884.865 1258.12>
LayerCount: 2
Fore
SplineSet
666 1530 m 24,0,1
 875 1530 875 1530 1017 1398 c 0,2,3
 1164 1261 1164 1261 1164 1044 c 0,4,5
 1164 678 1164 678 753 360 c 1,6,-1
 512 360 l 1,7,8
 846 633 846 633 934 941 c 0,9,10
 960 1032 960 1032 960 1115 c 0,11,12
 960 1221 960 1221 908 1305 c 0,13,14
 843 1410 843 1410 719 1410 c 0,15,16
 601 1410 601 1410 516 1343 c 0,17,18
 419 1267 419 1267 380 1148 c 0,19,20
 354 1067 354 1067 354 974 c 1,21,-1
 166 911 l 1,22,23
 150 976 150 976 150 1045 c 0,24,25
 150 1263 150 1263 297 1398 c 0,26,27
 442 1530 442 1530 666 1530 c 24,0,1
633 -20 m 128,-1,29
 579 -20 579 -20 541 18.5 c 128,-1,30
 503 57 503 57 503 112 c 128,-1,31
 503 167 503 167 541 205.5 c 128,-1,32
 579 244 579 244 633 244 c 128,-1,33
 687 244 687 244 725 205.5 c 128,-1,34
 763 167 763 167 763 112 c 128,-1,35
 763 57 763 57 725 18.5 c 128,-1,28
 687 -20 687 -20 633 -20 c 128,-1,29
EndSplineSet
Validated: 1
EndChar

StartChar: at
Encoding: 64 64 33
Width: 1594
GlyphClass: 2
Flags: W
HStem: -430 98<595.036 992.867> -20 21G<1422 1515> 0 30<894.801 936> 1012 108<697.73 940.267>
VStem: 100 179<60.2852 517.675> 486 195<158.196 422.063> 1369 215<18.2213 161.303>
LayerCount: 2
Fore
SplineSet
1455 -20 m 1,0,1
 1389 4 1389 4 1369 67 c 24,2,3
 1202 604 1202 604 942 966 c 0,4,5
 909 1012 909 1012 848 1012 c 0,6,7
 730 1012 730 1012 574 884 c 0,8,9
 396 738 396 738 326 530 c 0,10,11
 279 388 279 388 279 220 c 0,12,13
 279 44 279 44 370 -108 c 0,14,15
 504 -332 504 -332 771 -332 c 0,16,17
 979 -332 979 -332 1152 -197 c 1,18,-1
 1389 -227 l 1,19,20
 1168 -430 1168 -430 862 -430 c 128,-1,21
 556 -430 556 -430 335 -227 c 0,22,23
 100 -11 100 -11 100 345 c 128,-1,24
 100 701 100 701 335 917 c 0,25,26
 556 1120 556 1120 862 1120 c 0,27,28
 1063 1120 1063 1120 1165 982 c 0,29,30
 1390 674 1390 674 1584 23 c 1,31,-1
 1455 -20 l 1,0,1
936 0 m 1,32,33
 486 0 486 0 486 256 c 0,34,35
 486 511 486 511 916 815 c 1,36,-1
 934 791 l 1,37,38
 681 508 681 508 681 302 c 0,39,40
 681 101 681 101 936 30 c 1,41,-1
 936 0 l 1,32,33
EndSplineSet
Validated: 1
EndChar

StartChar: A
Encoding: 65 65 34
Width: 1548
GlyphClass: 2
Flags: W
HStem: -20 21G<1361.5 1455.85> 0 30<628.716 682> 1100 20G<406.5 728> 1409 34<525.784 563.832> 1510 20G<724.851 819>
VStem: 100 223<221.525 549.593> 1309 229<22.2882 156.219>
LayerCount: 2
Fore
SplineSet
1395 -20 m 1,0,1
 1328 4 1328 4 1309 67 c 0,2,3
 1086 814 1086 814 697 1372 c 0,4,5
 665 1418 665 1418 603 1418 c 0,6,7
 565 1418 565 1418 530 1409 c 1,8,-1
 520 1443 l 1,9,-1
 786 1530 l 1,10,11
 852 1506 852 1506 894 1445 c 0,12,13
 1287 864 1287 864 1538 27 c 1,14,-1
 1395 -20 l 1,0,1
682 0 m 1,15,16
 100 0 100 0 100 365 c 0,17,18
 100 708 100 708 713 1120 c 1,19,-1
 731 1096 l 1,20,21
 323 643 323 643 323 388 c 0,22,23
 323 110 323 110 682 30 c 1,24,-1
 682 0 l 1,15,16
EndSplineSet
Validated: 1
EndChar

StartChar: C
Encoding: 67 67 35
Width: 1489
GlyphClass: 2
Flags: W
HStem: -20 130<594.795 1001.01> 1398 132<732.642 1129.87>
VStem: 100 207<471.898 927.611>
LayerCount: 2
Fore
SplineSet
862 -20 m 128,-1,1
 556 -20 556 -20 335 183 c 0,2,3
 100 399 100 399 100 755 c 128,-1,4
 100 1111 100 1111 335 1327 c 0,5,6
 556 1530 556 1530 862 1530 c 128,-1,7
 1168 1530 1168 1530 1389 1327 c 1,8,-1
 1338 1174 l 1,9,10
 1202 1398 1202 1398 951 1398 c 0,11,12
 753 1398 753 1398 588 1268 c 0,13,14
 420 1135 420 1135 352 931 c 0,15,16
 307 796 307 796 307 636 c 0,17,18
 307 467 307 467 393 324 c 0,19,20
 521 110 521 110 775 110 c 0,21,22
 998 110 998 110 1162 258 c 1,23,-1
 1389 183 l 1,24,0
 1168 -20 1168 -20 862 -20 c 128,-1,1
EndSplineSet
Validated: 1
EndChar

StartChar: E
Encoding: 69 69 36
Width: 1489
GlyphClass: 2
Flags: W
HStem: -20 130<594.795 1001.01> 634 128<314 1165.59> 1398 132<732.642 1129.87>
VStem: 100 207<472.5 634 762 924.25>
LayerCount: 2
Fore
SplineSet
862 -20 m 128,-1,1
 556 -20 556 -20 335 183 c 0,2,3
 100 399 100 399 100 755 c 128,-1,4
 100 1111 100 1111 335 1327 c 0,5,6
 556 1530 556 1530 862 1530 c 128,-1,7
 1168 1530 1168 1530 1389 1327 c 1,8,-1
 1338 1174 l 1,9,10
 1202 1398 1202 1398 951 1398 c 0,11,12
 753 1398 753 1398 588 1268 c 0,13,14
 420 1135 420 1135 352 931 c 0,15,16
 325 851 325 851 314 762 c 1,17,-1
 1062 762 l 2,18,19
 1153 762 1153 762 1218 873 c 1,20,-1
 1239 873 l 1,21,-1
 1184 708 l 2,22,23
 1159 634 1159 634 1055 634 c 2,24,-1
 307 634 l 1,25,26
 308 466 308 466 393 324 c 0,27,28
 521 110 521 110 775 110 c 0,29,30
 998 110 998 110 1162 258 c 1,31,-1
 1389 183 l 1,32,0
 1168 -20 1168 -20 862 -20 c 128,-1,1
EndSplineSet
Validated: 1
EndChar

StartChar: F
Encoding: 70 70 37
Width: 1399
GlyphClass: 2
Flags: W
HStem: -430 21G<261.5 381.261> 334 128<390 1062.59> 1398 132<720.275 1128.28>
VStem: 200 190<-377.797 334 462 1067.79>
LayerCount: 2
Fore
SplineSet
323 -430 m 1,0,1
 200 -395 200 -395 200 -216 c 2,2,-1
 200 1312 l 2,3,4
 200 1421 200 1421 98 1421 c 0,5,6
 60 1421 60 1421 25 1412 c 1,7,-1
 15 1446 l 1,8,-1
 267 1530 l 1,9,10
 368 1501 368 1501 386 1371 c 1,11,12
 564 1530 564 1530 862 1530 c 0,13,14
 1168 1530 1168 1530 1389 1327 c 1,15,-1
 1338 1175 l 1,16,17
 1209 1398 1209 1398 951 1398 c 0,18,19
 739 1398 739 1398 586 1273 c 0,20,21
 390 1112 390 1112 390 830 c 2,22,-1
 390 462 l 1,23,-1
 959 462 l 2,24,25
 1050 462 1050 462 1115 573 c 1,26,-1
 1136 573 l 1,27,-1
 1081 408 l 2,28,29
 1056 334 1056 334 952 334 c 2,30,-1
 390 334 l 1,31,-1
 390 -407 l 1,32,-1
 323 -430 l 1,0,1
EndSplineSet
Validated: 1
EndChar

StartChar: G
Encoding: 71 71 38
Width: 1689
GlyphClass: 2
Flags: W
HStem: -430 21G<1355.5 1471.23> -20 130<594.795 1001.82> 1398 132<732.642 1129.87>
VStem: 100 207<471.898 927.611> 1299 190<-383.547 107 216 603.279>
LayerCount: 2
Fore
SplineSet
862 -20 m 0,0,1
 556 -20 556 -20 335 183 c 0,2,3
 100 399 100 399 100 755 c 128,-1,4
 100 1111 100 1111 335 1327 c 0,5,6
 556 1530 556 1530 862 1530 c 128,-1,7
 1168 1530 1168 1530 1389 1327 c 1,8,-1
 1338 1174 l 1,9,10
 1202 1398 1202 1398 951 1398 c 0,11,12
 753 1398 753 1398 588 1268 c 0,13,14
 420 1135 420 1135 352 931 c 0,15,16
 307 796 307 796 307 636 c 0,17,18
 307 467 307 467 393 324 c 0,19,20
 521 110 521 110 775 110 c 0,21,22
 998 110 998 110 1162 258 c 1,23,-1
 1299 216 l 1,24,-1
 1299 632 l 1,25,-1
 1366 655 l 1,26,27
 1489 621 1489 621 1489 441 c 2,28,-1
 1489 -404 l 1,29,-1
 1412 -430 l 1,30,31
 1299 -396 1299 -396 1299 -213 c 2,32,-1
 1299 107 l 1,33,34
 1106 -20 1106 -20 862 -20 c 0,0,1
EndSplineSet
Validated: 1
EndChar

StartChar: I
Encoding: 73 73 39
Width: 600
GlyphClass: 2
Flags: W
HStem: -20 21G<266.5 386.261> 1510 20G<212 333.5>
VStem: 205 190<32.2031 1407.61>
LayerCount: 2
Fore
SplineSet
328 -20 m 1,0,1
 205 15 205 15 205 194 c 2,2,-1
 205 1312 l 2,3,4
 205 1421 205 1421 103 1421 c 0,5,6
 65 1421 65 1421 30 1412 c 1,7,-1
 20 1446 l 1,8,-1
 272 1530 l 1,9,10
 395 1495 395 1495 395 1312 c 2,11,-1
 395 3 l 1,12,-1
 328 -20 l 1,0,1
EndSplineSet
Validated: 1
EndChar

StartChar: J
Encoding: 74 74 40
Width: 600
GlyphClass: 2
Flags: W
HStem: -410 10<25 30.5811> 1510 20G<212 333.5>
VStem: 205 190<-276.063 1407.61>
LayerCount: 2
Fore
SplineSet
25 -410 m 1,0,-1
 25 -400 l 1,1,2
 205 -317 205 -317 205 -96 c 2,3,-1
 205 1312 l 2,4,5
 205 1421 205 1421 103 1421 c 0,6,7
 65 1421 65 1421 30 1412 c 1,8,-1
 20 1446 l 1,9,-1
 272 1530 l 1,10,11
 395 1495 395 1495 395 1312 c 2,12,-1
 395 -99 l 2,13,14
 395 -410 395 -410 25 -410 c 1,0,-1
EndSplineSet
Validated: 1
EndChar

StartChar: L
Encoding: 76 76 41
Width: 974
GlyphClass: 2
Flags: W
HStem: 0 128<392.046 890.594> 1510 20G<207 328.5>
VStem: 200 190<128.878 1407.61>
LayerCount: 2
Fore
SplineSet
278 0 m 1,0,1
 200 51 200 51 200 194 c 2,2,-1
 200 1312 l 2,3,4
 200 1421 200 1421 98 1421 c 0,5,6
 60 1421 60 1421 25 1412 c 1,7,-1
 15 1446 l 1,8,-1
 267 1530 l 1,9,10
 390 1495 390 1495 390 1312 c 2,11,-1
 390 198 l 2,12,13
 390 156 390 156 409 128 c 1,14,-1
 787 128 l 2,15,16
 878 128 878 128 943 239 c 1,17,-1
 964 239 l 1,18,-1
 909 74 l 2,19,20
 884 0 884 0 780 0 c 2,21,-1
 278 0 l 1,0,1
EndSplineSet
Validated: 1
EndChar

StartChar: O
Encoding: 79 79 42
Width: 1726
GlyphClass: 2
Flags: W
HStem: -20 130<594.795 991.87> 1398 132<732.642 1129.49>
VStem: 100 207<472.148 927.611> 1419 207<576.28 1032.87>
LayerCount: 2
Fore
SplineSet
862 -20 m 128,-1,1
 556 -20 556 -20 335 183 c 0,2,3
 100 399 100 399 100 755 c 128,-1,4
 100 1111 100 1111 335 1327 c 0,5,6
 556 1530 556 1530 862 1530 c 128,-1,7
 1168 1530 1168 1530 1389 1327 c 0,8,9
 1626 1109 1626 1109 1626 755 c 128,-1,10
 1626 401 1626 401 1389 183 c 0,11,0
 1168 -20 1168 -20 862 -20 c 128,-1,1
775 110 m 0,12,13
 971 110 971 110 1138 239 c 0,14,15
 1306 369 1306 369 1374 576 c 0,16,17
 1419 713 1419 713 1419 872 c 0,18,19
 1419 1045 1419 1045 1333 1183 c 0,20,21
 1202 1398 1202 1398 951 1398 c 0,22,23
 753 1398 753 1398 588 1268 c 0,24,25
 420 1135 420 1135 352 931 c 0,26,27
 307 796 307 796 307 636 c 0,28,29
 307 468 307 468 393 324 c 0,30,31
 521 110 521 110 775 110 c 0,12,13
EndSplineSet
Validated: 1
EndChar

StartChar: Q
Encoding: 81 81 43
Width: 1726
GlyphClass: 2
Flags: W
HStem: -430 24<1378.51 1406> -20 130<597.972 818> 1398 132<732.642 1129.49>
VStem: 100 207<471.898 927.611> 924 197<-262.056 -30.1769> 1419 207<579.764 1031.87>
LayerCount: 2
Fore
SplineSet
862 -20 m 1,0,1
 556 -20 556 -20 335 183 c 0,2,3
 100 399 100 399 100 755 c 128,-1,4
 100 1111 100 1111 335 1327 c 0,5,6
 556 1530 556 1530 862 1530 c 128,-1,7
 1168 1530 1168 1530 1389 1327 c 0,8,9
 1626 1108 1626 1108 1626 755 c 0,10,11
 1626 393 1626 393 1389 183 c 0,12,13
 1186 3 1186 3 1156 -42 c 0,14,15
 1121 -96 1121 -96 1121 -161 c 0,16,17
 1121 -340 1121 -340 1424 -406 c 0,18,-1
 1406 -430 l 1,19,20
 924 -406 924 -406 924 -111 c 0,21,22
 924 4 924 4 983 83 c 0,23,24
 1035 153 1035 153 1138 239 c 0,25,26
 1311 383 1311 383 1374 576 c 0,27,28
 1419 713 1419 713 1419 872 c 0,29,30
 1419 1042 1419 1042 1333 1183 c 0,31,32
 1202 1398 1202 1398 951 1398 c 0,33,34
 753 1398 753 1398 588 1268 c 0,35,36
 420 1135 420 1135 352 931 c 0,37,38
 307 796 307 796 307 636 c 0,39,40
 307 467 307 467 393 324 c 24,41,42
 522 110 522 110 818 110 c 1,43,-1
 862 -20 l 1,0,1
EndSplineSet
Validated: 1
EndChar

StartChar: T
Encoding: 84 84 44
Width: 1529
GlyphClass: 2
Flags: W
HStem: -20 130<633.55 1041.01> 1382 128<83.4062 516 748.844 1405.59>
VStem: 139 208<477.74 927.174>
LayerCount: 2
Fore
SplineSet
902 -20 m 0,0,1
 591 -20 591 -20 375 183 c 0,2,3
 139 404 139 404 139 755 c 0,4,5
 139 1111 139 1111 397 1313 c 0,6,7
 448 1353 448 1353 516 1382 c 1,8,-1
 187 1382 l 2,9,10
 96 1382 96 1382 31 1271 c 1,11,-1
 10 1271 l 1,12,-1
 65 1436 l 2,13,14
 90 1510 90 1510 194 1510 c 2,15,-1
 1302 1510 l 2,16,17
 1393 1510 1393 1510 1458 1621 c 1,18,-1
 1479 1621 l 1,19,-1
 1424 1456 l 2,20,21
 1399 1382 1399 1382 1295 1382 c 2,22,-1
 1004 1382 l 2,23,24
 773 1382 773 1382 628 1268 c 0,25,26
 460 1135 460 1135 392 931 c 0,27,28
 347 796 347 796 347 636 c 0,29,30
 347 467 347 467 433 324 c 0,31,32
 561 110 561 110 815 110 c 0,33,34
 1038 110 1038 110 1202 258 c 1,35,-1
 1429 183 l 1,36,37
 1208 -20 1208 -20 902 -20 c 0,0,1
EndSplineSet
Validated: 1
EndChar

StartChar: V
Encoding: 86 86 45
Width: 1802
GlyphClass: 2
Flags: W
HStem: -20 21G<908 1001.38> 1409 34<15.7835 53.8319> 1480 30<1055 1094.81> 1510 20G<214.851 317>
VStem: 1471 231<760.332 1217.75>
LayerCount: 2
Fore
SplineSet
941 -20 m 1,0,1
 875 -1 875 -1 829 58 c 0,2,3
 367 632 367 632 187 1372 c 0,4,5
 175 1418 175 1418 93 1418 c 0,6,7
 55 1418 55 1418 20 1409 c 1,8,-1
 10 1443 l 1,9,-1
 276 1530 l 1,10,11
 358 1513 358 1513 380 1419 c 0,12,13
 541 716 541 716 1098 32 c 1,14,-1
 941 -20 l 1,0,1
1055 1510 m 1,15,16
 1702 1510 1702 1510 1702 1008 c 0,17,18
 1702 547 1702 547 1116 120 c 1,19,-1
 1092 139 l 1,20,21
 1471 616 1471 616 1471 1009 c 0,22,23
 1471 1372 1471 1372 1055 1480 c 1,24,-1
 1055 1510 l 1,15,16
EndSplineSet
Validated: 1
EndChar

StartChar: Y
Encoding: 89 89 46
Width: 1772
GlyphClass: 2
Flags: W
HStem: -430 21G<384 1040> 1410 34<15.7835 53.8415> 1480 30<1025 1064.81> 1510 20G<211.837 316>
VStem: 1441 231<837.008 1238.23>
LayerCount: 2
Fore
SplineSet
273 1530 m 1,0,1
 359 1513 359 1513 377 1419 c 0,2,3
 488 828 488 828 919 241 c 1,4,-1
 774 193 l 1,5,6
 702 215 702 215 662 271 c 0,7,8
 303 771 303 771 187 1373 c 0,9,10
 177 1419 177 1419 93 1419 c 0,11,12
 55 1419 55 1419 20 1410 c 1,13,-1
 10 1444 l 1,14,-1
 273 1530 l 1,0,1
1025 1510 m 1,15,16
 1672 1510 1672 1510 1672 1058 c 0,17,18
 1672 455 1672 455 408 -430 c 1,19,-1
 384 -411 l 1,20,21
 1441 544 1441 544 1441 1059 c 0,22,23
 1441 1372 1441 1372 1025 1480 c 1,24,-1
 1025 1510 l 1,15,16
EndSplineSet
Validated: 1
EndChar

StartChar: bracketleft
Encoding: 91 91 47
Width: 816
GlyphClass: 2
Flags: W
HStem: -250 124<400 738.525> 1636 124<400 737.717>
VStem: 200 200<-126 1636>
LayerCount: 2
Fore
SplineSet
200 -250 m 9,0,-1
 200 1734 l 1,1,-1
 277 1760 l 9,2,-1
 753 1760 l 1,3,-1
 766 1721 l 1,4,5
 734 1636 734 1636 572 1636 c 2,6,-1
 400 1636 l 9,7,-1
 400 -126 l 1,8,-1
 753 -126 l 1,9,-1
 766 -165 l 1,10,11
 736 -250 736 -250 572 -250 c 2,12,-1
 200 -250 l 9,0,-1
EndSplineSet
Validated: 1
EndChar

StartChar: backslash
Encoding: 92 92 48
Width: 830
GlyphClass: 2
Flags: W
DStem2: 160 1690 76 1452 0.34202 -0.939693<70.1259 1861.53>
LayerCount: 2
Fore
SplineSet
730 -180 m 1,0,1
 670 -180 l 1,2,-1
 76 1452 l 2,3,4
 50 1524 50 1524 50 1577 c 0,5,6
 50 1651 50 1651 100 1690 c 1,7,-1
 160 1690 l 1,8,-1
 754 58 l 2,9,10
 780 -14 780 -14 780 -67 c 0,11,12
 780 -141 780 -141 730 -180 c 1,0,1
EndSplineSet
Validated: 1
EndChar

StartChar: bracketright
Encoding: 93 93 49
Width: 816
GlyphClass: 2
Flags: W
HStem: -250 124<78.2832 416> 1636 124<77.4746 416>
VStem: 416 200<-126 1636>
LayerCount: 2
Fore
SplineSet
616 1760 m 9,0,-1
 616 -224 l 1,1,-1
 539 -250 l 9,2,-1
 63 -250 l 1,3,-1
 50 -211 l 1,4,5
 82 -126 82 -126 244 -126 c 2,6,-1
 416 -126 l 9,7,-1
 416 1636 l 1,8,-1
 63 1636 l 1,9,-1
 50 1675 l 1,10,11
 80 1760 80 1760 244 1760 c 2,12,-1
 616 1760 l 9,0,-1
EndSplineSet
Validated: 1
EndChar

StartChar: asciicircum
Encoding: 94 94 50
Width: 788
GlyphClass: 2
Flags: W
HStem: 1180 370
LayerCount: 2
Fore
SplineSet
482 1550 m 1,0,1
 569 1363 569 1363 738 1249 c 1,2,-1
 534 1180 l 1,3,4
 453 1277 453 1277 394 1418 c 1,5,6
 335 1276 335 1276 254 1180 c 1,7,-1
 50 1249 l 1,8,9
 185 1340 185 1340 268 1479 c 1,10,-1
 482 1550 l 1,0,1
EndSplineSet
Validated: 1
EndChar

StartChar: underscore
Encoding: 95 95 51
Width: 1152
GlyphClass: 2
Flags: W
HStem: -194 124<178.283 973.717>
LayerCount: 2
Fore
SplineSet
989 -70 m 1,0,-1
 1002 -109 l 1,1,2
 970 -194 970 -194 808 -194 c 2,3,-1
 163 -194 l 1,4,-1
 150 -155 l 1,5,6
 182 -70 182 -70 344 -70 c 2,7,-1
 989 -70 l 1,0,-1
EndSplineSet
Validated: 1
EndChar

StartChar: grave
Encoding: 96 96 52
Width: 479
GlyphClass: 2
Flags: W
HStem: 1190 370
VStem: 50 379
LayerCount: 2
Fore
SplineSet
254 1560 m 1,0,1
 359 1434 359 1434 429 1231 c 1,2,-1
 306 1190 l 1,3,4
 219 1377 219 1377 50 1491 c 1,5,-1
 254 1560 l 1,0,1
EndSplineSet
Validated: 1
EndChar

StartChar: a
Encoding: 97 97 53
Width: 1203
GlyphClass: 2
Flags: W
HStem: -20 21G<1036 1129.49> 0 30<508.801 550> 1005 34<381.784 419.716> 1100 20G<562.012 656>
VStem: 100 195<158.196 422.063> 983 210<16.2599 148.271>
LayerCount: 2
Fore
SplineSet
1069 -20 m 1,0,1
 1003 4 1003 4 983 67 c 0,2,3
 822 581 822 581 553 968 c 0,4,5
 521 1014 521 1014 459 1014 c 0,6,7
 421 1014 421 1014 386 1005 c 1,8,-1
 376 1039 l 1,9,-1
 623 1120 l 1,10,11
 689 1096 689 1096 731 1035 c 0,12,13
 1020 612 1020 612 1193 21 c 1,14,-1
 1069 -20 l 1,0,1
550 0 m 1,15,16
 100 0 100 0 100 256 c 0,17,18
 100 511 100 511 530 815 c 1,19,-1
 548 791 l 1,20,21
 295 508 295 508 295 302 c 0,22,23
 295 101 295 101 550 30 c 1,24,-1
 550 0 l 1,15,16
EndSplineSet
Validated: 1
EndChar

StartChar: b
Encoding: 98 98 54
Width: 1328
GlyphClass: 2
Flags: W
HStem: -20 99<467.94 767.801> 1021 99<522.722 886.953> 1510 20G<196.5 318.5>
VStem: 200 180<246.957 1409.59> 1040 188<392.275 782.888>
LayerCount: 2
Fore
SplineSet
664 -20 m 0,0,1
 411 -20 411 -20 292 156 c 0,2,3
 200 292 200 292 200 489 c 2,4,-1
 200 1316 l 2,5,6
 200 1425 200 1425 98 1425 c 0,7,8
 60 1425 60 1425 25 1416 c 1,9,-1
 15 1450 l 1,10,-1
 257 1530 l 1,11,12
 380 1495 380 1495 380 1316 c 2,13,-1
 380 489 l 2,14,15
 380 318 380 318 399 243 c 0,16,17
 441 79 441 79 602 79 c 0,18,19
 731 79 731 79 845 177 c 0,20,21
 957 273 957 273 1007 425 c 0,22,23
 1040 526 1040 526 1040 641 c 0,24,25
 1040 769 1040 769 985 868 c 0,26,27
 902 1021 902 1021 729 1021 c 0,28,29
 643 1021 643 1021 564 979 c 1,30,-1
 458 1085 l 1,31,32
 553 1120 553 1120 664 1120 c 0,33,34
 892 1120 892 1120 1050 972 c 0,35,36
 1228 805 1228 805 1228 550 c 128,-1,37
 1228 295 1228 295 1050 128 c 0,38,39
 892 -20 892 -20 664 -20 c 0,0,1
EndSplineSet
Validated: 1
EndChar

StartChar: c
Encoding: 99 99 55
Width: 1150
GlyphClass: 2
Flags: W
HStem: -20 99<446.486 769.015> 1021 99<559.484 881.988>
VStem: 100 188<317.527 693.718>
LayerCount: 2
Fore
SplineSet
664 -20 m 0,0,1
 436 -20 436 -20 278 128 c 0,2,3
 100 295 100 295 100 550 c 128,-1,4
 100 805 100 805 278 972 c 0,5,6
 436 1120 436 1120 664 1120 c 128,-1,7
 892 1120 892 1120 1050 972 c 1,8,-1
 1002 830 l 1,9,10
 910 1021 910 1021 729 1021 c 0,11,12
 592 1021 592 1021 484 924 c 128,-1,13
 376 827 376 827 326 675 c 0,14,15
 288 559 288 559 288 459 c 0,16,17
 288 340 288 340 348 232 c 0,18,19
 433 79 433 79 599 79 c 0,20,21
 751 79 751 79 856 192 c 1,22,-1
 1050 128 l 1,23,24
 893 -20 893 -20 664 -20 c 0,0,1
EndSplineSet
Validated: 1
EndChar

StartChar: e
Encoding: 101 101 56
Width: 1150
GlyphClass: 2
Flags: W
HStem: -20 99<446.486 769.015> 458 108<298 876.594> 1021 99<559.484 881.988>
VStem: 100 188<317.901 458>
LayerCount: 2
Fore
SplineSet
664 -20 m 0,0,1
 436 -20 436 -20 278 128 c 0,2,3
 100 295 100 295 100 550 c 128,-1,4
 100 805 100 805 278 972 c 0,5,6
 436 1120 436 1120 664 1120 c 128,-1,7
 892 1120 892 1120 1050 972 c 1,8,-1
 1002 830 l 1,9,10
 910 1021 910 1021 729 1021 c 0,11,12
 592 1021 592 1021 484 924 c 128,-1,13
 376 827 376 827 326 675 c 0,14,15
 308 619 308 619 298 566 c 1,16,-1
 773 566 l 2,17,18
 864 566 864 566 929 677 c 1,19,-1
 950 677 l 1,20,-1
 902 532 l 2,21,22
 878 458 878 458 773 458 c 2,23,-1
 288 458 l 1,24,25
 288 340 288 340 348 232 c 0,26,27
 433 79 433 79 599 79 c 0,28,29
 751 79 751 79 856 192 c 1,30,-1
 1050 128 l 1,31,32
 893 -20 893 -20 664 -20 c 0,0,1
EndSplineSet
Validated: 1
EndChar

StartChar: h
Encoding: 104 104 57
Width: 1328
GlyphClass: 2
Flags: W
HStem: -20 99<632 763.318> 1021 99<560.359 885.767> 1510 20G<186.74 308.5>
VStem: 200 170<32.2031 816.006 1034 1415.12> 1040 188<392.347 782.888>
LayerCount: 2
Fore
SplineSet
323 -20 m 1,0,1
 200 15 200 15 200 194 c 2,2,-1
 200 1319 l 2,3,4
 200 1428 200 1428 98 1428 c 0,5,6
 60 1428 60 1428 25 1419 c 1,7,-1
 15 1453 l 1,8,-1
 247 1530 l 1,9,10
 370 1495 370 1495 370 1319 c 2,11,-1
 370 1034 l 1,12,13
 487 1120 487 1120 660 1120 c 0,14,15
 892 1120 892 1120 1050 972 c 0,16,17
 1228 805 1228 805 1228 550 c 0,18,19
 1228 294 1228 294 1050 128 c 0,20,21
 893 -20 893 -20 632 -20 c 1,22,-1
 599 79 l 1,23,24
 731 79 731 79 845 177 c 0,25,26
 960 276 960 276 1007 425 c 0,27,28
 1040 530 1040 530 1040 641 c 0,29,30
 1040 769 1040 769 985 868 c 0,31,32
 899 1021 899 1021 729 1021 c 0,33,34
 587 1021 587 1021 490 922 c 0,35,36
 370 800 370 800 370 608 c 2,37,-1
 370 -4 l 1,38,-1
 323 -20 l 1,0,1
EndSplineSet
Validated: 1
EndChar

StartChar: i
Encoding: 105 105 58
Width: 580
GlyphClass: 2
Flags: W
HStem: -20 21G<266.5 388.26> 1100 20G<191.74 313.5> 1260 264<179.191 360.809>
VStem: 140 260<1299.71 1484.29> 205 170<96.1875 1005.12>
LayerCount: 2
Fore
SplineSet
328 -20 m 1,0,1
 205 15 205 15 205 194 c 2,2,-1
 205 909 l 2,3,4
 205 1018 205 1018 103 1018 c 0,5,6
 65 1018 65 1018 30 1009 c 1,7,-1
 20 1043 l 1,8,-1
 252 1120 l 1,9,10
 375 1085 375 1085 375 909 c 2,11,-1
 375 194 l 2,12,13
 375 82 375 82 477 82 c 0,14,15
 515 82 515 82 550 91 c 1,16,-1
 560 57 l 1,17,-1
 328 -20 l 1,0,1
270 1524 m 128,-1,19
 324 1524 324 1524 362 1485.5 c 128,-1,20
 400 1447 400 1447 400 1392 c 128,-1,21
 400 1337 400 1337 362 1298.5 c 128,-1,22
 324 1260 324 1260 270 1260 c 128,-1,23
 216 1260 216 1260 178 1298.5 c 128,-1,24
 140 1337 140 1337 140 1392 c 128,-1,25
 140 1447 140 1447 178 1485.5 c 128,-1,18
 216 1524 216 1524 270 1524 c 128,-1,19
EndSplineSet
Validated: 1
EndChar

StartChar: j
Encoding: 106 106 59
Width: 580
GlyphClass: 2
Flags: W
HStem: -430 21G<40 207.5> 1100 20G<191.74 313.5> 1260 264<179.191 360.809>
VStem: 140 260<1299.71 1484.29> 205 170<-156.904 1005.12>
LayerCount: 2
Fore
SplineSet
270 1524 m 128,-1,1
 324 1524 324 1524 362 1485.5 c 128,-1,2
 400 1447 400 1447 400 1392 c 128,-1,3
 400 1337 400 1337 362 1298.5 c 128,-1,4
 324 1260 324 1260 270 1260 c 128,-1,5
 216 1260 216 1260 178 1298.5 c 128,-1,6
 140 1337 140 1337 140 1392 c 128,-1,7
 140 1447 140 1447 178 1485.5 c 128,-1,0
 216 1524 216 1524 270 1524 c 128,-1,1
40 -430 m 1,8,-1
 40 -420 l 1,9,10
 205 -214 205 -214 205 78 c 2,11,-1
 205 909 l 2,12,13
 205 1018 205 1018 103 1018 c 0,14,15
 65 1018 65 1018 30 1009 c 1,16,-1
 20 1043 l 1,17,-1
 252 1120 l 1,18,19
 375 1085 375 1085 375 909 c 2,20,-1
 375 75 l 2,21,22
 375 -287 375 -287 40 -430 c 1,8,-1
EndSplineSet
Validated: 1
EndChar

StartChar: l
Encoding: 108 108 60
Width: 580
GlyphClass: 2
Flags: W
HStem: -20 21G<266.5 388.26> 1510 20G<191.74 313.5>
VStem: 205 170<96.1875 1415.12>
LayerCount: 2
Fore
SplineSet
328 -20 m 1,0,1
 205 15 205 15 205 194 c 2,2,-1
 205 1319 l 2,3,4
 205 1428 205 1428 103 1428 c 0,5,6
 65 1428 65 1428 30 1419 c 1,7,-1
 20 1453 l 1,8,-1
 252 1530 l 1,9,10
 375 1495 375 1495 375 1319 c 2,11,-1
 375 194 l 2,12,13
 375 82 375 82 477 82 c 0,14,15
 515 82 515 82 550 91 c 1,16,-1
 560 57 l 1,17,-1
 328 -20 l 1,0,1
EndSplineSet
Validated: 1
EndChar

StartChar: m
Encoding: 109 109 61
Width: 2076
GlyphClass: 2
Flags: W
HStem: -18 99<447.619 631 1380 1518.59> 1021 99<561.485 860.851 1306.53 1633.99>
VStem: 100 188<319.835 704.653> 948 180<32.2031 825.766> 1788 188<392.347 782.888>
CounterMasks: 1 38
LayerCount: 2
Fore
SplineSet
1071 -20 m 1,0,1
 948 15 948 15 948 194 c 2,2,-1
 948 611 l 2,3,4
 948 782 948 782 929 857 c 0,5,6
 887 1021 887 1021 726 1021 c 0,7,8
 597 1021 597 1021 483 923 c 0,9,10
 371 827 371 827 321 675 c 0,11,12
 288 574 288 574 288 461 c 0,13,14
 288 336 288 336 343 234 c 0,15,16
 426 81 426 81 631 81 c 1,17,-1
 664 -18 l 1,18,19
 436 -18 436 -18 278 130 c 0,20,21
 100 297 100 297 100 552 c 0,22,23
 100 805 100 805 278 972 c 0,24,25
 435 1120 435 1120 669 1120 c 0,26,27
 917 1120 917 1120 1036 944 c 1,28,29
 1179 1120 1179 1120 1410 1120 c 0,30,31
 1640 1120 1640 1120 1798 972 c 0,32,33
 1976 805 1976 805 1976 550 c 0,34,35
 1976 294 1976 294 1798 128 c 0,36,37
 1641 -20 1641 -20 1380 -20 c 1,38,-1
 1347 79 l 1,39,40
 1479 79 1479 79 1593 177 c 0,41,42
 1708 276 1708 276 1755 425 c 0,43,44
 1788 530 1788 530 1788 641 c 0,45,46
 1788 769 1788 769 1733 868 c 0,47,48
 1647 1021 1647 1021 1477 1021 c 0,49,50
 1335 1021 1335 1021 1238 922 c 0,51,52
 1128 810 1128 810 1128 611 c 2,53,-1
 1128 -1 l 1,54,-1
 1071 -20 l 1,0,1
EndSplineSet
Validated: 1
EndChar

StartChar: n
Encoding: 110 110 62
Width: 1368
GlyphClass: 2
Flags: W
HStem: -20 21G<237 328 786.5 1043.66> 1100 20G<193.494 283 1033.68 1131>
VStem: 200 128<-3 702> 1040 128<138 1029.67>
LayerCount: 2
Fore
SplineSet
274 -20 m 1,0,1
 200 6 200 6 200 109 c 2,2,-1
 200 941 l 1,3,4
 170 1016 170 1016 98 1016 c 0,5,6
 60 1016 60 1016 25 1007 c 1,7,-1
 15 1041 l 1,8,-1
 254 1120 l 1,9,10
 312 1108 312 1108 358 1009 c 0,11,12
 631 428 631 428 1040 138 c 1,13,-1
 1040 982 l 2,14,15
 1040 1032 1040 1032 987 1032 c 0,16,17
 949 1032 949 1032 914 1023 c 1,18,-1
 904 1057 l 1,19,-1
 1094 1120 l 1,20,21
 1168 1094 1168 1094 1168 991 c 2,22,-1
 1168 41 l 1,23,-1
 983 -20 l 1,24,25
 590 240 590 240 328 702 c 1,26,-1
 328 -3 l 1,27,-1
 274 -20 l 1,0,1
EndSplineSet
Validated: 1
EndChar

StartChar: o
Encoding: 111 111 63
Width: 1328
GlyphClass: 2
Flags: W
HStem: -20 99<441.047 767.64> 1021 99<560.36 887.202>
VStem: 100 188<317.112 707.725> 1040 188<392.275 782.888>
LayerCount: 2
Fore
SplineSet
599 79 m 0,0,1
 731 79 731 79 845 177 c 0,2,3
 957 273 957 273 1007 425 c 0,4,5
 1040 526 1040 526 1040 641 c 0,6,7
 1040 769 1040 769 985 868 c 0,8,9
 902 1021 902 1021 729 1021 c 0,10,11
 597 1021 597 1021 483 923 c 0,12,13
 371 827 371 827 321 675 c 0,14,15
 288 574 288 574 288 459 c 0,16,17
 288 331 288 331 343 232 c 0,18,19
 426 79 426 79 599 79 c 0,0,1
664 -20 m 128,-1,21
 436 -20 436 -20 278 128 c 0,22,23
 100 295 100 295 100 550 c 128,-1,24
 100 805 100 805 278 972 c 0,25,26
 436 1120 436 1120 664 1120 c 0,27,28
 893 1120 893 1120 1050 972 c 0,29,30
 1228 805 1228 805 1228 550 c 128,-1,31
 1228 295 1228 295 1050 128 c 0,32,20
 892 -20 892 -20 664 -20 c 128,-1,21
EndSplineSet
Validated: 1
EndChar

StartChar: p
Encoding: 112 112 64
Width: 1328
GlyphClass: 2
Flags: W
HStem: -430 21G<261.5 370> -20 99<632 763.318> 1021 99<559.267 885.767>
VStem: 200 170<-377.797 816.006> 1040 188<392.347 782.888>
LayerCount: 2
Fore
SplineSet
323 -430 m 1,0,1
 200 -395 200 -395 200 -216 c 2,2,-1
 200 909 l 2,3,4
 200 1018 200 1018 98 1018 c 0,5,6
 60 1018 60 1018 25 1009 c 1,7,-1
 15 1043 l 1,8,-1
 247 1120 l 1,9,10
 322 1099 322 1099 352 1020 c 1,11,12
 473 1120 473 1120 660 1120 c 0,13,14
 892 1120 892 1120 1050 972 c 0,15,16
 1228 805 1228 805 1228 550 c 0,17,18
 1228 294 1228 294 1050 128 c 0,19,20
 893 -20 893 -20 632 -20 c 1,21,-1
 599 79 l 1,22,23
 731 79 731 79 845 177 c 0,24,25
 960 276 960 276 1007 425 c 0,26,27
 1040 530 1040 530 1040 641 c 0,28,29
 1040 769 1040 769 985 868 c 0,30,31
 899 1021 899 1021 729 1021 c 0,32,33
 587 1021 587 1021 490 922 c 0,34,35
 370 800 370 800 370 608 c 2,36,-1
 370 -414 l 1,37,-1
 323 -430 l 1,0,1
EndSplineSet
Validated: 1
EndChar

StartChar: v
Encoding: 118 118 65
Width: 1390
GlyphClass: 2
Flags: W
HStem: -20 21G<693.5 788.091> 1070 30<776 822.395> 1100 20G<197.512 298.5>
VStem: 1085 205<524.844 885.327>
LayerCount: 2
Fore
SplineSet
729 -20 m 1,0,1
 658 0 658 0 617 58 c 0,2,3
 334 449 334 449 187 967 c 0,4,5
 174 1013 174 1013 93 1013 c 0,6,7
 55 1013 55 1013 20 1004 c 1,8,-1
 10 1038 l 1,9,-1
 258 1120 l 1,10,11
 339 1104 339 1104 362 1009 c 0,12,13
 479 526 479 526 859 24 c 1,14,-1
 729 -20 l 1,0,1
776 1100 m 1,15,16
 1290 1100 1290 1100 1290 735 c 0,17,18
 1290 399 1290 399 864 89 c 1,19,-1
 846 113 l 1,20,21
 1085 389 1085 389 1085 689 c 0,22,23
 1085 992 1085 992 776 1070 c 1,24,-1
 776 1100 l 1,15,16
EndSplineSet
Validated: 1
EndChar

StartChar: w
Encoding: 119 119 66
Width: 1898
GlyphClass: 2
Flags: W
HStem: -20 21G<693.5 788.091 1178.5 1273.09> 1070 30<1284 1330.4> 1100 20G<197.512 298.5 682.512 783.5>
VStem: 1593 205<524.844 885.327>
LayerCount: 2
Fore
SplineSet
1214 -20 m 1,0,1
 1143 0 1143 0 1102 58 c 0,2,3
 819 449 819 449 672 967 c 0,4,5
 659 1013 659 1013 578 1013 c 0,6,7
 540 1013 540 1013 505 1004 c 1,8,-1
 495 1038 l 1,9,-1
 743 1120 l 1,10,11
 824 1104 824 1104 847 1009 c 0,12,13
 964 526 964 526 1344 24 c 1,14,-1
 1214 -20 l 1,0,1
729 -20 m 1,15,16
 658 0 658 0 617 58 c 0,17,18
 334 449 334 449 187 967 c 0,19,20
 174 1013 174 1013 93 1013 c 0,21,22
 55 1013 55 1013 20 1004 c 1,23,-1
 10 1038 l 1,24,-1
 258 1120 l 1,25,26
 339 1104 339 1104 362 1009 c 0,27,28
 479 526 479 526 859 24 c 1,29,-1
 729 -20 l 1,15,16
1284 1100 m 1,30,31
 1798 1100 1798 1100 1798 735 c 0,32,33
 1798 399 1798 399 1372 89 c 1,34,-1
 1354 113 l 1,35,36
 1593 389 1593 389 1593 689 c 0,37,38
 1593 992 1593 992 1284 1070 c 1,39,-1
 1284 1100 l 1,30,31
EndSplineSet
Validated: 1
EndChar

StartChar: braceleft
Encoding: 123 123 67
Width: 801
GlyphClass: 2
Flags: W
HStem: 724 62<161.094 312.588>
VStem: 335 180<-129.59 709.666 798.88 1639.59>
LayerCount: 2
Fore
SplineSet
459 -250 m 1,0,1
 336 -215 336 -215 336 -36 c 2,2,-1
 335 615 l 2,3,4
 335 724 335 724 233 724 c 0,5,6
 195 724 195 724 160 715 c 1,7,-1
 150 755 l 1,8,-1
 160 795 l 1,9,10
 195 786 195 786 233 786 c 0,11,12
 335 786 335 786 335 895 c 2,13,-1
 335 1546 l 2,14,15
 335 1725 335 1725 458 1760 c 1,16,-1
 700 1680 l 1,17,-1
 690 1646 l 1,18,19
 655 1655 655 1655 617 1655 c 0,20,21
 515 1655 515 1655 515 1546 c 2,22,-1
 515 895 l 2,23,24
 515 776 515 776 393 755 c 1,25,26
 515 730 515 730 515 615 c 2,27,-1
 516 -36 l 2,28,29
 516 -145 516 -145 618 -145 c 0,30,31
 656 -145 656 -145 691 -136 c 1,32,-1
 701 -170 l 1,33,-1
 459 -250 l 1,0,1
EndSplineSet
Validated: 1
EndChar

StartChar: bar
Encoding: 124 124 68
Width: 660
GlyphClass: 2
Flags: W
VStem: 250 160<-139.373 1649.37>
LayerCount: 2
Fore
SplineSet
353 -180 m 1,0,1
 250 -146 250 -146 250 34 c 2,2,-1
 250 1671 l 1,3,-1
 307 1690 l 1,4,5
 410 1656 410 1656 410 1476 c 2,6,-1
 410 -161 l 1,7,-1
 353 -180 l 1,0,1
EndSplineSet
Validated: 1
EndChar

StartChar: braceright
Encoding: 125 125 69
Width: 801
GlyphClass: 2
Flags: W
HStem: 724 62<488.412 639.906>
VStem: 286 180<-129.59 709.666 798.88 1639.59>
LayerCount: 2
Fore
SplineSet
342 -250 m 1,0,1
 100 -170 l 1,2,-1
 110 -136 l 1,3,4
 145 -145 145 -145 183 -145 c 0,5,6
 285 -145 285 -145 285 -36 c 2,7,-1
 286 615 l 2,8,9
 286 730 286 730 408 755 c 1,10,11
 286 776 286 776 286 895 c 2,12,-1
 286 1546 l 2,13,14
 286 1655 286 1655 184 1655 c 0,15,16
 146 1655 146 1655 111 1646 c 1,17,-1
 101 1680 l 1,18,-1
 343 1760 l 1,19,20
 466 1725 466 1725 466 1546 c 2,21,-1
 466 895 l 2,22,23
 466 786 466 786 568 786 c 0,24,25
 606 786 606 786 641 795 c 1,26,-1
 651 755 l 1,27,-1
 641 715 l 1,28,29
 606 724 606 724 568 724 c 0,30,31
 466 724 466 724 466 615 c 2,32,-1
 465 -36 l 2,33,34
 465 -215 465 -215 342 -250 c 1,0,1
EndSplineSet
Validated: 1
EndChar

StartChar: asciitilde
Encoding: 126 126 70
Width: 1230
GlyphClass: 2
Flags: W
HStem: 543 166<672.035 903.571> 769 166<326.429 554.799>
DStem2: 638 802 586 684 0.490261 -0.871576<-36.9356 121.968>
LayerCount: 2
Fore
SplineSet
1080 927 m 1,0,-1
 966 585 l 1,1,2
 901 543 901 543 817 543 c 0,3,4
 665 543 665 543 595 668 c 2,5,-1
 586 684 l 2,6,7
 538 769 538 769 439 769 c 256,8,9
 301 769 301 769 222 551 c 1,10,-1
 150 551 l 1,11,-1
 264 893 l 1,12,13
 329 935 329 935 413 935 c 0,14,15
 563 935 563 935 638 802 c 2,16,-1
 647 786 l 2,17,18
 690 709 690 709 791 709 c 256,19,20
 929 709 929 709 1008 927 c 1,21,-1
 1080 927 l 1,0,-1
EndSplineSet
Validated: 1
EndChar

StartChar: exclamdown
Encoding: 161 161 72
Width: 692
GlyphClass: 2
Flags: W
HStem: 856 264<275.191 456.809>
VStem: 220 190<-286.879 652.468> 236 260<895.707 1080.29> 246 221<-410 -189> 260 172<578 750>
LayerCount: 2
Fore
SplineSet
467 -410 m 1,0,1
 246 -410 l 1,2,3
 221 -204 221 -204 220 32 c 0,4,5
 220 399 220 399 260 750 c 1,6,-1
 432 750 l 1,7,8
 410 511 410 511 410 285 c 0,9,10
 410 -78 410 -78 467 -410 c 1,0,1
366 1120 m 128,-1,12
 420 1120 420 1120 458 1081.5 c 128,-1,13
 496 1043 496 1043 496 988 c 128,-1,14
 496 933 496 933 458 894.5 c 128,-1,15
 420 856 420 856 366 856 c 128,-1,16
 312 856 312 856 274 894.5 c 128,-1,17
 236 933 236 933 236 988 c 128,-1,18
 236 1043 236 1043 274 1081.5 c 128,-1,11
 312 1120 312 1120 366 1120 c 128,-1,12
EndSplineSet
Validated: 1
EndChar

StartChar: cent
Encoding: 162 162 73
Width: 1150
GlyphClass: 2
Flags: W
HStem: -19 98<446.307 621.656> 1021 97<722 878.789>
VStem: 100 188<317.527 693.718> 622 100<-171.65 -14.7087 100 1005 1114.71 1271.31>
LayerCount: 2
Fore
SplineSet
622 -19 m 1,0,1
 421 -6 421 -6 278 128 c 0,2,3
 100 295 100 295 100 550 c 128,-1,4
 100 805 100 805 278 972 c 0,5,6
 421 1106 421 1106 622 1119 c 1,7,-1
 622 1280 l 1,8,-1
 650 1289 l 1,9,10
 722 1256 722 1256 722 1155 c 2,11,-1
 722 1118 l 1,12,13
 913 1101 913 1101 1050 972 c 1,14,-1
 1002 830 l 1,15,16
 910 1021 910 1021 722 1021 c 9,17,-1
 722 100 l 1,18,19
 797 128 797 128 856 192 c 1,20,-1
 1050 128 l 1,21,22
 913 -1 913 -1 722 -18 c 1,23,-1
 722 -180 l 1,24,-1
 694 -189 l 1,25,26
 622 -157 622 -157 622 -55 c 2,27,-1
 622 -19 l 1,0,1
622 80 m 1,28,-1
 622 1005 l 1,29,30
 548 982 548 982 484 924 c 0,31,32
 376 827 376 827 326 675 c 0,33,34
 288 559 288 559 288 459 c 0,35,36
 288 340 288 340 348 232 c 0,37,38
 433 79 433 79 599 79 c 0,39,40
 611 79 611 79 622 80 c 1,28,-1
EndSplineSet
Validated: 1
EndChar

StartChar: sterling
Encoding: 163 163 74
Width: 1213
GlyphClass: 2
Flags: W
HStem: 0 128<402.672 1089.59> 495 99<72.823 200 400 859.177> 720 99<72.823 200 400 859.177> 1431 99<580.138 886.079>
VStem: 200 200<131.25 495 594 720 819 1235.77>
LayerCount: 2
Fore
SplineSet
278 0 m 1,0,1
 200 59 200 59 200 194 c 2,2,-1
 200 495 l 1,3,-1
 56 495 l 1,4,-1
 50 513 l 1,5,6
 83 594 83 594 191 594 c 2,7,-1
 200 594 l 1,8,-1
 200 720 l 1,9,-1
 56 720 l 1,10,-1
 50 738 l 1,11,12
 83 819 83 819 191 819 c 2,13,-1
 200 819 l 1,14,-1
 200 1021 l 2,15,16
 200 1245 200 1245 298 1368 c 0,17,18
 427 1530 427 1530 659.5 1530 c 128,-1,19
 892 1530 892 1530 1050 1382 c 1,20,-1
 1002 1240 l 1,21,22
 910 1431 910 1431 741 1431 c 0,23,24
 607 1431 607 1431 510 1332 c 0,25,26
 400 1220 400 1220 400 1021 c 2,27,-1
 400 819 l 1,28,-1
 876 819 l 1,29,-1
 882 801 l 1,30,31
 849 720 849 720 741 720 c 2,32,-1
 400 720 l 1,33,-1
 400 594 l 1,34,-1
 876 594 l 1,35,-1
 882 576 l 1,36,37
 849 495 849 495 741 495 c 2,38,-1
 400 495 l 1,39,-1
 400 201 l 2,40,41
 400 161 400 161 419 128 c 1,42,-1
 986 128 l 2,43,44
 1077 128 1077 128 1142 239 c 1,45,-1
 1163 239 l 1,46,-1
 1108 74 l 2,47,48
 1083 -0 1083 -0 979 0 c 2,49,-1
 278 0 l 1,0,1
EndSplineSet
Validated: 1
EndChar

StartChar: currency
Encoding: 164 164 75
Width: 1594
GlyphClass: 2
Flags: W
HStem: 191 99<582.521 910.383> 1232 99<702.398 1029.76>
VStem: 243 188<529.729 918.321> 1183 188<605.385 993.356>
DStem2: 264 1401 150 1287 0.703521 -0.710675<0.815607 273.76 1397.83 1677.28> 150 209 263 96 0.703521 0.710675<0 294.471 1414.15 1676.46>
LayerCount: 2
Fore
SplineSet
742 290 m 0,0,1
 874 290 874 290 988 388 c 0,2,3
 1100 484 1100 484 1150 636 c 0,4,5
 1183 737 1183 737 1183 852 c 0,6,7
 1183 980 1183 980 1128 1079 c 0,8,9
 1045 1232 1045 1232 872 1232 c 0,10,11
 740 1232 740 1232 626 1134 c 0,12,13
 514 1038 514 1038 464 886 c 0,14,15
 431 785 431 785 431 670 c 0,16,17
 431 542 431 542 486 443 c 0,18,19
 569 290 569 290 742 290 c 0,0,1
1137 292 m 1,20,21
 996 191 996 191 807 191 c 0,22,23
 610 191 610 191 466 301 c 1,24,-1
 263 96 l 1,25,-1
 150 209 l 1,26,-1
 353 414 l 1,27,28
 243 560 243 560 243 761 c 0,29,30
 243 951 243 951 342 1093 c 1,31,-1
 150 1287 l 1,32,-1
 264 1401 l 1,33,-1
 453 1211 l 1,34,35
 602 1331 602 1331 807 1331 c 0,36,37
 1006 1331 1006 1331 1150 1219 c 1,38,-1
 1330 1401 l 1,39,-1
 1444 1287 l 1,40,-1
 1263 1104 l 1,41,42
 1371 959 1371 959 1371 761 c 0,43,44
 1371 553 1371 553 1252 403 c 1,45,-1
 1444 209 l 1,46,-1
 1331 96 l 1,47,-1
 1137 292 l 1,20,21
EndSplineSet
Validated: 1
EndChar

StartChar: yen
Encoding: 165 165 76
Width: 1559
GlyphClass: 2
Flags: W
HStem: -20 21G<856.5 950.4> 229 99<331.823 719 978 1276.18> 454 99<331.823 633 899 1268.18> 1406 34<20.7835 58.6452> 1480 30<945 987.942> 1510 20G<228.111 322>
VStem: 1231 228<1023.42 1339.67>
DStem2: 861 553 633 553 0.349754 -0.936842<-550.074 -79.7439 106.038 161.124>
LayerCount: 2
Fore
SplineSet
945 1510 m 1,0,1
 1459 1510 1459 1510 1459 1208 c 0,2,3
 1459 876 1459 876 922 582 c 1,4,-1
 904 606 l 1,5,6
 1231 904 1231 904 1231 1197 c 0,7,8
 1231 1405 1231 1405 945 1480 c 1,9,-1
 945 1510 l 1,0,1
890 -20 m 1,10,11
 823 4 823 4 804 67 c 0,12,13
 780 149 780 149 753 229 c 1,14,-1
 315 229 l 1,15,-1
 309 247 l 1,16,17
 342 328 342 328 450 328 c 2,18,-1
 719 328 l 1,19,20
 696 392 696 392 672 454 c 1,21,-1
 315 454 l 1,22,-1
 309 472 l 1,23,24
 342 553 342 553 450 553 c 2,25,-1
 633 553 l 1,26,27
 450 998 450 998 192 1369 c 0,28,29
 160 1415 160 1415 98 1415 c 0,30,31
 60 1415 60 1415 25 1406 c 1,32,-1
 15 1440 l 1,33,-1
 289 1530 l 1,34,35
 355 1506 355 1506 397 1445 c 0,36,37
 662 1054 662 1054 861 553 c 1,38,-1
 1285 553 l 1,39,-1
 1291 535 l 1,40,41
 1258 454 1258 454 1150 454 c 2,42,-1
 899 454 l 1,43,44
 922 392 922 392 945 328 c 1,45,-1
 1293 328 l 1,46,-1
 1299 310 l 1,47,48
 1266 229 1266 229 1158 229 c 2,49,-1
 978 229 l 1,50,51
 1010 131 1010 131 1041 30 c 1,52,-1
 890 -20 l 1,10,11
EndSplineSet
Validated: 1
EndChar

StartChar: brokenbar
Encoding: 166 166 77
Width: 660
GlyphClass: 2
Flags: W
VStem: 250 160<-139.373 607.373 902.627 1649.37>
LayerCount: 2
Fore
SplineSet
353 -180 m 1,0,1
 250 -146 250 -146 250 34 c 2,2,-1
 250 629 l 1,3,-1
 307 648 l 1,4,5
 410 614 410 614 410 434 c 2,6,-1
 410 -161 l 1,7,-1
 353 -180 l 1,0,1
353 862 m 1,8,9
 250 896 250 896 250 1076 c 2,10,-1
 250 1671 l 1,11,-1
 307 1690 l 1,12,13
 410 1656 410 1656 410 1476 c 2,14,-1
 410 881 l 1,15,-1
 353 862 l 1,8,9
EndSplineSet
Validated: 1
EndChar

StartChar: section
Encoding: 167 167 78
Width: 1139
GlyphClass: 2
Flags: W
HStem: -20 93<366.035 651.681> 435 108<412.855 700.642> 967 108<438.358 726.145> 1437 93<487.319 772.965>
VStem: 150 204<599.224 870.995> 209 189<1117.24 1351.51> 741 189<158.489 392.763> 785 204<639.005 910.776>
LayerCount: 2
Fore
SplineSet
535 -20 m 0,0,1
 370 -20 370 -20 244 60 c 1,2,-1
 295 210 l 1,3,4
 362 73 362 73 493 73 c 0,5,6
 561 73 561 73 619 99 c 0,7,8
 679 126 679 126 709 176 c 0,9,10
 741 229 741 229 741 292 c 0,11,12
 741 353 741 353 702 392 c 0,13,14
 659 435 659 435 556 435 c 0,15,16
 376 435 376 435 271 514 c 0,17,18
 150 605 150 605 150 749 c 0,19,20
 150 876 150 876 237 966 c 1,21,-1
 420 905 l 1,22,23
 396 872 396 872 380 834 c 0,24,25
 354 773 354 773 354 711 c 0,26,27
 354 633 354 633 411 586 c 0,28,29
 463 543 463 543 561 543 c 0,30,31
 727 543 727 543 825 467 c 0,32,33
 930 386 930 386 930 266 c 0,34,35
 930 141 930 141 825 62 c 0,36,37
 717 -20 717 -20 535 -20 c 0,0,1
604 1530 m 0,38,39
 769 1530 769 1530 895 1450 c 1,40,-1
 844 1300 l 1,41,42
 777 1437 777 1437 646 1437 c 0,43,44
 578 1437 578 1437 520 1411 c 0,45,46
 460 1384 460 1384 430 1334 c 0,47,48
 398 1281 398 1281 398 1218 c 0,49,50
 398 1157 398 1157 437 1118 c 0,51,52
 480 1075 480 1075 583 1075 c 0,53,54
 763 1075 763 1075 868 996 c 0,55,56
 989 905 989 905 989 761 c 0,57,58
 989 634 989 634 902 544 c 1,59,-1
 719 605 l 1,60,61
 743 638 743 638 759 676 c 0,62,63
 785 737 785 737 785 799 c 0,64,65
 785 877 785 877 728 924 c 0,66,67
 676 967 676 967 578 967 c 0,68,69
 412 967 412 967 314 1043 c 0,70,71
 209 1124 209 1124 209 1244 c 0,72,73
 209 1369 209 1369 314 1448 c 0,74,75
 422 1530 422 1530 604 1530 c 0,38,39
EndSplineSet
Validated: 1
EndChar

StartChar: dieresis
Encoding: 168 168 79
Width: 654
GlyphClass: 2
Flags: W
HStem: 1250 238<85.0662 248.934 406.097 568.934>
VStem: 50 234<1285.58 1452.42> 370 234<1285.58 1452.42>
LayerCount: 2
Fore
SplineSet
488 1488 m 128,-1,1
 536 1488 536 1488 570 1453.5 c 128,-1,2
 604 1419 604 1419 604 1369 c 128,-1,3
 604 1319 604 1319 570 1284.5 c 128,-1,4
 536 1250 536 1250 488 1250 c 128,-1,5
 440 1250 440 1250 405 1284.5 c 128,-1,6
 370 1319 370 1319 370 1369 c 128,-1,7
 370 1419 370 1419 405 1453.5 c 128,-1,0
 440 1488 440 1488 488 1488 c 128,-1,1
167 1488 m 128,-1,9
 216 1488 216 1488 250 1453.5 c 128,-1,10
 284 1419 284 1419 284 1369 c 128,-1,11
 284 1319 284 1319 250 1284.5 c 128,-1,12
 216 1250 216 1250 167 1250 c 128,-1,13
 118 1250 118 1250 84 1284.5 c 128,-1,14
 50 1319 50 1319 50 1369 c 128,-1,15
 50 1419 50 1419 84 1453.5 c 128,-1,8
 118 1488 118 1488 167 1488 c 128,-1,9
EndSplineSet
Validated: 1
EndChar

StartChar: copyright
Encoding: 169 169 80
Width: 1401
GlyphClass: 2
Flags: W
HStem: 386 73<514.363 878.202> 547 105<552.528 820.757> 1255 106<625.326 901.006> 1453 77<516.855 884.866>
VStem: 150 74<768.815 1151.31> 321 148<755.322 1092.64> 1176 75<757.376 1158.43>
LayerCount: 2
Fore
SplineSet
722 1361 m 128,-1,1
 883 1361 883 1361 1008 1245 c 1,2,-1
 961 1123 l 1,3,4
 904 1255 904 1255 783 1255 c 0,5,6
 677 1255 677 1255 593 1188 c 0,7,8
 469 1089 469 1089 469 895 c 0,9,10
 469 815 469 815 509 749 c 0,11,12
 568 652 568 652 669 652 c 128,-1,13
 770 652 770 652 854 718 c 1,14,-1
 1026 679 l 1,15,16
 894 547 894 547 720 547 c 0,17,18
 560 547 560 547 440.5 657.5 c 128,-1,19
 321 768 321 768 321 954.5 c 128,-1,20
 321 1141 321 1141 441 1251 c 128,-1,0
 561 1361 561 1361 722 1361 c 128,-1,1
701 1530 m 0,21,22
 943 1530 943 1530 1099 1357 c 0,23,24
 1251 1188 1251 1188 1251 953 c 0,25,26
 1251 701 1251 701 1090 549 c 0,27,28
 919 386 919 386 699 386 c 0,29,30
 476 386 476 386 311 549 c 0,31,32
 150 708 150 708 150 953 c 0,33,34
 150 1197 150 1197 308 1362 c 0,35,36
 469 1530 469 1530 701 1530 c 0,21,22
699 1453 m 0,37,38
 509 1453 509 1453 367 1312 c 0,39,40
 224 1170 224 1170 224 953 c 0,41,42
 224 760 224 760 364 605 c 0,43,44
 495 459 495 459 701 459 c 0,45,46
 892 459 892 459 1037 605 c 0,47,48
 1176 745 1176 745 1176 953 c 0,49,50
 1176 1174 1176 1174 1039 1309 c 0,51,52
 893 1453 893 1453 699 1453 c 0,37,38
EndSplineSet
Validated: 1
EndChar

StartChar: ordfeminine
Encoding: 170 170 81
Width: 692
GlyphClass: 2
Flags: W
HStem: 715 124<74.9397 616.06> 929 30<274.361 314> 1510 20G<273.6 356.5>
VStem: 50 136<999.213 1200.8> 491 151<943.168 1082.05>
LayerCount: 2
Fore
SplineSet
334 1530 m 1,0,1
 379 1514 379 1514 404 1478 c 0,2,3
 549 1266 549 1266 642 948 c 1,4,-1
 553 918 l 1,5,6
 504 936 504 936 491 976 c 0,7,8
 413 1239 413 1239 280 1421 c 0,9,10
 257 1451 257 1451 223 1451 c 0,11,12
 209 1451 209 1451 193 1446 c 1,13,-1
 183 1480 l 1,14,-1
 334 1530 l 1,0,1
314 959 m 1,15,-1
 314 929 l 1,16,17
 50 929 50 929 50 1072 c 0,18,19
 50 1213 50 1213 261 1354 c 1,20,-1
 280 1328 l 1,21,22
 186 1211 186 1211 186 1100 c 128,-1,23
 186 989 186 989 314 959 c 1,15,-1
627 839 m 1,24,-1
 641 796 l 1,25,26
 608 715 608 715 470 715 c 2,27,-1
 64 715 l 1,28,-1
 50 758 l 1,29,30
 83 839 83 839 221 839 c 2,31,-1
 627 839 l 1,24,-1
EndSplineSet
Validated: 1
EndChar

StartChar: guillemotleft
Encoding: 171 171 82
Width: 1184
GlyphClass: 2
Flags: W
DStem2: 304 758 171 668 0.574426 -0.818557<0 459.448> 468 1270 304 758 0.575548 0.817768<-513.087 -34.863> 704 758 571 668 0.574426 -0.818557<0 459.448> 868 1270 704 758 0.575548 0.817768<-513.087 -34.863>
LayerCount: 2
Fore
SplineSet
868 1270 m 1,0,-1
 926 1253 l 1,1,2
 947 1217 947 1217 947 1174 c 0,3,4
 947 1103 947 1103 887 1018 c 2,5,-1
 704 758 l 1,6,-1
 984 359 l 1,7,-1
 948 311 l 1,8,9
 934 308 934 308 920 308 c 0,10,11
 825 308 825 308 741 427 c 2,12,-1
 571 668 l 1,13,14
 550 705 550 705 550 747 c 0,15,16
 550 818 550 818 609 902 c 2,17,-1
 868 1270 l 1,0,-1
468 1270 m 1,18,-1
 526 1253 l 1,19,20
 547 1217 547 1217 547 1174 c 0,21,22
 547 1103 547 1103 487 1018 c 2,23,-1
 304 758 l 1,24,-1
 584 359 l 1,25,-1
 548 311 l 1,26,27
 534 308 534 308 520 308 c 0,28,29
 425 308 425 308 341 427 c 2,30,-1
 171 668 l 1,31,32
 150 705 150 705 150 747 c 0,33,34
 150 818 150 818 209 902 c 2,35,-1
 468 1270 l 1,18,-1
EndSplineSet
Validated: 1
EndChar

StartChar: logicalnot
Encoding: 172 172 83
Width: 1158
GlyphClass: 2
Flags: W
HStem: 665 160<190.627 874.5>
LayerCount: 2
Fore
SplineSet
169 825 m 1,0,-1
 794 825 l 2,1,2
 973 825 973 825 1008 702 c 1,3,-1
 921 440 l 1,4,-1
 887 450 l 1,5,6
 896 485 896 485 896 523 c 0,7,8
 896 665 896 665 784 665 c 2,9,-1
 364 665 l 2,10,11
 184 665 184 665 150 768 c 1,12,-1
 169 825 l 1,0,-1
EndSplineSet
Validated: 1
EndChar

StartChar: uni00AD
Encoding: 173 173 84
Width: 1158
GlyphClass: 2
Flags: W
HStem: 665 160<190.627 967.373>
LayerCount: 2
Fore
SplineSet
150 722 m 1,0,1
 184 825 184 825 364 825 c 2,2,-1
 989 825 l 1,3,-1
 1008 768 l 1,4,5
 974 665 974 665 794 665 c 2,6,-1
 169 665 l 1,7,-1
 150 722 l 1,0,1
EndSplineSet
Validated: 1
EndChar

StartChar: registered
Encoding: 174 174 85
Width: 1401
GlyphClass: 2
Flags: W
HStem: 386 73<514.363 877.349> 1249 100<662.062 834.163> 1453 77<516.855 884.866>
VStem: 150 74<769.065 1151.31> 488 140<553 1218.92> 859 136<991.904 1213.72> 1176 75<758.539 1158.43>
LayerCount: 2
Fore
SplineSet
701 1530 m 0,0,1
 943 1530 943 1530 1099 1357 c 0,2,3
 1251 1188 1251 1188 1251 953 c 0,4,5
 1251 702 1251 702 1090 549 c 0,6,7
 918 386 918 386 699 386 c 0,8,9
 476 386 476 386 311 549 c 0,10,11
 150 708 150 708 150 953 c 0,12,13
 150 1197 150 1197 308 1362 c 0,14,15
 469 1530 469 1530 701 1530 c 0,0,1
726 1349 m 0,16,17
 839 1349 839 1349 917 1277 c 128,-1,18
 995 1205 995 1205 995 1088 c 0,19,20
 995 968 995 968 915 895 c 0,21,22
 886 869 886 869 852 853 c 1,23,24
 941 728 941 728 1074 646 c 1,25,26
 1176 774 1176 774 1176 953 c 0,27,28
 1176 1174 1176 1174 1039 1309 c 0,29,30
 893 1453 893 1453 699 1453 c 0,31,32
 509 1453 509 1453 367 1312 c 0,33,34
 224 1170 224 1170 224 953 c 0,35,36
 224 761 224 761 364 605 c 0,37,38
 495 459 495 459 701 459 c 0,39,40
 853 459 853 459 975 551 c 1,41,42
 782 700 782 700 654 920 c 1,43,44
 804 939 804 939 841 1035 c 0,45,46
 859 1081 859 1081 859 1120 c 0,47,48
 859 1164 859 1164 837 1201 c 0,49,50
 807 1249 807 1249 752 1249 c 0,51,52
 704 1249 704 1249 669 1220 c 0,53,54
 628 1186 628 1186 628 1100 c 2,55,-1
 628 553 l 1,56,-1
 570 534 l 1,57,58
 488 557 488 557 488 661 c 2,59,-1
 488 1219 l 2,60,61
 488 1249 488 1249 468 1263 c 0,62,63
 452 1275 452 1275 431 1275 c 0,64,65
 417 1275 417 1275 400 1269 c 1,66,-1
 391 1299 l 1,67,-1
 546 1350 l 1,68,69
 582 1339 582 1339 603 1308 c 1,70,71
 655 1349 655 1349 726 1349 c 0,16,17
EndSplineSet
Validated: 1
EndChar

StartChar: macron
Encoding: 175 175 86
Width: 640
GlyphClass: 2
Flags: W
HStem: 1307 124<74.9397 565.06>
VStem: 50 540
LayerCount: 2
Fore
SplineSet
576 1431 m 5,0,-1
 590 1388 l 5,1,2
 557 1307 557 1307 419 1307 c 6,3,-1
 64 1307 l 5,4,-1
 50 1350 l 5,5,6
 83 1431 83 1431 221 1431 c 6,7,-1
 576 1431 l 5,0,-1
EndSplineSet
Validated: 1
EndChar

StartChar: degree
Encoding: 176 176 87
Width: 696
GlyphClass: 2
Flags: W
HStem: 944 76<223.461 420.514> 1453 77<273.1 472.041>
VStem: 50 125<1076.19 1355.73> 521 125<1118.02 1397.31>
LayerCount: 2
Fore
SplineSet
318 1020 m 0,0,1
 379 1020 379 1020 431 1065 c 0,2,3
 483 1109 483 1109 506 1179 c 0,4,5
 521 1225 521 1225 521 1279 c 0,6,7
 521 1338 521 1338 496 1383 c 0,8,9
 458 1453 458 1453 378 1453 c 0,10,11
 317 1453 317 1453 265 1408 c 0,12,13
 213 1364 213 1364 190 1294 c 0,14,15
 175 1248 175 1248 175 1195 c 0,16,17
 175 1136 175 1136 200 1090 c 0,18,19
 238 1020 238 1020 318 1020 c 0,0,1
348 1530 m 0,20,21
 477 1530 477 1530 557 1452 c 0,22,23
 646 1366 646 1366 646 1237 c 128,-1,24
 646 1108 646 1108 557 1022 c 0,25,26
 476 944 476 944 348 944 c 0,27,28
 217 944 217 944 139 1022 c 0,29,30
 50 1108 50 1108 50 1237 c 0,31,32
 50 1367 50 1367 139 1452 c 0,33,34
 221 1530 221 1530 348 1530 c 0,20,21
EndSplineSet
Validated: 1
EndChar

StartChar: plusminus
Encoding: 177 177 88
Width: 1158
GlyphClass: 2
Flags: W
HStem: 237 160<190.627 967.373> 801 160<190.627 499 659 967.373>
VStem: 499 160<492.627 801 961 1269.37>
LayerCount: 2
Fore
SplineSet
150 294 m 1,0,1
 184 397 184 397 364 397 c 2,2,-1
 989 397 l 1,3,-1
 1008 340 l 1,4,5
 974 237 974 237 794 237 c 2,6,-1
 169 237 l 1,7,-1
 150 294 l 1,0,1
556 1310 m 1,8,9
 659 1276 659 1276 659 1096 c 2,10,-1
 659 961 l 1,11,-1
 989 961 l 1,12,-1
 1008 904 l 1,13,14
 974 801 974 801 794 801 c 2,15,-1
 659 801 l 1,16,-1
 659 471 l 1,17,-1
 602 452 l 1,18,19
 499 486 499 486 499 666 c 2,20,-1
 499 801 l 1,21,-1
 169 801 l 1,22,-1
 150 858 l 1,23,24
 184 961 184 961 364 961 c 2,25,-1
 499 961 l 1,26,-1
 499 1291 l 1,27,-1
 556 1310 l 1,8,9
EndSplineSet
Validated: 1
EndChar

StartChar: uni00B2
Encoding: 178 178 89
Width: 702
GlyphClass: 2
Flags: W
HStem: 833 104<281 594.964> 1114 99<233.543 309> 1538 100<265.573 447.84>
VStem: 67 142<1233.81 1480.97> 472 142<1248.88 1508.45>
LayerCount: 2
Fore
SplineSet
342 1638 m 128,-1,1
 458 1638 458 1638 536 1565 c 0,2,3
 614 1491 614 1491 614 1375 c 0,4,5
 614 1134 614 1134 281 937 c 1,6,-1
 535 937 l 2,7,8
 570 937 570 937 602 993 c 1,9,-1
 652 993 l 1,10,-1
 615 884 l 2,11,12
 598 833 598 833 532 833 c 2,13,-1
 77 833 l 1,14,-1
 50 913 l 1,15,16
 247 1024 247 1024 353 1143 c 0,17,18
 472 1277 472 1277 472 1411 c 0,19,20
 472 1461 472 1461 448 1498 c 0,21,22
 422 1538 422 1538 369 1538 c 0,23,24
 319 1538 319 1538 279 1506 c 0,25,26
 209 1451 209 1451 209 1341 c 0,27,28
 209 1291 209 1291 235 1254 c 0,29,30
 261 1214 261 1214 309 1213 c 1,31,-1
 315 1114 l 1,32,33
 216 1121 216 1121 144 1188 c 0,34,35
 67 1260 67 1260 67 1378 c 0,36,37
 67 1495 67 1495 147 1566 c 0,38,0
 226 1638 226 1638 342 1638 c 128,-1,1
EndSplineSet
Validated: 1
EndChar

StartChar: uni00B3
Encoding: 179 179 90
Width: 643
GlyphClass: 2
Flags: W
HStem: 823 100<211.411 393.581> 1524 104<155.036 398>
VStem: 451 142<981.451 1216.31>
LayerCount: 2
Fore
SplineSet
532 1628 m 1,0,-1
 556 1558 l 1,1,2
 518 1421 518 1421 410 1336 c 1,3,4
 469 1318 469 1318 514 1277 c 0,5,6
 593 1202 593 1202 593 1084.5 c 128,-1,7
 593 967 593 967 513.5 895 c 128,-1,8
 434 823 434 823 318.5 823 c 128,-1,9
 203 823 203 823 138 884 c 128,-1,10
 73 945 73 945 50 1031 c 1,11,-1
 189 1078 l 1,12,13
 189 1001 189 1001 212 964 c 0,14,15
 237 923 237 923 290 923 c 128,-1,16
 343 923 343 923 381 955 c 0,17,18
 451 1016 451 1016 451 1120 c 0,19,20
 451 1170 451 1170 428 1205 c 0,21,22
 402 1247 402 1247 352 1247 c 0,23,24
 307 1247 307 1247 255 1215 c 1,25,-1
 224 1302 l 1,26,27
 358 1408 358 1408 398 1524 c 1,28,-1
 215 1524 l 2,29,30
 180 1524 180 1524 148 1468 c 1,31,-1
 99 1468 l 1,32,-1
 135 1577 l 2,33,34
 152 1628 152 1628 219 1628 c 2,35,-1
 532 1628 l 1,0,-1
EndSplineSet
Validated: 1
EndChar

StartChar: acute
Encoding: 180 180 91
Width: 479
GlyphClass: 2
Flags: W
HStem: 1190 370
VStem: 50 379
LayerCount: 2
Fore
SplineSet
225 1560 m 1,0,1
 429 1491 l 1,2,3
 260 1377 260 1377 173 1190 c 1,4,-1
 50 1231 l 1,5,6
 120 1434 120 1434 225 1560 c 1,0,1
EndSplineSet
Validated: 1
EndChar

StartChar: uni00B5
Encoding: 181 181 92
Width: 1328
GlyphClass: 2
Flags: W
HStem: -430 21G<151.5 260> -20 99<441.541 768.733> 1021 99<564.682 696>
VStem: 100 188<254.003 706.996> 100 160<-389.373 146> 958 170<283.994 1067.8>
LayerCount: 2
Fore
SplineSet
1081 -20 m 1,0,1
 1006 1 1006 1 976 80 c 1,2,3
 855 -20 855 -20 668 -20 c 0,4,5
 418 -20 418 -20 260 146 c 1,6,-1
 260 -411 l 1,7,-1
 203 -430 l 1,8,9
 100 -396 100 -396 100 -216 c 2,10,-1
 100 550 l 2,11,12
 100 806 100 806 278 972 c 0,13,14
 435 1120 435 1120 696 1120 c 1,15,-1
 729 1021 l 1,16,17
 597 1021 597 1021 483 923 c 0,18,19
 368 824 368 824 321 675 c 0,20,21
 288 570 288 570 288 459 c 0,22,23
 288 331 288 331 343 232 c 0,24,25
 429 79 429 79 599 79 c 0,26,27
 741 79 741 79 838 178 c 0,28,29
 958 300 958 300 958 492 c 2,30,-1
 958 1104 l 1,31,-1
 1005 1120 l 1,32,33
 1128 1085 1128 1085 1128 906 c 2,34,-1
 1128 191 l 2,35,36
 1128 82 1128 82 1230 82 c 0,37,38
 1268 82 1268 82 1303 91 c 1,39,-1
 1313 57 l 1,40,-1
 1081 -20 l 1,0,1
EndSplineSet
Validated: 1
EndChar

StartChar: paragraph
Encoding: 182 182 93
Width: 1102
GlyphClass: 2
Flags: W
HStem: -20 21G<895 952>
VStem: 772 57<89.25 820> 895 57<-1 1100>
LayerCount: 2
Fore
SplineSet
895 -20 m 1,0,-1
 895 1100 l 1,1,-1
 829 1100 l 1,2,-1
 829 17 l 1,3,4
 772 73 772 73 772 194 c 2,5,-1
 772 820 l 1,6,7
 677 760 677 760 529 760 c 0,8,9
 333 760 333 760 227 860 c 0,10,11
 100 980 100 980 100 1146 c 0,12,13
 100 1313 100 1313 217 1422 c 0,14,15
 333 1530 333 1530 523 1530 c 16,16,17
 719 1530 719 1530 825 1430 c 0,18,19
 952 1310 952 1310 952 1144 c 2,20,-1
 952 -1 l 1,21,-1
 895 -20 l 1,0,-1
EndSplineSet
Validated: 1
EndChar

StartChar: periodcentered
Encoding: 183 183 94
Width: 360
GlyphClass: 2
Flags: W
HStem: 624 264<89.1914 270.809>
VStem: 50 260<663.707 848.293>
LayerCount: 2
Fore
SplineSet
50 756 m 128,-1,1
 50 811 50 811 88 849.5 c 128,-1,2
 126 888 126 888 180 888 c 128,-1,3
 234 888 234 888 272 849.5 c 128,-1,4
 310 811 310 811 310 756 c 128,-1,5
 310 701 310 701 272 662.5 c 128,-1,6
 234 624 234 624 180 624 c 128,-1,7
 126 624 126 624 88 662.5 c 128,-1,0
 50 701 50 701 50 756 c 128,-1,1
EndSplineSet
Validated: 19457
EndChar

StartChar: cedilla
Encoding: 184 184 95
Width: 376
GlyphClass: 2
Flags: W
HStem: -460 138<50 177.151> -137 137<131 176.186>
VStem: 195 131<-297.902 -160.791>
LayerCount: 2
Fore
SplineSet
131 0 m 1,0,-1
 225 0 l 1,1,-1
 190 -84 l 1,2,3
 326 -132 326 -132 326 -253 c 0,4,5
 326 -460 326 -460 50 -460 c 1,6,-1
 19 -322 l 1,7,8
 195 -322 195 -322 195 -234 c 0,9,10
 195 -158 195 -158 81 -137 c 1,11,-1
 131 0 l 1,0,-1
EndSplineSet
Validated: 1
EndChar

StartChar: uni00B9
Encoding: 185 185 96
Width: 387
GlyphClass: 2
Flags: W
VStem: 147 140<838 1555.63>
LayerCount: 2
Fore
SplineSet
205 1631 m 1,0,1
 287 1612 287 1612 287 1522 c 2,2,-1
 287 838 l 1,3,-1
 229 819 l 1,4,5
 147 838 147 838 147 928 c 2,6,-1
 147 1519 l 2,7,8
 147 1556 147 1556 102 1556 c 0,9,10
 84 1556 84 1556 59 1550 c 1,11,-1
 50 1580 l 1,12,-1
 205 1631 l 1,0,1
EndSplineSet
Validated: 1
EndChar

StartChar: ordmasculine
Encoding: 186 186 97
Width: 704
GlyphClass: 2
Flags: W
HStem: 715 124<74.9397 629.06> 919 90<224.735 429.034> 1439 91<275.697 480.448>
VStem: 50 134<1059.75 1341.63> 520 134<1105.66 1389.53>
LayerCount: 2
Fore
SplineSet
640 839 m 1,0,-1
 654 796 l 1,1,2
 621 715 621 715 483 715 c 2,3,-1
 64 715 l 1,4,-1
 50 758 l 1,5,6
 83 839 83 839 221 839 c 2,7,-1
 640 839 l 1,0,-1
391.5 1439 m 128,-1,9
 325 1439 325 1439 274 1394 c 0,10,11
 184 1316 184 1316 184 1178 c 0,12,13
 184 1120 184 1120 209 1075 c 0,14,15
 246 1009 246 1009 312.5 1009 c 128,-1,16
 379 1009 379 1009 430 1054 c 0,17,18
 520 1132 520 1132 520 1270 c 0,19,20
 520 1329 520 1329 495 1373 c 0,21,8
 458 1439 458 1439 391.5 1439 c 128,-1,9
354 1530 m 128,-1,23
 476 1530 476 1530 565 1444 c 128,-1,24
 654 1358 654 1358 654 1225 c 0,25,26
 654 1090 654 1090 563 1004 c 0,27,28
 472 919 472 919 353 919 c 0,29,30
 231 919 231 919 140 1005 c 0,31,32
 50 1090 50 1090 50 1226 c 0,33,34
 50 1360 50 1360 142 1445 c 0,35,22
 232 1530 232 1530 354 1530 c 128,-1,23
EndSplineSet
Validated: 1
EndChar

StartChar: guillemotright
Encoding: 187 187 98
Width: 1184
GlyphClass: 2
Flags: W
DStem2: 443 1151 200 1219 0.574426 -0.818557<-167.252 292.196> 480 820 316 308 0.575548 0.817768<-478.224 0> 843 1151 600 1219 0.574426 -0.818557<-167.252 292.196> 880 820 716 308 0.575548 0.817768<-478.224 0>
LayerCount: 2
Fore
SplineSet
316 308 m 1,0,-1
 258 325 l 1,1,2
 237 361 237 361 237 404 c 0,3,4
 237 475 237 475 297 560 c 2,5,-1
 480 820 l 1,6,-1
 200 1219 l 1,7,-1
 236 1267 l 1,8,9
 250 1270 250 1270 264 1270 c 0,10,11
 359 1270 359 1270 443 1151 c 2,12,-1
 613 910 l 1,13,14
 634 873 634 873 634 831 c 0,15,16
 634 760 634 760 575 676 c 2,17,-1
 316 308 l 1,0,-1
716 308 m 1,18,-1
 658 325 l 1,19,20
 637 361 637 361 637 404 c 0,21,22
 637 475 637 475 697 560 c 2,23,-1
 880 820 l 1,24,-1
 600 1219 l 1,25,-1
 636 1267 l 1,26,27
 650 1270 650 1270 664 1270 c 0,28,29
 759 1270 759 1270 843 1151 c 2,30,-1
 1013 910 l 1,31,32
 1034 873 1034 873 1034 831 c 0,33,34
 1034 760 1034 760 975 676 c 2,35,-1
 716 308 l 1,18,-1
EndSplineSet
Validated: 1
EndChar

StartChar: onequarter
Encoding: 188 188 99
Width: 1553
GlyphClass: 2
Flags: W
HStem: 0 21G<385 477.296 1228.5 1325> 182 102<937 1190 1325 1369> 1510 20G<244.216 346>
VStem: 247 140<737 1454.63> 1012 145<643.06 768> 1190 135<10 182 284 583>
DStem2: 850 1510 470 0 0.342692 0.939448<-1478.74 -70.0529>
LayerCount: 2
Fore
SplineSet
410 0 m 1,0,1
 360 39 360 39 360 113 c 0,2,3
 360 167 360 167 386 238 c 2,4,-1
 850 1510 l 1,5,-1
 910 1510 l 1,6,7
 960 1471 960 1471 960 1397 c 0,8,9
 960 1343 960 1343 934 1272 c 2,10,-1
 470 0 l 1,11,-1
 410 0 l 1,0,1
1267 -10 m 1,12,13
 1190 14 1190 14 1190 118 c 2,14,-1
 1190 182 l 1,15,-1
 776 182 l 1,16,-1
 750 257 l 1,17,18
 946 474 946 474 1012 768 c 1,19,-1
 1157 817 l 1,20,21
 1089 472 1089 472 937 284 c 1,22,-1
 1190 284 l 1,23,-1
 1190 583 l 1,24,-1
 1248 603 l 1,25,26
 1325 578 1325 578 1325 474 c 2,27,-1
 1325 284 l 1,28,-1
 1403 284 l 1,29,-1
 1369 182 l 1,30,-1
 1325 182 l 1,31,-1
 1325 10 l 1,32,-1
 1267 -10 l 1,12,13
305 1530 m 1,33,34
 387 1511 387 1511 387 1421 c 2,35,-1
 387 737 l 1,36,-1
 329 718 l 1,37,38
 247 737 247 737 247 827 c 2,39,-1
 247 1418 l 2,40,41
 247 1455 247 1455 202 1455 c 0,42,43
 184 1455 184 1455 159 1449 c 1,44,-1
 150 1479 l 1,45,-1
 305 1530 l 1,33,34
EndSplineSet
Validated: 1
EndChar

StartChar: onehalf
Encoding: 189 189 100
Width: 1605
GlyphClass: 2
Flags: W
HStem: 0 104<1084 1397.96> 281 99<1036.35 1112> 705 100<1068.57 1250.84> 1510 20G<244.216 346>
VStem: 247 140<737 1454.63> 870 142<399.732 648.086> 1275 142<415.88 675.447>
DStem2: 850 1510 470 0 0.342692 0.939448<-1478.74 -70.0529>
LayerCount: 2
Fore
SplineSet
1145 805 m 128,-1,1
 1261 805 1261 805 1339 732 c 0,2,3
 1417 658 1417 658 1417 542 c 0,4,5
 1417 301 1417 301 1084 104 c 1,6,-1
 1338 104 l 2,7,8
 1373 104 1373 104 1405 160 c 1,9,-1
 1455 160 l 1,10,-1
 1418 51 l 2,11,12
 1401 0 1401 0 1335 0 c 2,13,-1
 880 0 l 1,14,-1
 853 80 l 1,15,16
 1050 191 1050 191 1156 310 c 0,17,18
 1275 444 1275 444 1275 578 c 0,19,20
 1275 628 1275 628 1251 665 c 0,21,22
 1225 705 1225 705 1172 705 c 0,23,24
 1122 705 1122 705 1082 673 c 0,25,26
 1012 618 1012 618 1012 508 c 0,27,28
 1012 458 1012 458 1038 421 c 0,29,30
 1064 381 1064 381 1112 380 c 1,31,-1
 1118 281 l 1,32,33
 1019 288 1019 288 946 356 c 0,34,35
 870 427 870 427 870 545 c 0,36,37
 870 662 870 662 950 734 c 0,38,0
 1029 805 1029 805 1145 805 c 128,-1,1
410 0 m 1,39,40
 360 39 360 39 360 113 c 0,41,42
 360 167 360 167 386 238 c 2,43,-1
 850 1510 l 1,44,-1
 910 1510 l 1,45,46
 960 1471 960 1471 960 1397 c 0,47,48
 960 1343 960 1343 934 1272 c 2,49,-1
 470 0 l 1,50,-1
 410 0 l 1,39,40
305 1530 m 1,51,52
 387 1511 387 1511 387 1421 c 2,53,-1
 387 737 l 1,54,-1
 329 718 l 1,55,56
 247 737 247 737 247 827 c 2,57,-1
 247 1418 l 2,58,59
 247 1455 247 1455 202 1455 c 0,60,61
 184 1455 184 1455 159 1449 c 1,62,-1
 150 1479 l 1,63,-1
 305 1530 l 1,51,52
EndSplineSet
Validated: 1
EndChar

StartChar: threequarters
Encoding: 190 190 101
Width: 1797
GlyphClass: 2
Flags: W
HStem: 0 21G<629 721.296 1472.5 1569> 182 102<1181 1434 1569 1613> 705 100<311.411 493.581> 1406 104<255.036 498>
VStem: 551 142<863.451 1098.31> 1256 145<643.06 768> 1434 135<10 182 284 583>
DStem2: 1094 1510 714 0 0.342692 0.939448<-1478.74 -70.0529>
LayerCount: 2
Fore
SplineSet
632 1510 m 1,0,-1
 656 1440 l 1,1,2
 618 1303 618 1303 510 1218 c 1,3,4
 569 1200 569 1200 614 1159 c 0,5,6
 693 1084 693 1084 693 966.5 c 128,-1,7
 693 849 693 849 613.5 777 c 128,-1,8
 534 705 534 705 418.5 705 c 128,-1,9
 303 705 303 705 238 766 c 128,-1,10
 173 827 173 827 150 913 c 1,11,-1
 289 960 l 1,12,13
 289 883 289 883 312 846 c 0,14,15
 337 805 337 805 390 805 c 128,-1,16
 443 805 443 805 481 837 c 0,17,18
 551 898 551 898 551 1002 c 0,19,20
 551 1052 551 1052 528 1087 c 0,21,22
 502 1129 502 1129 452 1129 c 0,23,24
 407 1129 407 1129 355 1097 c 1,25,-1
 324 1184 l 1,26,27
 458 1290 458 1290 498 1406 c 1,28,-1
 315 1406 l 2,29,30
 280 1406 280 1406 248 1350 c 1,31,-1
 199 1350 l 1,32,-1
 235 1459 l 2,33,34
 252 1510 252 1510 319 1510 c 2,35,-1
 632 1510 l 1,0,-1
654 0 m 1,36,37
 604 39 604 39 604 113 c 0,38,39
 604 167 604 167 630 238 c 2,40,-1
 1094 1510 l 1,41,-1
 1154 1510 l 1,42,43
 1204 1471 1204 1471 1204 1397 c 0,44,45
 1204 1343 1204 1343 1178 1272 c 2,46,-1
 714 0 l 1,47,-1
 654 0 l 1,36,37
1511 -10 m 1,48,49
 1434 14 1434 14 1434 118 c 2,50,-1
 1434 182 l 1,51,-1
 1020 182 l 1,52,-1
 994 257 l 1,53,54
 1190 474 1190 474 1256 768 c 1,55,-1
 1401 817 l 1,56,57
 1333 472 1333 472 1181 284 c 1,58,-1
 1434 284 l 1,59,-1
 1434 583 l 1,60,-1
 1492 603 l 1,61,62
 1569 578 1569 578 1569 474 c 2,63,-1
 1569 284 l 1,64,-1
 1647 284 l 1,65,-1
 1613 182 l 1,66,-1
 1569 182 l 1,67,-1
 1569 10 l 1,68,-1
 1511 -10 l 1,48,49
EndSplineSet
Validated: 1
EndChar

StartChar: questiondown
Encoding: 191 191 102
Width: 1314
GlyphClass: 2
Flags: W
HStem: -430 120<460.795 763.195> 856 264<590.191 771.809>
VStem: 150 204<-158.12 215.135> 551 260<895.707 1080.29> 960 204<-90.968 126>
LayerCount: 2
Fore
SplineSet
648 -430 m 24,0,1
 439 -430 439 -430 297 -298 c 0,2,3
 150 -161 150 -161 150 56 c 0,4,5
 150 422 150 422 561 740 c 1,6,-1
 802 740 l 1,7,8
 468 467 468 467 380 159 c 0,9,10
 354 68 354 68 354 -15 c 0,11,12
 354 -121 354 -121 406 -205 c 0,13,14
 471 -310 471 -310 595 -310 c 0,15,16
 713 -310 713 -310 798 -243 c 0,17,18
 895 -167 895 -167 934 -48 c 0,19,20
 960 33 960 33 960 126 c 1,21,-1
 1148 189 l 1,22,23
 1164 124 1164 124 1164 55 c 0,24,25
 1164 -163 1164 -163 1017 -298 c 0,26,27
 872 -430 872 -430 648 -430 c 24,0,1
681 1120 m 128,-1,29
 735 1120 735 1120 773 1081.5 c 128,-1,30
 811 1043 811 1043 811 988 c 128,-1,31
 811 933 811 933 773 894.5 c 128,-1,32
 735 856 735 856 681 856 c 128,-1,33
 627 856 627 856 589 894.5 c 128,-1,34
 551 933 551 933 551 988 c 128,-1,35
 551 1043 551 1043 589 1081.5 c 128,-1,28
 627 1120 627 1120 681 1120 c 128,-1,29
EndSplineSet
Validated: 1
EndChar

StartChar: multiply
Encoding: 215 215 103
Width: 1092
GlyphClass: 2
Flags: W
DStem2: 546 858 200 978 0.706306 -0.707907<-308.808 0 159.987 468.795> 433 745 313 399 0.707907 0.706306<-308.808 0 159.987 468.795>
LayerCount: 2
Fore
SplineSet
226 1032 m 1,0,1
 253 1046 253 1046 282 1046 c 0,2,3
 358 1046 358 1046 451 954 c 2,4,-1
 546 858 l 1,5,-1
 779 1091 l 1,6,-1
 833 1065 l 1,7,8
 847 1038 847 1038 847 1009 c 0,9,10
 847 933 847 933 755 840 c 2,11,-1
 659 745 l 1,12,-1
 892 512 l 1,13,-1
 866 458 l 1,14,15
 839 444 839 444 810 444 c 0,16,17
 734 444 734 444 641 536 c 2,18,-1
 546 632 l 1,19,-1
 313 399 l 1,20,-1
 259 425 l 1,21,22
 245 452 245 452 245 481 c 0,23,24
 245 557 245 557 337 650 c 2,25,-1
 433 745 l 1,26,-1
 200 978 l 1,27,-1
 226 1032 l 1,0,1
EndSplineSet
Validated: 1
EndChar

StartChar: divide
Encoding: 247 247 104
Width: 1158
GlyphClass: 2
Flags: W
HStem: 181 264<480.191 661.809> 665 160<190.627 967.373> 1024 264<495.191 676.809>
VStem: 441 260<220.707 405.293> 456 260<1063.71 1248.29>
LayerCount: 2
Fore
SplineSet
150 722 m 1,0,1
 184 825 184 825 364 825 c 2,2,-1
 989 825 l 1,3,-1
 1008 768 l 1,4,5
 974 665 974 665 794 665 c 2,6,-1
 169 665 l 1,7,-1
 150 722 l 1,0,1
441 313 m 128,-1,9
 441 368 441 368 479 406.5 c 128,-1,10
 517 445 517 445 571 445 c 128,-1,11
 625 445 625 445 663 406.5 c 128,-1,12
 701 368 701 368 701 313 c 128,-1,13
 701 258 701 258 663 219.5 c 128,-1,14
 625 181 625 181 571 181 c 128,-1,15
 517 181 517 181 479 219.5 c 128,-1,8
 441 258 441 258 441 313 c 128,-1,9
456 1156 m 128,-1,17
 456 1211 456 1211 494 1249.5 c 128,-1,18
 532 1288 532 1288 586 1288 c 128,-1,19
 640 1288 640 1288 678 1249.5 c 128,-1,20
 716 1211 716 1211 716 1156 c 128,-1,21
 716 1101 716 1101 678 1062.5 c 128,-1,22
 640 1024 640 1024 586 1024 c 128,-1,23
 532 1024 532 1024 494 1062.5 c 128,-1,16
 456 1101 456 1101 456 1156 c 128,-1,17
EndSplineSet
Validated: 1
EndChar

StartChar: endash
Encoding: 8211 8211 105
Width: 1158
GlyphClass: 2
Flags: W
HStem: 665 160<190.627 967.373>
LayerCount: 2
Fore
SplineSet
150 722 m 1,0,1
 184 825 184 825 364 825 c 2,2,-1
 989 825 l 1,3,-1
 1008 768 l 1,4,5
 974 665 974 665 794 665 c 2,6,-1
 169 665 l 1,7,-1
 150 722 l 1,0,1
EndSplineSet
Validated: 1
EndChar

StartChar: emdash
Encoding: 8212 8212 106
Width: 1533
GlyphClass: 2
Flags: W
HStem: 665 160<190.627 1342.37>
LayerCount: 2
Fore
SplineSet
150 722 m 1,0,1
 184 825 184 825 364 825 c 2,2,-1
 1364 825 l 1,3,-1
 1383 768 l 1,4,5
 1349 665 1349 665 1169 665 c 2,6,-1
 169 665 l 1,7,-1
 150 722 l 1,0,1
EndSplineSet
Validated: 1
EndChar

StartChar: afii00208
Encoding: 8213 8213 107
Width: 1533
GlyphClass: 2
Flags: W
HStem: 665 160<190.627 1342.37>
LayerCount: 2
Fore
SplineSet
150 722 m 1,0,1
 184 825 184 825 364 825 c 2,2,-1
 1364 825 l 1,3,-1
 1383 768 l 1,4,5
 1349 665 1349 665 1169 665 c 2,6,-1
 169 665 l 1,7,-1
 150 722 l 1,0,1
EndSplineSet
Validated: 1
EndChar

StartChar: quoteleft
Encoding: 8216 8216 108
Width: 427
GlyphClass: 2
Flags: W
HStem: 978 572
VStem: 50 171<1144.62 1366.34>
LayerCount: 2
Fore
SplineSet
328 1550 m 1,0,1
 221 1400 221 1400 221 1282 c 0,2,3
 221 1140 221 1140 377 1047 c 1,4,-1
 173 978 l 1,5,6
 50 1089 50 1089 50 1213 c 0,7,8
 50 1352 50 1352 205 1509 c 1,9,-1
 328 1550 l 1,0,1
EndSplineSet
Validated: 1
EndChar

StartChar: quoteright
Encoding: 8217 8217 109
Width: 426
GlyphClass: 2
Flags: W
HStem: 978 572
VStem: 206 171<1161.66 1383.38>
LayerCount: 2
Fore
SplineSet
254 1550 m 1,0,1
 377 1439 377 1439 377 1315 c 0,2,3
 377 1176 377 1176 222 1019 c 1,4,-1
 99 978 l 1,5,6
 206 1128 206 1128 206 1246 c 0,7,8
 206 1388 206 1388 50 1481 c 1,9,-1
 254 1550 l 1,0,1
EndSplineSet
Validated: 1
EndChar

StartChar: quotesinglbase
Encoding: 8218 8218 110
Width: 427
GlyphClass: 2
Flags: W
HStem: -292 572
VStem: 206 171<-108.337 113.384>
LayerCount: 2
Fore
SplineSet
254 280 m 1,0,1
 377 169 377 169 377 45 c 0,2,3
 377 -94 377 -94 222 -251 c 1,4,-1
 99 -292 l 1,5,6
 206 -142 206 -142 206 -24 c 0,7,8
 206 118 206 118 50 211 c 1,9,-1
 254 280 l 1,0,1
EndSplineSet
Validated: 1
EndChar

StartChar: quotereversed
Encoding: 8219 8219 111
Width: 427
GlyphClass: 2
Flags: W
HStem: 978 572
VStem: 50 171<1161.66 1383.38>
LayerCount: 2
Fore
SplineSet
173 1550 m 1,0,1
 377 1481 l 1,2,3
 221 1388 221 1388 221 1246 c 0,4,5
 221 1128 221 1128 328 978 c 1,6,-1
 205 1019 l 1,7,8
 50 1176 50 1176 50 1315 c 0,9,10
 50 1439 50 1439 173 1550 c 1,0,1
EndSplineSet
Validated: 1
EndChar

StartChar: quotedblleft
Encoding: 8220 8220 112
Width: 749
GlyphClass: 2
Flags: W
HStem: 978 572
VStem: 50 171<1144.62 1366.34> 372 171<1144.62 1366.34>
LayerCount: 2
Fore
SplineSet
328 1550 m 1,0,1
 221 1400 221 1400 221 1282 c 0,2,3
 221 1140 221 1140 377 1047 c 1,4,-1
 173 978 l 1,5,6
 50 1089 50 1089 50 1213 c 0,7,8
 50 1352 50 1352 205 1509 c 1,9,-1
 328 1550 l 1,0,1
650 1550 m 1,10,11
 543 1400 543 1400 543 1282 c 0,12,13
 543 1140 543 1140 699 1047 c 1,14,-1
 495 978 l 1,15,16
 372 1089 372 1089 372 1213 c 0,17,18
 372 1352 372 1352 527 1509 c 1,19,-1
 650 1550 l 1,10,11
EndSplineSet
Validated: 1
EndChar

StartChar: quotedblright
Encoding: 8221 8221 113
Width: 749
GlyphClass: 2
Flags: W
HStem: 978 572
VStem: 206 171<1161.66 1383.38> 528 171<1161.66 1383.38>
LayerCount: 2
Fore
SplineSet
576 1550 m 1,0,1
 699 1439 699 1439 699 1315 c 0,2,3
 699 1176 699 1176 544 1019 c 1,4,-1
 421 978 l 1,5,6
 528 1128 528 1128 528 1246 c 0,7,8
 528 1388 528 1388 372 1481 c 1,9,-1
 576 1550 l 1,0,1
254 1550 m 1,10,11
 377 1439 377 1439 377 1315 c 0,12,13
 377 1176 377 1176 222 1019 c 1,14,-1
 99 978 l 1,15,16
 206 1128 206 1128 206 1246 c 0,17,18
 206 1388 206 1388 50 1481 c 1,19,-1
 254 1550 l 1,10,11
EndSplineSet
Validated: 1
EndChar

StartChar: quotedblbase
Encoding: 8222 8222 114
Width: 749
GlyphClass: 2
Flags: W
HStem: -292 572
VStem: 206 171<-108.337 113.384> 528 171<-108.337 113.384>
LayerCount: 2
Fore
SplineSet
576 280 m 1,0,1
 699 169 699 169 699 45 c 0,2,3
 699 -94 699 -94 544 -251 c 1,4,-1
 421 -292 l 1,5,6
 528 -142 528 -142 528 -24 c 0,7,8
 528 118 528 118 372 211 c 1,9,-1
 576 280 l 1,0,1
254 280 m 1,10,11
 377 169 377 169 377 45 c 0,12,13
 377 -94 377 -94 222 -251 c 1,14,-1
 99 -292 l 1,15,16
 206 -142 206 -142 206 -24 c 0,17,18
 206 118 206 118 50 211 c 1,19,-1
 254 280 l 1,10,11
EndSplineSet
Validated: 1
EndChar

StartChar: dagger
Encoding: 8224 8224 115
Width: 1158
GlyphClass: 2
Flags: W
HStem: -20 21G<550.5 669> 1011 160<190.627 489 669 967.373> 1510 20G<489 607.5>
VStem: 489 180<32.2031 1011 1171 1477.8>
LayerCount: 2
Fore
SplineSet
612 -20 m 1,0,1
 489 15 489 15 489 194 c 2,2,-1
 489 1011 l 1,3,-1
 169 1011 l 1,4,-1
 150 1068 l 1,5,6
 184 1171 184 1171 364 1171 c 2,7,-1
 489 1171 l 1,8,-1
 489 1511 l 1,9,-1
 546 1530 l 1,10,11
 669 1495 669 1495 669 1316 c 2,12,-1
 669 1171 l 1,13,-1
 989 1171 l 1,14,-1
 1008 1114 l 1,15,16
 974 1011 974 1011 794 1011 c 2,17,-1
 669 1011 l 1,18,-1
 669 -1 l 1,19,-1
 612 -20 l 1,0,1
EndSplineSet
Validated: 1
EndChar

StartChar: daggerdbl
Encoding: 8225 8225 116
Width: 1158
GlyphClass: 2
Flags: W
HStem: -20 21G<550.5 669> 339 160<190.627 489 669 967.373> 1011 160<190.627 489 669 967.373> 1510 20G<489 607.5>
VStem: 489 180<32.2031 339 499 1011 1171 1477.8>
LayerCount: 2
Fore
SplineSet
612 -20 m 1,0,1
 489 15 489 15 489 194 c 2,2,-1
 489 339 l 1,3,-1
 169 339 l 1,4,-1
 150 396 l 1,5,6
 184 499 184 499 364 499 c 2,7,-1
 489 499 l 1,8,-1
 489 1011 l 1,9,-1
 169 1011 l 1,10,-1
 150 1068 l 1,11,12
 184 1171 184 1171 364 1171 c 2,13,-1
 489 1171 l 1,14,-1
 489 1511 l 1,15,-1
 546 1530 l 1,16,17
 669 1495 669 1495 669 1316 c 2,18,-1
 669 1171 l 1,19,-1
 989 1171 l 1,20,-1
 1008 1114 l 1,21,22
 974 1011 974 1011 794 1011 c 2,23,-1
 669 1011 l 1,24,-1
 669 499 l 1,25,-1
 989 499 l 1,26,-1
 1008 442 l 1,27,28
 974 339 974 339 794 339 c 2,29,-1
 669 339 l 1,30,-1
 669 -1 l 1,31,-1
 612 -20 l 1,0,1
EndSplineSet
Validated: 1
EndChar

StartChar: bullet
Encoding: 8226 8226 117
Width: 962
GlyphClass: 2
Flags: W
HStem: 415 680<317.963 644.252>
VStem: 150 662<584.932 924.627>
LayerCount: 2
Fore
SplineSet
481 415 m 0,0,1
 342 415 342 415 246 515 c 128,-1,2
 150 615 150 615 150 755 c 0,3,4
 150 894 150 894 247 995 c 0,5,6
 343 1095 343 1095 481 1095 c 0,7,8
 620 1095 620 1095 716 995 c 128,-1,9
 812 895 812 895 812 755 c 128,-1,10
 812 615 812 615 715.5 515 c 128,-1,11
 619 415 619 415 481 415 c 0,0,1
EndSplineSet
Validated: 1
EndChar

StartChar: ellipsis
Encoding: 8230 8230 118
Width: 1190
GlyphClass: 2
Flags: W
HStem: -20 264<89.1914 270.809 505.191 686.809 919.191 1100.81>
VStem: 50 260<19.7072 204.293> 466 260<19.7072 204.293> 880 260<19.7072 204.293>
LayerCount: 2
Fore
SplineSet
1010 -20 m 128,-1,1
 956 -20 956 -20 918 18.5 c 128,-1,2
 880 57 880 57 880 112 c 128,-1,3
 880 167 880 167 918 205.5 c 128,-1,4
 956 244 956 244 1010 244 c 128,-1,5
 1064 244 1064 244 1102 205.5 c 128,-1,6
 1140 167 1140 167 1140 112 c 128,-1,7
 1140 57 1140 57 1102 18.5 c 128,-1,0
 1064 -20 1064 -20 1010 -20 c 128,-1,1
596 -20 m 128,-1,9
 542 -20 542 -20 504 18.5 c 128,-1,10
 466 57 466 57 466 112 c 128,-1,11
 466 167 466 167 504 205.5 c 128,-1,12
 542 244 542 244 596 244 c 128,-1,13
 650 244 650 244 688 205.5 c 128,-1,14
 726 167 726 167 726 112 c 128,-1,15
 726 57 726 57 688 18.5 c 128,-1,8
 650 -20 650 -20 596 -20 c 128,-1,9
180 -20 m 128,-1,17
 126 -20 126 -20 88 18.5 c 128,-1,18
 50 57 50 57 50 112 c 128,-1,19
 50 167 50 167 88 205.5 c 128,-1,20
 126 244 126 244 180 244 c 128,-1,21
 234 244 234 244 272 205.5 c 128,-1,22
 310 167 310 167 310 112 c 128,-1,23
 310 57 310 57 272 18.5 c 128,-1,16
 234 -20 234 -20 180 -20 c 128,-1,17
EndSplineSet
Validated: 1
EndChar

StartChar: perthousand
Encoding: 8240 8240 119
Width: 2357
GlyphClass: 2
Flags: W
HStem: -20 88<1027.28 1248.26 1738.28 1959.26> 0 21G<548 640.296> 539 91<1080.56 1301.29 1791.56 2012.29> 880 88<343.279 564.256> 1439 91<396.561 617.286>
VStem: 150 142<1034.43 1326.29> 668 144<1079.57 1376.07> 834 142<134.429 426.29> 1352 144<179.569 476.071> 1545 142<134.429 426.29> 2063 144<179.569 476.071>
DStem2: 1013 1510 633 0 0.342692 0.939448<-1478.74 -70.0529>
LayerCount: 2
Fore
SplineSet
1843 68 m 0,0,1
 1909 68 1909 68 1966 117 c 0,2,3
 2022 165 2022 165 2047 241 c 0,4,5
 2063 291 2063 291 2063 349 c 0,6,7
 2063 412 2063 412 2036 462 c 0,8,9
 1993 539 1993 539 1908 539 c 0,10,11
 1842 539 1842 539 1785 490 c 0,12,13
 1729 442 1729 442 1704 366 c 0,14,15
 1687 316 1687 316 1687 258 c 0,16,17
 1687 194 1687 194 1715 144 c 0,18,19
 1757 68 1757 68 1843 68 c 0,0,1
1876 630 m 0,20,21
 2019 630 2019 630 2108 544 c 0,22,23
 2207 449 2207 449 2207 305 c 0,24,25
 2207 162 2207 162 2108 66 c 0,26,27
 2018 -20 2018 -20 1876 -20 c 0,28,29
 1730 -20 1730 -20 1644 66 c 0,30,31
 1545 162 1545 162 1545 305 c 0,32,33
 1545 449 1545 449 1644 544 c 0,34,35
 1735 630 1735 630 1876 630 c 0,20,21
1132 68 m 0,36,37
 1198 68 1198 68 1255 117 c 0,38,39
 1311 165 1311 165 1336 241 c 0,40,41
 1352 291 1352 291 1352 349 c 0,42,43
 1352 412 1352 412 1325 462 c 0,44,45
 1282 539 1282 539 1197 539 c 0,46,47
 1131 539 1131 539 1074 490 c 0,48,49
 1018 442 1018 442 993 366 c 0,50,51
 976 316 976 316 976 258 c 0,52,53
 976 194 976 194 1004 144 c 0,54,55
 1046 68 1046 68 1132 68 c 0,36,37
1165 630 m 0,56,57
 1308 630 1308 630 1397 544 c 0,58,59
 1496 449 1496 449 1496 305 c 0,60,61
 1496 162 1496 162 1397 66 c 0,62,63
 1307 -20 1307 -20 1165 -20 c 0,64,65
 1019 -20 1019 -20 933 66 c 0,66,67
 834 162 834 162 834 305 c 0,68,69
 834 449 834 449 933 544 c 0,70,71
 1024 630 1024 630 1165 630 c 0,56,57
448 968 m 0,72,73
 514 968 514 968 571 1017 c 0,74,75
 627 1065 627 1065 652 1141 c 0,76,77
 668 1191 668 1191 668 1249 c 0,78,79
 668 1312 668 1312 641 1362 c 0,80,81
 598 1439 598 1439 513 1439 c 0,82,83
 447 1439 447 1439 390 1390 c 0,84,85
 334 1342 334 1342 309 1266 c 0,86,87
 292 1216 292 1216 292 1158 c 0,88,89
 292 1094 292 1094 320 1044 c 0,90,91
 362 968 362 968 448 968 c 0,72,73
481 1530 m 0,92,93
 624 1530 624 1530 713 1444 c 0,94,95
 812 1349 812 1349 812 1205 c 0,96,97
 812 1062 812 1062 713 966 c 0,98,99
 623 880 623 880 481 880 c 0,100,101
 335 880 335 880 249 966 c 0,102,103
 150 1062 150 1062 150 1205 c 0,104,105
 150 1349 150 1349 249 1444 c 0,106,107
 340 1530 340 1530 481 1530 c 0,92,93
573 0 m 1,108,109
 523 39 523 39 523 113 c 0,110,111
 523 167 523 167 549 238 c 2,112,-1
 1013 1510 l 1,113,-1
 1073 1510 l 1,114,115
 1123 1471 1123 1471 1123 1397 c 0,116,117
 1123 1343 1123 1343 1097 1272 c 2,118,-1
 633 0 l 1,119,-1
 573 0 l 1,108,109
EndSplineSet
Validated: 1
EndChar

StartChar: minute
Encoding: 8242 8242 120
Width: 390
GlyphClass: 2
Flags: W
HStem: 1137 423
VStem: 156 184<1376.43 1502.83>
LayerCount: 2
Fore
SplineSet
156 1560 m 1,0,-1
 340 1498 l 1,1,2
 277 1283 277 1283 153 1137 c 1,3,-1
 50 1171 l 1,4,5
 137 1344 137 1344 156 1560 c 1,0,-1
EndSplineSet
Validated: 1
EndChar

StartChar: second
Encoding: 8243 8243 121
Width: 683
GlyphClass: 2
Flags: W
HStem: 1137 423
VStem: 156 184<1376.43 1502.83> 449 184<1376.43 1502.83>
LayerCount: 2
Fore
SplineSet
449 1560 m 1,0,-1
 633 1498 l 1,1,2
 570 1283 570 1283 446 1137 c 1,3,-1
 343 1171 l 1,4,5
 430 1344 430 1344 449 1560 c 1,0,-1
156 1560 m 1,6,-1
 340 1498 l 1,7,8
 277 1283 277 1283 153 1137 c 1,9,-1
 50 1171 l 1,10,11
 137 1344 137 1344 156 1560 c 1,6,-1
EndSplineSet
Validated: 1
EndChar

StartChar: guilsinglleft
Encoding: 8249 8249 122
Width: 784
GlyphClass: 2
Flags: W
VStem: 150 434
DStem2: 304 758 171 668 0.574426 -0.818557<0 459.448> 468 1270 304 758 0.575548 0.817768<-513.087 -34.863>
LayerCount: 2
Fore
SplineSet
468 1270 m 1,0,-1
 526 1253 l 1,1,2
 547 1217 547 1217 547 1174 c 0,3,4
 547 1103 547 1103 487 1018 c 2,5,-1
 304 758 l 1,6,-1
 584 359 l 1,7,-1
 548 311 l 1,8,9
 534 308 534 308 520 308 c 0,10,11
 425 308 425 308 341 427 c 2,12,-1
 171 668 l 1,13,14
 150 705 150 705 150 747 c 0,15,16
 150 818 150 818 209 902 c 2,17,-1
 468 1270 l 1,0,-1
EndSplineSet
Validated: 1
EndChar

StartChar: guilsinglright
Encoding: 8250 8250 123
Width: 784
GlyphClass: 2
Flags: W
VStem: 200 434
DStem2: 443 1151 200 1219 0.574426 -0.818557<-167.252 292.196> 480 820 316 308 0.575548 0.817768<-478.224 0>
LayerCount: 2
Fore
SplineSet
316 308 m 1,0,-1
 258 325 l 1,1,2
 237 361 237 361 237 404 c 0,3,4
 237 475 237 475 297 560 c 2,5,-1
 480 820 l 1,6,-1
 200 1219 l 1,7,-1
 236 1267 l 1,8,9
 250 1270 250 1270 264 1270 c 0,10,11
 359 1270 359 1270 443 1151 c 2,12,-1
 613 910 l 1,13,14
 634 873 634 873 634 831 c 0,15,16
 634 760 634 760 575 676 c 2,17,-1
 316 308 l 1,0,-1
EndSplineSet
Validated: 1
EndChar

StartChar: fraction
Encoding: 8260 8260 124
Width: 800
GlyphClass: 2
Flags: W
HStem: 0 21G<125 217.296>
VStem: 100 600
DStem2: 590 1510 210 0 0.342692 0.939448<-1478.74 -70.0529>
LayerCount: 2
Fore
SplineSet
150 0 m 1,0,1
 100 39 100 39 100 113 c 0,2,3
 100 167 100 167 126 238 c 2,4,-1
 590 1510 l 1,5,-1
 650 1510 l 1,6,7
 700 1471 700 1471 700 1397 c 0,8,9
 700 1343 700 1343 674 1272 c 2,10,-1
 210 0 l 1,11,-1
 150 0 l 1,0,1
EndSplineSet
Validated: 1
EndChar

StartChar: Euro
Encoding: 8364 8364 125
Width: 1731
GlyphClass: 2
Flags: W
HStem: -20 130<736.795 1143.01> 596 99<72.823 244 451 1017.18> 821 99<72.823 244 490 1009.18> 1398 132<874.642 1271.87>
VStem: 242 209<472.078 596 695 819.093> 256 234<920 1022.87>
LayerCount: 2
Fore
SplineSet
1004 -20 m 128,-1,1
 698 -20 698 -20 477 183 c 0,2,3
 297 348 297 348 255 596 c 1,4,-1
 56 596 l 1,5,-1
 50 614 l 1,6,7
 83 695 83 695 191 695 c 2,8,-1
 244 695 l 1,9,10
 242 724 242 724 242 755 c 0,11,12
 242 789 242 789 244 821 c 1,13,-1
 56 821 l 1,14,-1
 50 839 l 1,15,16
 83 920 83 920 191 920 c 2,17,-1
 256 920 l 1,18,19
 299 1164 299 1164 477 1327 c 0,20,21
 698 1530 698 1530 1004 1530 c 128,-1,22
 1310 1530 1310 1530 1531 1327 c 1,23,-1
 1480 1174 l 1,24,25
 1344 1398 1344 1398 1093 1398 c 0,26,27
 895 1398 895 1398 730 1268 c 0,28,29
 560 1133 560 1133 490 920 c 1,30,-1
 1026 920 l 1,31,-1
 1032 902 l 1,32,33
 999 821 999 821 891 821 c 2,34,-1
 466 821 l 1,35,36
 455 760 455 760 451 695 c 1,37,-1
 1034 695 l 1,38,-1
 1040 677 l 1,39,40
 1007 596 1007 596 899 596 c 2,41,-1
 450 596 l 1,42,43
 459 450 459 450 535 324 c 0,44,45
 663 110 663 110 917 110 c 0,46,47
 1140 110 1140 110 1304 258 c 1,48,-1
 1531 183 l 1,49,0
 1310 -20 1310 -20 1004 -20 c 128,-1,1
EndSplineSet
Validated: 1
EndChar

StartChar: afii61248
Encoding: 8453 8453 126
Width: 1995
GlyphClass: 2
Flags: W
HStem: -20 106<1274.05 1539.04> 0 21G<702 794.296> 688 106<1346.21 1611.34> 716 105<381.948 650.213> 1424 106<454.326 730.006>
VStem: 150 148<924.322 1261.64> 1040 150<188.029 525.733> 1695 150<248.267 584.028>
DStem2: 1167 1510 787 0 0.342692 0.939448<-1478.74 -70.0529>
LayerCount: 2
Fore
SplineSet
727 0 m 1,0,1
 677 39 677 39 677 113 c 0,2,3
 677 167 677 167 703 238 c 2,4,-1
 1167 1510 l 1,5,-1
 1227 1510 l 1,6,7
 1277 1471 1277 1471 1277 1397 c 0,8,9
 1277 1343 1277 1343 1251 1272 c 2,10,-1
 787 0 l 1,11,-1
 727 0 l 1,0,1
1442 -20 m 0,12,13
 1282 -20 1282 -20 1161 90 c 128,-1,14
 1040 200 1040 200 1040 388 c 0,15,16
 1040 574 1040 574 1161 684 c 128,-1,17
 1282 794 1282 794 1444 794 c 0,18,19
 1604 794 1604 794 1724 683 c 0,20,21
 1845 571 1845 571 1845 386 c 0,22,23
 1845 200 1845 200 1724 90 c 128,-1,24
 1603 -20 1603 -20 1442 -20 c 0,12,13
1399 86 m 0,25,26
 1487 86 1487 86 1571 153 c 0,27,28
 1695 252 1695 252 1695 446 c 0,29,30
 1695 526 1695 526 1655 592 c 0,31,32
 1597 688 1597 688 1487 688 c 0,33,34
 1398 688 1398 688 1314 621 c 0,35,36
 1190 522 1190 522 1190 328 c 0,37,38
 1190 248 1190 248 1230 182 c 0,39,40
 1288 86 1288 86 1399 86 c 0,25,26
551 1530 m 128,-1,42
 712 1530 712 1530 837 1414 c 1,43,-1
 790 1292 l 1,44,45
 733 1424 733 1424 612 1424 c 0,46,47
 506 1424 506 1424 422 1357 c 0,48,49
 298 1258 298 1258 298 1064 c 0,50,51
 298 984 298 984 338 918 c 0,52,53
 397 821 397 821 498 821 c 128,-1,54
 599 821 599 821 683 887 c 1,55,-1
 855 848 l 1,56,57
 724 716 724 716 550 716 c 0,58,59
 390 716 390 716 270 826.5 c 128,-1,60
 150 937 150 937 150 1123.5 c 128,-1,61
 150 1310 150 1310 270 1420 c 128,-1,41
 390 1530 390 1530 551 1530 c 128,-1,42
EndSplineSet
Validated: 1
EndChar

StartChar: afii61289
Encoding: 8467 8467 127
Width: 958
GlyphClass: 2
Flags: W
HStem: -20 136<458.002 574.715> 0 21G<50 263> 1510 20G<632 703>
VStem: 232 155<466 819.618> 655 153<1042.58 1357.48>
LayerCount: 2
Fore
SplineSet
387 466 m 1,0,1
 498 708 498 708 554 860 c 0,2,3
 655 1134 655 1134 655 1359 c 1,4,5
 563 1238 563 1238 503 1067 c 0,6,7
 387 740 387 740 387 466 c 1,0,1
50 0 m 1,8,9
 171 158 171 158 244 282 c 1,10,11
 232 366 232 366 232 443 c 0,12,13
 232 629 232 629 279 848 c 0,14,15
 367 1251 367 1251 517 1434 c 0,16,17
 595 1530 595 1530 669 1530 c 0,18,19
 737 1530 737 1530 772 1479 c 0,20,21
 808 1429 808 1429 808 1318 c 0,22,23
 808 1226 808 1226 778 1072 c 0,24,25
 708 722 708 722 422 271 c 1,26,27
 454 116 454 116 511 116 c 0,28,29
 535 116 535 116 562.5 145 c 128,-1,30
 590 174 590 174 616 228 c 1,31,-1
 792 228 l 1,32,33
 715 100 715 100 650.5 40 c 128,-1,34
 586 -20 586 -20 502 -20 c 0,35,36
 382 -20 382 -20 305 90 c 1,37,-1
 251 0 l 1,38,-1
 50 0 l 1,8,9
EndSplineSet
Validated: 1
EndChar

StartChar: trademark
Encoding: 8482 8482 128
Width: 2354
GlyphClass: 2
Flags: W
HStem: 726 105<380.206 655.589 1071.39 1206 1791 1901.61> 1426 104<136.036 287 441.031 812.964 1126.11 1399.81 1684.72 1983.67>
VStem: 152 144<936.156 1271.26> 838 143<941.134 1267.7> 1451 140<744 1333.82> 2061 143<998.597 1330.93>
LayerCount: 2
Fore
SplineSet
1245 1540 m 128,-1,1
 1411 1540 1411 1540 1514 1411 c 1,2,3
 1606 1541 1606 1541 1802 1541 c 0,4,5
 1962 1541 1962 1541 2084 1429 c 0,6,7
 2204 1318 2204 1318 2204 1133 c 128,-1,8
 2204 948 2204 948 2077 837 c 0,9,10
 1951 726 1951 726 1791 726 c 1,11,-1
 1721 831 l 1,12,13
 1851 831 1851 831 1929 893 c 0,14,15
 2061 998 2061 998 2061 1192 c 0,16,17
 2061 1272 2061 1272 2020 1337 c 0,18,19
 1959 1434 1959 1434 1853.5 1434 c 128,-1,20
 1748 1434 1748 1434 1670 1371 c 0,21,22
 1591 1307 1591 1307 1591 1172 c 2,23,-1
 1591 744 l 1,24,-1
 1533 725 l 1,25,26
 1451 748 1451 748 1451 853 c 2,27,-1
 1451 1172 l 2,28,29
 1451 1302 1451 1302 1420 1354 c 0,30,31
 1371 1434 1371 1434 1281 1434 c 128,-1,32
 1191 1434 1191 1434 1113 1372 c 0,33,34
 981 1268 981 1268 981 1074 c 0,35,36
 981 993 981 993 1022 928 c 0,37,38
 1083 831 1083 831 1206 831 c 1,39,-1
 1276 726 l 1,40,41
 1097 727 1097 727 967 836 c 0,42,43
 838 945 838 945 838 1132.5 c 128,-1,44
 838 1320 838 1320 959 1430 c 0,45,0
 1079 1540 1079 1540 1245 1540 c 128,-1,1
199 1530 m 2,46,-1
 753 1530 l 2,47,48
 788 1530 788 1530 820 1586 c 1,49,-1
 869 1586 l 1,50,-1
 833 1477 l 2,51,52
 816 1426 816 1426 750 1426 c 2,53,-1
 604 1426 l 2,54,55
 496 1426 496 1426 422 1368 c 0,56,57
 296 1268 296 1268 296 1073 c 0,58,59
 296 994 296 994 336 928 c 0,60,61
 395 831 395 831 498.5 831 c 128,-1,62
 602 831 602 831 686 896 c 1,63,-1
 858 858 l 1,64,65
 718 726 718 726 555 726 c 128,-1,66
 392 726 392 726 272 838 c 0,67,68
 152 949 152 949 152 1134 c 128,-1,69
 152 1319 152 1319 287 1426 c 1,70,-1
 196 1426 l 2,71,72
 161 1426 161 1426 129 1371 c 1,73,-1
 80 1371 l 1,74,-1
 116 1480 l 2,75,76
 133 1530 133 1530 199 1530 c 2,46,-1
EndSplineSet
Validated: 1
EndChar

StartChar: uni2126
Encoding: 8486 8486 129
Width: 1926
GlyphClass: 2
Flags: W
HStem: 0 152<195.868 470 1373 1730.13> 0 124<646.05 711> 1398 132<832.642 1229.49>
VStem: 200 207<487.102 927.893> 1519 207<578.528 1032.78>
LayerCount: 2
Fore
SplineSet
711 0 m 1,0,-1
 229 0 l 2,1,2
 126 0 126 0 100 74 c 1,3,-1
 170 284 l 1,4,-1
 204 274 l 1,5,6
 195 239 195 239 195 201 c 0,7,8
 195 152 195 152 245 152 c 2,9,-1
 470 152 l 1,10,11
 200 403 200 403 200 756 c 0,12,13
 200 1111 200 1111 435 1327 c 0,14,15
 656 1530 656 1530 962 1530 c 128,-1,16
 1268 1530 1268 1530 1489 1327 c 0,17,18
 1726 1109 1726 1109 1726 759 c 0,19,20
 1726 356 1726 356 1373 152 c 1,21,-1
 1697 152 l 2,22,23
 1800 152 1800 152 1826 78 c 1,24,-1
 1756 -132 l 1,25,-1
 1722 -122 l 1,26,27
 1731 -87 1731 -87 1731 -49 c 0,28,29
 1731 0 1731 0 1681 0 c 2,30,-1
 1165 0 l 1,31,-1
 1215 152 l 1,32,33
 1403 335 1403 335 1474 576 c 0,34,35
 1519 728 1519 728 1519 872 c 0,36,37
 1519 1042 1519 1042 1433 1183 c 0,38,39
 1302 1398 1302 1398 1051 1398 c 0,40,41
 853 1398 853 1398 688 1268 c 0,42,43
 520 1135 520 1135 452 931 c 0,44,45
 407 796 407 796 407 636 c 0,46,47
 407 467 407 467 493 324 c 0,48,49
 585 170 585 170 752 124 c 1,50,-1
 711 0 l 1,0,-1
EndSplineSet
Validated: 1
EndChar

StartChar: estimated
Encoding: 8494 8494 130
Width: 1330
GlyphClass: 2
Flags: W
HStem: -20 92<451.758 852.453> 525 80<348 983> 1036 84<468.183 852.399>
VStem: 100 248<309.991 525 605 788.181> 983 247<605 774.087>
LayerCount: 2
Fore
SplineSet
1104 204 m 1,0,1
 1032 113 1032 113 948 61 c 0,2,3
 817 -20 817 -20 665 -20 c 0,4,5
 409 -20 409 -20 256 139 c 0,6,7
 100 301 100 301 100 550 c 0,8,9
 100 788 100 788 249 952 c 24,10,11
 402 1120 402 1120 666 1120 c 0,12,13
 915 1120 915 1120 1064 964 c 280,14,15
 1230 790 1230 790 1230 525 c 1,16,-1
 348 525 l 1,17,-1
 348 192 l 1,18,19
 459 72 459 72 666 72 c 256,20,21
 789 72 789 72 880 132 c 0,22,23
 962 186 962 186 1011 266 c 1,24,25
 1104 204 l 1,0,1
348 605 m 1,26,-1
 983 605 l 1,27,-1
 983 903 l 1,28,29
 852 1036 852 1036 666 1036 c 0,30,31
 475 1036 475 1036 348 914 c 1,32,-1
 348 605 l 1,26,-1
EndSplineSet
Validated: 1
EndChar

StartChar: partialdiff
Encoding: 8706 8706 131
Width: 1285
GlyphClass: 2
Flags: W
HStem: -20 153<399.379 663.581> 870 170<546.66 823.335> 1378 152<492 830.299>
VStem: 150 188<198.966 600.959> 952 183<930 1235.35>
LayerCount: 2
Fore
SplineSet
512 -20 m 0,0,1
 150 -20 150 -20 150 375 c 0,2,3
 150 631 150 631 286 815 c 0,4,5
 454 1040 454 1040 672 1040 c 0,6,7
 859 1040 859 1040 952 930 c 1,8,9
 952 1136 952 1136 907 1239 c 0,10,11
 846 1378 846 1378 678 1378 c 0,12,13
 547 1378 547 1378 420 1294 c 1,14,-1
 420 1468 l 1,15,16
 554 1530 554 1530 703 1530 c 0,17,18
 1135 1530 1135 1530 1135 934 c 0,19,20
 1135 545 1135 545 966.5 262.5 c 128,-1,21
 798 -20 798 -20 512 -20 c 0,0,1
525 133 m 0,22,23
 663 133 663 133 772.5 286 c 128,-1,24
 882 439 882 439 920 680 c 1,25,26
 898 765 898 765 834.5 817.5 c 128,-1,27
 771 870 771 870 695 870 c 0,28,29
 535 870 535 870 436.5 710 c 128,-1,30
 338 550 338 550 338 369 c 0,31,32
 338 133 338 133 525 133 c 0,22,23
EndSplineSet
Validated: 1
EndChar

StartChar: uni2206
Encoding: 8710 8710 132
Width: 1498
GlyphClass: 2
Flags: W
HStem: 0 122<174 1228> 1510 20G<718.571 993.5>
LayerCount: 2
Fore
SplineSet
665 1336 m 1,0,1
 361 783 361 783 174 122 c 1,2,-1
 1228 124 l 1,3,4
 1014 783 1014 783 665 1336 c 1,0,1
10 0 m 1,5,6
 231 818 231 818 585 1460 c 1,7,-1
 772 1530 l 1,8,9
 1215 846 1215 846 1488 0 c 1,10,-1
 10 0 l 1,5,6
EndSplineSet
Validated: 1
EndChar

StartChar: product
Encoding: 8719 8719 133
Width: 1549
GlyphClass: 2
Flags: W
HStem: -430 21G<261.5 382.231 1210.5 1331.23> 1386 123<400 1149>
VStem: 200 200<-377.797 1386> 1149 200<-377.797 1386>
LayerCount: 2
Fore
SplineSet
323 -430 m 1,0,1
 200 -395 200 -395 200 -216 c 2,2,-1
 200 1509 l 1,3,-1
 1349 1509 l 9,4,-1
 1349 -404 l 1,5,-1
 1272 -430 l 1,6,7
 1149 -395 1149 -395 1149 -216 c 2,8,-1
 1149 1386 l 17,9,-1
 400 1386 l 1,10,-1
 400 -404 l 1,11,-1
 323 -430 l 1,0,1
EndSplineSet
Validated: 1
EndChar

StartChar: summation
Encoding: 8721 8721 134
Width: 1280
GlyphClass: 2
Flags: W
HStem: -410 128<401 1156.59> 1382 128<356 1036.59>
LayerCount: 2
Fore
SplineSet
185 -410 m 1,0,-1
 150 -309 l 1,1,2
 489 95 489 95 559 513 c 1,3,4
 256 880 256 880 150 1409 c 1,5,-1
 185 1510 l 1,6,-1
 926 1510 l 2,7,8
 1030 1510 1030 1510 1055 1436 c 2,9,-1
 1110 1271 l 1,10,-1
 1089 1271 l 1,11,12
 1024 1382 1024 1382 933 1382 c 2,13,-1
 356 1382 l 1,14,15
 421 959 421 959 756 556 c 1,16,17
 701 90 701 90 401 -282 c 1,18,-1
 1053 -282 l 2,19,20
 1144 -282 1144 -282 1209 -171 c 1,21,-1
 1230 -171 l 1,22,-1
 1175 -336 l 2,23,24
 1150 -410 1150 -410 1046 -410 c 2,25,-1
 185 -410 l 1,0,-1
EndSplineSet
Validated: 1
EndChar

StartChar: uni2215
Encoding: 8725 8725 135
Width: 800
GlyphClass: 2
Flags: W
HStem: 0 21G<125 217.296>
VStem: 100 600
DStem2: 590 1510 210 0 0.342692 0.939448<-1478.74 -70.0529>
LayerCount: 2
Fore
SplineSet
150 0 m 1,0,1
 100 39 100 39 100 113 c 0,2,3
 100 167 100 167 126 238 c 2,4,-1
 590 1510 l 1,5,-1
 650 1510 l 1,6,7
 700 1471 700 1471 700 1397 c 0,8,9
 700 1343 700 1343 674 1272 c 2,10,-1
 210 0 l 1,11,-1
 150 0 l 1,0,1
EndSplineSet
Validated: 1
EndChar

StartChar: uni2219
Encoding: 8729 8729 136
Width: 360
GlyphClass: 2
Flags: W
HStem: 624 264<89.1914 270.809>
VStem: 50 260<663.707 848.293>
LayerCount: 2
Fore
SplineSet
50 756 m 128,-1,1
 50 811 50 811 88 849.5 c 128,-1,2
 126 888 126 888 180 888 c 128,-1,3
 234 888 234 888 272 849.5 c 128,-1,4
 310 811 310 811 310 756 c 128,-1,5
 310 701 310 701 272 662.5 c 128,-1,6
 234 624 234 624 180 624 c 128,-1,7
 126 624 126 624 88 662.5 c 128,-1,0
 50 701 50 701 50 756 c 128,-1,1
EndSplineSet
Validated: 19457
EndChar

StartChar: radical
Encoding: 8730 8730 137
Width: 1396
GlyphClass: 2
Flags: W
HStem: -20 21G<531.5 624> 1434 34<1337.3 1375.22> 1510 20G<1158 1252.97>
LayerCount: 2
Fore
SplineSet
564 -20 m 1,0,1
 499 4 499 4 478 67 c 0,2,3
 371 379 371 379 192 638 c 0,4,5
 160 684 160 684 98 684 c 0,6,7
 60 684 60 684 25 675 c 1,8,-1
 15 709 l 1,9,-1
 267 792 l 1,10,11
 334 768 334 768 375 707 c 0,12,13
 498 523 498 523 608 251 c 1,14,15
 773 968 773 968 1084 1445 c 0,16,17
 1124 1505 1124 1505 1192 1530 c 1,18,-1
 1381 1468 l 1,19,-1
 1371 1434 l 1,20,21
 1336 1443 1336 1443 1298 1443 c 0,22,23
 1235 1443 1235 1443 1204 1397 c 0,24,25
 876 892 876 892 693 23 c 1,26,-1
 564 -20 l 1,0,1
EndSplineSet
Validated: 1
EndChar

StartChar: infinity
Encoding: 8734 8734 138
Width: 1476
GlyphClass: 2
Flags: W
HStem: 430 88<343.279 564.256 857.279 1078.26> 989 91<396.561 617.286 910.561 1131.29>
VStem: 150 142<584.429 876.29> 668 138<628.32 876.089> 1182 144<629.569 926.071>
LayerCount: 2
Fore
SplineSet
962 518 m 0,0,1
 1028 518 1028 518 1085 567 c 0,2,3
 1141 615 1141 615 1166 691 c 0,4,5
 1182 741 1182 741 1182 799 c 0,6,7
 1182 862 1182 862 1155 912 c 0,8,9
 1112 989 1112 989 1027 989 c 0,10,11
 961 989 961 989 904 940 c 0,12,13
 848 892 848 892 823 816 c 0,14,15
 806 766 806 766 806 708 c 0,16,17
 806 644 806 644 834 594 c 0,18,19
 876 518 876 518 962 518 c 0,0,1
448 518 m 0,20,21
 514 518 514 518 571 567 c 0,22,23
 627 615 627 615 652 691 c 0,24,25
 668 741 668 741 668 799 c 0,26,27
 668 862 668 862 641 912 c 0,28,29
 598 989 598 989 513 989 c 0,30,31
 447 989 447 989 390 940 c 0,32,33
 334 892 334 892 309 816 c 0,34,35
 292 766 292 766 292 708 c 0,36,37
 292 644 292 644 320 594 c 0,38,39
 362 518 362 518 448 518 c 0,20,21
481 1080 m 0,40,41
 624 1080 624 1080 713 994 c 0,42,43
 726 981 726 981 738 967 c 1,44,45
 750 981 750 981 763 994 c 0,46,47
 854 1080 854 1080 995 1080 c 0,48,49
 1138 1080 1138 1080 1227 994 c 0,50,51
 1326 899 1326 899 1326 755 c 0,52,53
 1326 612 1326 612 1227 516 c 0,54,55
 1137 430 1137 430 995 430 c 0,56,57
 849 430 849 430 763 516 c 0,58,59
 750 529 750 529 738 543 c 1,60,61
 726 529 726 529 713 516 c 0,62,63
 623 430 623 430 481 430 c 0,64,65
 335 430 335 430 249 516 c 0,66,67
 150 612 150 612 150 755 c 0,68,69
 150 899 150 899 249 994 c 0,70,71
 340 1080 340 1080 481 1080 c 0,40,41
EndSplineSet
Validated: 1
EndChar

StartChar: approxequal
Encoding: 8776 8776 139
Width: 1230
GlyphClass: 2
Flags: W
HStem: 339 166<672.035 903.571> 565 166<326.429 554.799> 747 166<672.035 903.571> 973 166<326.429 554.799>
DStem2: 638 1006 586 888 0.490261 -0.871576<-36.9356 121.968> 638 598 586 480 0.490261 -0.871576<-36.9356 121.968>
LayerCount: 2
Fore
SplineSet
1080 723 m 1,0,-1
 966 381 l 1,1,2
 901 339 901 339 817 339 c 0,3,4
 665 339 665 339 595 464 c 2,5,-1
 586 480 l 2,6,7
 538 565 538 565 439 565 c 256,8,9
 301 565 301 565 222 347 c 1,10,-1
 150 347 l 1,11,-1
 264 689 l 1,12,13
 329 731 329 731 413 731 c 0,14,15
 563 731 563 731 638 598 c 2,16,-1
 647 582 l 2,17,18
 690 505 690 505 791 505 c 256,19,20
 929 505 929 505 1008 723 c 1,21,-1
 1080 723 l 1,0,-1
1080 1131 m 1,22,-1
 966 789 l 1,23,24
 901 747 901 747 817 747 c 0,25,26
 665 747 665 747 595 872 c 2,27,-1
 586 888 l 2,28,29
 538 973 538 973 439 973 c 256,30,31
 301 973 301 973 222 755 c 1,32,-1
 150 755 l 1,33,-1
 264 1097 l 1,34,35
 329 1139 329 1139 413 1139 c 0,36,37
 563 1139 563 1139 638 1006 c 2,38,-1
 647 990 l 2,39,40
 690 913 690 913 791 913 c 256,41,42
 929 913 929 913 1008 1131 c 1,43,-1
 1080 1131 l 1,22,-1
EndSplineSet
Validated: 1
EndChar

StartChar: notequal
Encoding: 8800 8800 140
Width: 1158
GlyphClass: 2
Flags: W
HStem: 484 160<190.627 431 595 967.373> 846 160<190.627 563 727 967.373>
DStem2: 431 484 443 225 0.341828 0.939763<-180.381 0 206.422 385.315 591.737 771.208>
LayerCount: 2
Fore
SplineSet
715 1265 m 1,0,-1
 744 1264 l 1,1,2
 779 1229 779 1229 779 1179 c 0,3,4
 779 1149 779 1149 766 1113 c 2,5,-1
 727 1006 l 1,6,-1
 989 1006 l 1,7,-1
 1008 949 l 1,8,9
 974 846 974 846 794 846 c 2,10,-1
 669 846 l 1,11,-1
 595 644 l 1,12,-1
 989 644 l 1,13,-1
 1008 587 l 1,14,15
 974 484 974 484 794 484 c 2,16,-1
 537 484 l 1,17,-1
 443 225 l 1,18,-1
 414 226 l 1,19,20
 379 260 379 260 379 310 c 0,21,22
 379 341 379 341 392 377 c 2,23,-1
 431 484 l 1,24,-1
 169 484 l 1,25,-1
 150 541 l 1,26,27
 184 644 184 644 364 644 c 2,28,-1
 489 644 l 1,29,-1
 563 846 l 1,30,-1
 169 846 l 1,31,-1
 150 903 l 1,32,33
 184 1006 184 1006 364 1006 c 2,34,-1
 621 1006 l 1,35,-1
 715 1265 l 1,0,-1
EndSplineSet
Validated: 1
EndChar

StartChar: lessequal
Encoding: 8804 8804 141
Width: 1250
GlyphClass: 2
Flags: W
HStem: 144 160<190.627 967.373>
DStem2: 406 889 150 832 0.906254 -0.422734<0 648.303> 300 1016 406 889 0.906118 0.423025<42.3243 754.222>
LayerCount: 2
Fore
SplineSet
1009 1347 m 1,0,-1
 1050 1303 l 1,1,2
 1050 1190 1050 1190 900 1120 c 2,3,-1
 406 889 l 1,4,-1
 1050 589 l 1,5,-1
 1043 529 l 1,6,7
 999 492 999 492 938 492 c 0,8,9
 880 492 880 492 806 526 c 2,10,-1
 150 832 l 1,11,12
 150 945 150 945 300 1016 c 2,13,-1
 1009 1347 l 1,0,-1
150 201 m 1,14,15
 184 304 184 304 364 304 c 2,16,-1
 989 304 l 1,17,-1
 1008 247 l 1,18,19
 974 144 974 144 794 144 c 2,20,-1
 169 144 l 1,21,-1
 150 201 l 1,14,15
EndSplineSet
Validated: 1
EndChar

StartChar: greaterequal
Encoding: 8805 8805 142
Width: 1250
GlyphClass: 2
Flags: W
HStem: 144 160<240.627 1017.37>
DStem2: 1100 1007 200 1250 0.906254 -0.422734<-856.208 -207.905> 350 719 241 492 0.906118 0.423025<-166.556 545.341>
LayerCount: 2
Fore
SplineSet
241 492 m 1,0,-1
 200 536 l 1,1,2
 200 649 200 649 350 719 c 2,3,-1
 844 950 l 1,4,-1
 200 1250 l 1,5,-1
 207 1310 l 1,6,7
 251 1347 251 1347 312 1347 c 0,8,9
 370 1347 370 1347 444 1313 c 2,10,-1
 1100 1007 l 1,11,12
 1100 894 1100 894 950 823 c 2,13,-1
 241 492 l 1,0,-1
200 201 m 1,14,15
 234 304 234 304 414 304 c 2,16,-1
 1039 304 l 1,17,-1
 1058 247 l 1,18,19
 1024 144 1024 144 844 144 c 2,20,-1
 219 144 l 1,21,-1
 200 201 l 1,14,15
EndSplineSet
Validated: 1
EndChar

StartChar: lozenge
Encoding: 9674 9674 143
Width: 1134
GlyphClass: 2
Flags: W
HStem: -20 21G<554.678 579.273> 1510 20G<555.207 578.838>
DStem2: 100 738 288 775 0.507923 0.861403<127.361 627.638> 288 775 100 738 0.524536 -0.851388<0 582.074> 567 1530 542 1206 0.509354 -0.860557<266.087 853.984> 591 278 567 -20 0.523035 0.852311<0 492.332>
LayerCount: 2
Fore
SplineSet
591 278 m 5,0,-1
 843 701 l 1,1,-1
 542 1206 l 1,2,-1
 288 775 l 1,3,-1
 591 278 l 5,0,-1
567 -20 m 1,4,-1
 100 738 l 1,5,-1
 567 1530 l 1,6,-1
 1034 741 l 1,7,-1
 567 -20 l 1,4,-1
EndSplineSet
Validated: 1
EndChar

StartChar: four
Encoding: 52 52 144
Width: 1185
Flags: W
HStem: -20 21G<851.5 967.231> 360 124<266 795 985 1085> 1100 20G<812.769 928.5>
VStem: 533 202<1384.81 1483> 795 190<26.5 360 484 1073.5>
LayerCount: 2
Fore
SplineSet
908 -20 m 1,0,1
 795 15 795 15 795 194 c 2,2,-1
 795 360 l 1,3,-1
 55 360 l 1,4,-1
 20 461 l 1,5,6
 404 885 404 885 533 1483 c 1,7,-1
 735 1550 l 1,8,9
 586 871 586 871 266 484 c 1,10,-1
 795 484 l 1,11,-1
 795 1094 l 1,12,-1
 872 1120 l 1,13,14
 985 1085 985 1085 985 906 c 2,15,-1
 985 484 l 1,16,-1
 1126 484 l 1,17,-1
 1085 360 l 1,18,-1
 985 360 l 1,19,-1
 985 6 l 1,20,-1
 908 -20 l 1,0,1
EndSplineSet
Validated: 1
EndChar

StartChar: ampersand
Encoding: 38 38 145
Width: 1779
Flags: W
HStem: -20 130<595.509 1029.58> 634 128<304 874.209> 1398 132<724.052 1129.49>
VStem: 100 197<474.656 634 762 924.25> 1439 187<564.142 881>
LayerCount: 2
Fore
SplineSet
862 -20 m 0,0,1
 556 -20 556 -20 335 183 c 0,2,3
 100 399 100 399 100 755 c 128,-1,4
 100 1111 100 1111 335 1327 c 0,5,6
 556 1530 556 1530 862 1530 c 128,-1,7
 1168 1530 1168 1530 1389 1327 c 1,8,-1
 1333 1183 l 1,9,10
 1202 1398 1202 1398 951 1398 c 0,11,12
 743 1398 743 1398 578 1268 c 0,13,14
 410 1135 410 1135 342 931 c 0,15,16
 315 851 315 851 304 762 c 1,17,-1
 928 762 l 1,18,19
 1073 496 1073 496 1258 321 c 1,20,21
 1355 432 1355 432 1402 579 c 0,22,23
 1439 695 1439 695 1439 881 c 1,24,-1
 1609 936 l 1,25,26
 1626 850 1626 850 1626 755 c 0,27,28
 1626 415 1626 415 1407 200 c 1,29,30
 1486 145 1486 145 1571 105 c 0,31,32
 1648 69 1648 69 1680 69 c 0,33,34
 1710 69 1710 69 1754 78 c 1,35,-1
 1764 44 l 1,36,-1
 1570 -20 l 1,37,38
 1429 30 1429 30 1305 115 c 1,39,40
 1112 -20 1112 -20 862 -20 c 0,0,1
297 634 m 1,41,42
 298 480 298 480 393 324 c 0,43,44
 524 110 524 110 775 110 c 0,45,46
 1013 110 1013 110 1162 229 c 1,47,48
 986 391 986 391 848 634 c 1,49,-1
 297 634 l 1,41,42
EndSplineSet
Validated: 19457
EndChar

StartChar: afii61352
Encoding: 8470 8470 146
Width: 2348
Flags: W
HStem: -20 21G<237 338.348 999.5 1349.19> 0 124<1618.94 2173.06> 204 90<1768.74 1973.03> 724 91<1819.7 2024.45> 1410 34<20.7835 59.0082> 1427 34<1214.78 1252.63> 1510 20G<217.605 308 1358.13 1456>
VStem: 200 148<3 1067> 1345 148<183 1434.13> 1594 134<344.747 626.629> 2064 134<390.658 674.526>
LayerCount: 2
Fore
SplineSet
274 -20 m 1,0,1
 200 6 200 6 200 109 c 2,2,-1
 200 1354 l 1,3,4
 162 1419 162 1419 98 1419 c 0,5,6
 60 1419 60 1419 25 1410 c 1,7,-1
 15 1444 l 1,8,-1
 279 1530 l 1,9,10
 337 1519 337 1519 383 1419 c 0,11,12
 754 631 754 631 1345 183 c 1,13,-1
 1345 1386 l 2,14,15
 1345 1436 1345 1436 1292 1436 c 0,16,17
 1254 1436 1254 1436 1219 1427 c 1,18,-1
 1209 1461 l 1,19,-1
 1419 1530 l 1,20,21
 1493 1504 1493 1504 1493 1401 c 2,22,-1
 1493 47 l 1,23,-1
 1288 -20 l 1,24,25
 711 400 711 400 348 1067 c 1,26,-1
 348 3 l 1,27,-1
 274 -20 l 1,0,1
2184 124 m 1,28,-1
 2198 81 l 1,29,30
 2165 0 2165 0 2027 0 c 2,31,-1
 1608 0 l 1,32,-1
 1594 43 l 1,33,34
 1627 124 1627 124 1765 124 c 2,35,-1
 2184 124 l 1,28,-1
1935.5 724 m 128,-1,37
 1869 724 1869 724 1818 679 c 0,38,39
 1728 601 1728 601 1728 463 c 0,40,41
 1728 405 1728 405 1753 360 c 0,42,43
 1790 294 1790 294 1856.5 294 c 128,-1,44
 1923 294 1923 294 1974 339 c 0,45,46
 2064 417 2064 417 2064 555 c 0,47,48
 2064 614 2064 614 2039 658 c 0,49,36
 2002 724 2002 724 1935.5 724 c 128,-1,37
1898 815 m 128,-1,51
 2020 815 2020 815 2109 729 c 128,-1,52
 2198 643 2198 643 2198 510 c 0,53,54
 2198 375 2198 375 2107 289 c 0,55,56
 2016 204 2016 204 1897 204 c 0,57,58
 1775 204 1775 204 1684 290 c 0,59,60
 1594 375 1594 375 1594 511 c 0,61,62
 1594 645 1594 645 1686 730 c 0,63,50
 1776 815 1776 815 1898 815 c 128,-1,51
EndSplineSet
Validated: 1
EndChar

StartChar: uni2117
Encoding: 8471 8471 147
Width: 1401
Flags: W
HStem: 386 73<514.363 877.958> 832 88<714 781.793> 1249 100<662.062 834.163> 1453 77<516.855 884.866>
VStem: 150 74<769.065 1151.31> 488 140<553 1218.92> 859 136<992.141 1213.75> 1176 75<757.62 1158.43>
LayerCount: 2
Fore
SplineSet
570 534 m 1,0,1
 488 557 488 557 488 661 c 2,2,-1
 488 1219 l 2,3,4
 488 1249 488 1249 468 1263 c 0,5,6
 452 1275 452 1275 431 1275 c 0,7,8
 417 1275 417 1275 400 1269 c 1,9,-1
 391 1299 l 1,10,-1
 546 1350 l 1,11,12
 582 1339 582 1339 603 1308 c 1,13,14
 655 1349 655 1349 726 1349 c 0,15,16
 839 1349 839 1349 917 1277 c 128,-1,17
 995 1205 995 1205 995 1088.5 c 128,-1,18
 995 972 995 972 911 902 c 128,-1,19
 827 832 827 832 714 832 c 1,20,-1
 654 920 l 1,21,22
 804 939 804 939 841 1035 c 0,23,24
 859 1081 859 1081 859 1120 c 0,25,26
 859 1164 859 1164 837 1201 c 0,27,28
 807 1249 807 1249 752 1249 c 0,29,30
 704 1249 704 1249 669 1220 c 0,31,32
 628 1186 628 1186 628 1100 c 2,33,-1
 628 553 l 1,34,-1
 570 534 l 1,0,1
1176 953 m 0,35,36
 1176 1174 1176 1174 1039 1309 c 0,37,38
 893 1453 893 1453 699 1453 c 0,39,40
 509 1453 509 1453 367 1312 c 0,41,42
 224 1170 224 1170 224 953 c 0,43,44
 224 761 224 761 364 605 c 0,45,46
 495 459 495 459 701 459 c 0,47,48
 892 459 892 459 1037 605 c 0,49,50
 1176 745 1176 745 1176 953 c 0,35,36
701 1530 m 0,51,52
 943 1530 943 1530 1099 1357 c 0,53,54
 1251 1188 1251 1188 1251 953 c 0,55,56
 1251 702 1251 702 1090 549 c 0,57,58
 918 386 918 386 699 386 c 0,59,60
 476 386 476 386 311 549 c 0,61,62
 150 708 150 708 150 953 c 0,63,64
 150 1197 150 1197 308 1362 c 0,65,66
 469 1530 469 1530 701 1530 c 0,51,52
EndSplineSet
Validated: 1
EndChar

StartChar: integral
Encoding: 8747 8747 148
Width: 1532
Flags: W
HStem: -430 99<178.145 495.108> 1431 99<1036.89 1353.86>
VStem: 676 180<-135.766 1235.77>
LayerCount: 2
Fore
SplineSet
396 -430 m 0,0,1
 168 -430 168 -430 10 -282 c 1,2,-1
 58 -140 l 1,3,4
 150 -331 150 -331 332 -331 c 0,5,6
 468 -331 468 -331 566 -232 c 0,7,8
 676 -120 676 -120 676 79 c 2,9,-1
 676 1021 l 2,10,11
 676 1245 676 1245 774 1368 c 0,12,13
 904 1530 904 1530 1136 1530 c 0,14,15
 1364 1530 1364 1530 1522 1382 c 1,16,-1
 1474 1240 l 1,17,18
 1382 1431 1382 1431 1200 1431 c 0,19,20
 1064 1431 1064 1431 966 1332 c 0,21,22
 856 1220 856 1220 856 1021 c 2,23,-1
 856 79 l 2,24,25
 856 -145 856 -145 758 -268 c 0,26,27
 628 -430 628 -430 396 -430 c 0,0,1
EndSplineSet
Validated: 1
EndChar

StartChar: caron
Encoding: 711 711 149
Width: 640
Flags: W
HStem: 1190 370
VStem: 50 540
LayerCount: 2
Fore
SplineSet
221 1560 m 1,0,1
 311 1446 311 1446 332 1318 c 1,2,3
 348 1445 348 1445 420 1560 c 1,4,-1
 590 1502 l 1,5,6
 464 1446 464 1446 402 1233 c 1,7,-1
 273 1190 l 1,8,9
 185 1449 185 1449 50 1502 c 1,10,-1
 221 1560 l 1,0,1
EndSplineSet
Validated: 1
EndChar

StartChar: circumflex
Encoding: 710 710 150
Width: 640
Flags: W
HStem: 1190 370
VStem: 50 540
LayerCount: 2
Fore
SplineSet
367 1560 m 1,0,1
 455 1301 455 1301 590 1248 c 1,2,-1
 419 1190 l 1,3,4
 329 1304 329 1304 308 1432 c 1,5,6
 292 1305 292 1305 220 1190 c 1,7,-1
 50 1248 l 1,8,9
 176 1304 176 1304 238 1517 c 1,10,-1
 367 1560 l 1,0,1
EndSplineSet
Validated: 1
EndChar

StartChar: uni02C9
Encoding: 713 713 151
Width: 640
Flags: W
HStem: 1307 124<74.9397 565.06>
VStem: 50 540
LayerCount: 2
Fore
SplineSet
576 1431 m 5,0,-1
 590 1388 l 5,1,2
 557 1307 557 1307 419 1307 c 6,3,-1
 64 1307 l 5,4,-1
 50 1350 l 5,5,6
 83 1431 83 1431 221 1431 c 6,7,-1
 576 1431 l 5,0,-1
EndSplineSet
Validated: 1
EndChar

StartChar: dotaccent
Encoding: 729 729 152
Width: 360
Flags: W
HStem: 1260 264<89.1914 270.809>
VStem: 50 260<1299.71 1484.29>
LayerCount: 2
Fore
SplineSet
180 1524 m 128,-1,1
 234 1524 234 1524 272 1485.5 c 128,-1,2
 310 1447 310 1447 310 1392 c 128,-1,3
 310 1337 310 1337 272 1298.5 c 128,-1,4
 234 1260 234 1260 180 1260 c 128,-1,5
 126 1260 126 1260 88 1298.5 c 128,-1,6
 50 1337 50 1337 50 1392 c 128,-1,7
 50 1447 50 1447 88 1485.5 c 128,-1,0
 126 1524 126 1524 180 1524 c 128,-1,1
EndSplineSet
Validated: 1
EndChar

StartChar: ring
Encoding: 730 730 153
Width: 500
Flags: W
HStem: 1180 82<168.674 310.841> 1500 84<189.197 332.527>
VStem: 50 105<1285.94 1470.5> 346 104<1291.76 1476.18>
LayerCount: 2
Fore
SplineSet
234 1262 m 0,0,1
 268 1262 268 1262 296 1287 c 0,2,3
 323 1310 323 1310 337 1349 c 0,4,5
 346 1374 346 1374 346 1404 c 0,6,7
 346 1436 346 1436 332 1462 c 0,8,9
 311 1500 311 1500 267 1500 c 0,10,11
 233 1500 233 1500 205 1475 c 0,12,13
 178 1452 178 1452 164 1413 c 0,14,15
 155 1388 155 1388 155 1358 c 0,16,17
 155 1326 155 1326 169 1300 c 0,18,19
 190 1262 190 1262 234 1262 c 0,0,1
252 1584 m 0,20,21
 333 1584 333 1584 391 1525 c 0,22,23
 450 1464 450 1464 450 1383 c 0,24,25
 450 1299 450 1299 391 1240 c 0,26,27
 331 1180 331 1180 250 1180 c 256,28,29
 169 1180 169 1180 109 1240 c 0,30,31
 50 1299 50 1299 50 1383 c 0,32,33
 50 1465 50 1465 109 1525 c 0,34,35
 167 1584 167 1584 252 1584 c 0,20,21
EndSplineSet
Validated: 1
EndChar

StartChar: breve
Encoding: 728 728 154
Width: 670
Flags: W
HStem: 1220 109<189.013 463.076>
VStem: 50 570
LayerCount: 2
Fore
SplineSet
114 1501 m 1,0,-1
 144 1501 l 1,1,2
 144 1329 144 1329 324 1329 c 0,3,4
 469 1329 469 1329 590 1501 c 1,5,-1
 620 1501 l 9,6,-1
 555 1308 l 1,7,8
 443 1220 443 1220 302.5 1220 c 128,-1,9
 162 1220 162 1220 50 1308 c 1,10,-1
 114 1501 l 1,0,-1
EndSplineSet
Validated: 1
EndChar

StartChar: hungarumlaut
Encoding: 733 733 155
Width: 754
Flags: W
HStem: 1190 370
VStem: 50 654
LayerCount: 2
Fore
SplineSet
500 1560 m 1,0,1
 704 1491 l 1,2,3
 535 1377 535 1377 448 1190 c 1,4,-1
 325 1231 l 1,5,6
 395 1434 395 1434 500 1560 c 1,0,1
225 1560 m 1,7,-1
 429 1491 l 1,8,9
 260 1377 260 1377 173 1190 c 1,10,-1
 50 1231 l 1,11,12
 120 1434 120 1434 225 1560 c 1,7,-1
EndSplineSet
Validated: 1
EndChar

StartChar: tilde
Encoding: 732 732 156
Width: 670
Flags: W
HStem: 1230 133<355.697 525.295> 1372 133<144.55 314.303>
VStem: 50 570
LayerCount: 2
Fore
SplineSet
620 1490 m 1,0,-1
 546 1267 l 1,1,2
 511 1230 511 1230 459 1230 c 0,3,4
 366 1230 366 1230 317 1333 c 0,5,6
 298 1372 298 1372 245 1372 c 256,7,8
 157 1372 157 1372 80 1245 c 1,9,-1
 50 1245 l 1,10,-1
 125 1468 l 1,11,12
 160 1505 160 1505 211 1505 c 0,13,14
 304 1505 304 1505 353 1402 c 0,15,16
 372 1363 372 1363 425 1363 c 256,17,18
 513 1363 513 1363 590 1490 c 1,19,-1
 620 1490 l 1,0,-1
EndSplineSet
Validated: 1
EndChar

StartChar: ogonek
Encoding: 731 731 157
Width: 376
Flags: W
HStem: -460 138<218.457 326>
VStem: 50 141<-291.241 -82.3386>
LayerCount: 2
Fore
SplineSet
238 63 m 1,0,-1
 287 0 l 1,1,2
 191 -85 191 -85 191 -211 c 0,3,4
 191 -322 191 -322 372 -322 c 1,5,-1
 326 -460 l 1,6,7
 50 -460 50 -460 50 -253 c 0,8,9
 50 -60 50 -60 238 63 c 1,0,-1
EndSplineSet
Validated: 1
EndChar

StartChar: uni1E9E
Encoding: 7838 7838 158
Width: 1285
Flags: W
HStem: -20 119<619 777.652> 1410 120<534.728 818.6>
VStem: 200 180<32.2031 1248.63> 981 204<317.231 679.23>
LayerCount: 2
Fore
SplineSet
323 -20 m 1,0,1
 200 15 200 15 200 194 c 2,2,-1
 200 1315 l 2,3,4
 200 1424 200 1424 98 1424 c 0,5,6
 60 1424 60 1424 25 1415 c 1,7,-1
 15 1449 l 1,8,-1
 257 1530 l 1,9,10
 328 1510 328 1510 358 1438 c 1,11,12
 475 1530 475 1530 637 1530 c 0,13,14
 846 1530 846 1530 988 1398 c 0,15,16
 1048 1342 1048 1342 1084 1272 c 1,17,18
 848 1160 848 1160 828 934 c 1,19,20
 947 904 947 904 1038 819 c 0,21,22
 1185 682 1185 682 1185 465 c 0,23,24
 1185 247 1185 247 1038 112 c 0,25,26
 893 -20 893 -20 619 -20 c 1,27,-1
 579 99 l 1,28,29
 732 99 732 99 819 167 c 24,30,31
 916 243 916 243 955 362 c 0,32,33
 981 443 981 443 981 536 c 0,34,35
 981 636 981 636 931 716 c 0,36,37
 859 831 859 831 740 831 c 1,38,-1
 687 951 l 1,39,40
 687 1176 687 1176 881 1295 c 1,41,42
 806 1410 806 1410 690 1410 c 0,43,44
 585 1410 585 1410 506 1345 c 0,45,46
 380 1240 380 1240 380 1068 c 2,47,-1
 380 0 l 1,48,-1
 323 -20 l 1,0,1
EndSplineSet
Validated: 1
EndChar

StartChar: uni203D
Encoding: 8253 8253 159
Width: 1314
Flags: W
HStem: -20 264<542.191 723.809> 1100 20G<642.061 736> 1410 120<550.805 853.205>
VStem: 150 204<974 1190.97> 503 260<19.7072 204.293> 586 150<629.968 1087> 960 204<885.469 1258.12>
LayerCount: 2
Fore
SplineSet
666 1530 m 0,0,1
 875 1530 875 1530 1017 1398 c 0,2,3
 1164 1261 1164 1261 1164 1044 c 0,4,5
 1164 678 1164 678 753 360 c 1,6,-1
 512 360 l 1,7,8
 541 384 541 384 568 408 c 1,9,10
 586 622 586 622 586 826 c 0,11,12
 586 978 586 978 581 1087 c 1,13,-1
 736 1120 l 1,14,15
 736 822 736 822 715 554 c 1,16,17
 877 740 877 740 934 941 c 0,18,19
 960 1032 960 1032 960 1115 c 0,20,21
 960 1221 960 1221 908 1305 c 0,22,23
 843 1410 843 1410 719 1410 c 0,24,25
 601 1410 601 1410 516 1343 c 0,26,27
 419 1267 419 1267 380 1148 c 0,28,29
 354 1067 354 1067 354 974 c 1,30,-1
 166 911 l 1,31,32
 150 976 150 976 150 1045 c 0,33,34
 150 1263 150 1263 297 1398 c 0,35,36
 442 1530 442 1530 666 1530 c 0,0,1
633 -20 m 128,-1,38
 579 -20 579 -20 541 18.5 c 128,-1,39
 503 57 503 57 503 112 c 128,-1,40
 503 167 503 167 541 205.5 c 128,-1,41
 579 244 579 244 633 244 c 128,-1,42
 687 244 687 244 725 205.5 c 128,-1,43
 763 167 763 167 763 112 c 128,-1,44
 763 57 763 57 725 18.5 c 128,-1,37
 687 -20 687 -20 633 -20 c 128,-1,38
EndSplineSet
Validated: 1
EndChar

StartChar: minus
Encoding: 8722 8722 160
Width: 1158
Flags: W
HStem: 665 160<190.627 967.373>
LayerCount: 2
Fore
SplineSet
150 722 m 1,0,1
 184 825 184 825 364 825 c 2,2,-1
 989 825 l 1,3,-1
 1008 768 l 1,4,5
 974 665 974 665 794 665 c 2,6,-1
 169 665 l 1,7,-1
 150 722 l 1,0,1
EndSplineSet
Validated: 1
EndChar

StartChar: W
Encoding: 87 87 161
Width: 2397
Flags: W
HStem: -20 24G<908 1001.38 1512 1605.38> 1409 34<15.7835 53.8319 619.784 657.832> 1480 30<1650 1689.81> 1510 20G<214.851 317 818.851 921>
VStem: 2066 231<760.332 1217.75>
LayerCount: 2
Fore
SplineSet
1545 -17 m 1,0,1
 1479 2 1479 2 1433 61 c 0,2,3
 990 612 990 612 791 1372 c 0,4,5
 779 1418 779 1418 697 1418 c 0,6,7
 659 1418 659 1418 624 1409 c 1,8,-1
 614 1443 l 1,9,-1
 880 1530 l 1,10,11
 962 1513 962 1513 984 1419 c 0,12,13
 1145 719 1145 719 1702 35 c 1,14,-1
 1545 -17 l 1,0,1
941 -20 m 1,15,16
 875 -1 875 -1 829 58 c 0,17,18
 367 632 367 632 187 1372 c 0,19,20
 175 1418 175 1418 93 1418 c 0,21,22
 55 1418 55 1418 20 1409 c 1,23,-1
 10 1443 l 1,24,-1
 276 1530 l 1,25,26
 358 1513 358 1513 380 1419 c 0,27,28
 541 716 541 716 1098 32 c 1,29,-1
 941 -20 l 1,15,16
1650 1510 m 1,30,31
 2297 1510 2297 1510 2297 1008 c 0,32,33
 2297 547 2297 547 1711 120 c 1,34,-1
 1687 139 l 1,35,36
 2066 616 2066 616 2066 1009 c 0,37,38
 2066 1372 2066 1372 1650 1480 c 1,39,-1
 1650 1510 l 1,30,31
EndSplineSet
Validated: 1
EndChar

StartChar: u
Encoding: 117 117 162
Width: 1328
Flags: W
HStem: -20 99<442.233 768.733> 1021 99<564.682 696>
VStem: 100 188<317.112 707.653> 958 170<283.994 1067.8>
LayerCount: 2
Fore
SplineSet
1081 -20 m 1,0,1
 1006 1 1006 1 976 80 c 1,2,3
 855 -20 855 -20 668 -20 c 0,4,5
 436 -20 436 -20 278 128 c 0,6,7
 100 295 100 295 100 550 c 0,8,9
 100 806 100 806 278 972 c 0,10,11
 435 1120 435 1120 696 1120 c 1,12,-1
 729 1021 l 1,13,14
 597 1021 597 1021 483 923 c 0,15,16
 368 824 368 824 321 675 c 0,17,18
 288 570 288 570 288 459 c 0,19,20
 288 331 288 331 343 232 c 0,21,22
 429 79 429 79 599 79 c 0,23,24
 741 79 741 79 838 178 c 0,25,26
 958 300 958 300 958 492 c 2,27,-1
 958 1104 l 1,28,-1
 1005 1120 l 1,29,30
 1128 1085 1128 1085 1128 906 c 2,31,-1
 1128 191 l 2,32,33
 1128 82 1128 82 1230 82 c 0,34,35
 1268 82 1268 82 1303 91 c 1,36,-1
 1313 57 l 1,37,-1
 1081 -20 l 1,0,1
EndSplineSet
Validated: 1
EndChar

StartChar: q
Encoding: 113 113 163
Width: 1328
Flags: W
HStem: -431 24<1062.03 1085.35> -20 99<447.619 631> 1021 99<560.36 886.704>
VStem: 100 188<317.112 707.725> 688 161<-286.665 -29.3979> 1040 188<395.759 782.888>
LayerCount: 2
Fore
SplineSet
664 -20 m 1,0,1
 436 -20 436 -20 278 128 c 0,2,3
 100 295 100 295 100 550 c 128,-1,4
 100 805 100 805 278 972 c 0,5,6
 436 1120 436 1120 664 1120 c 0,7,8
 893 1120 893 1120 1050 972 c 0,9,10
 1228 805 1228 805 1228 550 c 0,11,12
 1228 292 1228 292 1050 128 c 0,13,14
 939 26 939 26 911 -7 c 0,15,16
 849 -79 849 -79 849 -162 c 0,17,18
 849 -342 849 -342 1093 -407 c 1,19,-1
 1074 -431 l 1,20,21
 688 -410 688 -410 688 -126 c 0,22,23
 688 -16 688 -16 742 66 c 0,24,25
 771 111 771 111 845 177 c 0,26,27
 959 279 959 279 1007 425 c 0,28,29
 1040 526 1040 526 1040 641 c 0,30,31
 1040 769 1040 769 985 868 c 0,32,33
 900 1021 900 1021 729 1021 c 0,34,35
 597 1021 597 1021 483 923 c 0,36,37
 371 827 371 827 321 675 c 0,38,39
 288 574 288 574 288 459 c 0,40,41
 288 331 288 331 343 232 c 0,42,43
 426 79 426 79 631 79 c 1,44,-1
 664 -20 l 1,0,1
EndSplineSet
Validated: 1
EndChar

StartChar: d
Encoding: 100 100 164
Width: 1328
VWidth: 2458
Flags: W
HStem: -20 99<442.233 768.733> 1021 99<564.682 696> 1510 20G<944.74 1066.5>
VStem: 100 188<317.112 707.653> 958 170<283.994 1413.81>
LayerCount: 2
Fore
SplineSet
1071 -20 m 1,0,1
 1007 1 1007 1 976 80 c 1,2,3
 855 -20 855 -20 668 -20 c 0,4,5
 436 -20 436 -20 278 128 c 0,6,7
 100 295 100 295 100 550 c 0,8,9
 100 806 100 806 278 972 c 0,10,11
 435 1120 435 1120 696 1120 c 1,12,-1
 729 1021 l 1,13,14
 597 1021 597 1021 483 923 c 0,15,16
 368 824 368 824 321 675 c 0,17,18
 288 570 288 570 288 459 c 0,19,20
 288 331 288 331 343 232 c 0,21,22
 429 79 429 79 599 79 c 0,23,24
 741 79 741 79 838 178 c 0,25,26
 958 300 958 300 958 492 c 2,27,-1
 958 1316 l 2,28,29
 958 1428 958 1428 856 1428 c 0,30,31
 818 1428 818 1428 783 1419 c 1,32,-1
 773 1453 l 1,33,-1
 1005 1530 l 1,34,35
 1128 1495 1128 1495 1128 1316 c 2,36,-1
 1128 194 l 2,37,38
 1128 85 1128 85 1230 85 c 0,39,40
 1268 85 1268 85 1303 94 c 1,41,-1
 1313 60 l 1,42,-1
 1071 -20 l 1,0,1
EndSplineSet
Validated: 1
EndChar

StartChar: f
Encoding: 102 102 165
Width: 1056
Flags: W
HStem: -430 21G<261.5 380> 458 108<380 735.594> 1431 99<560.451 877.855>
VStem: 200 180<-377.797 458 566 1235.77>
LayerCount: 2
Fore
SplineSet
323 -430 m 1,0,1
 200 -395 200 -395 200 -216 c 2,2,-1
 200 1021 l 2,3,4
 200 1245 200 1245 298 1368 c 0,5,6
 428 1530 428 1530 660 1530 c 0,7,8
 888 1530 888 1530 1046 1382 c 1,9,-1
 998 1240 l 1,10,11
 906 1431 906 1431 724 1431 c 0,12,13
 586 1431 586 1431 490 1332 c 0,14,15
 380 1220 380 1220 380 1021 c 2,16,-1
 380 566 l 1,17,-1
 632 566 l 2,18,19
 723 566 723 566 788 677 c 1,20,-1
 809 677 l 1,21,-1
 761 532 l 2,22,23
 737 458 737 458 632 458 c 2,24,-1
 380 458 l 1,25,-1
 380 -411 l 1,26,-1
 323 -430 l 1,0,1
EndSplineSet
Validated: 1
EndChar

StartChar: g
Encoding: 103 103 166
Width: 1328
Flags: W
HStem: -430 21G<1014.5 1128> -20 99<446.486 771.3> 1021 99<559.484 881.988>
VStem: 100 188<317.527 693.718> 958 170<-383.5 57 159 420.5>
LayerCount: 2
Fore
SplineSet
664 -20 m 0,0,1
 436 -20 436 -20 278 128 c 0,2,3
 100 295 100 295 100 550 c 128,-1,4
 100 805 100 805 278 972 c 0,5,6
 436 1120 436 1120 664 1120 c 128,-1,7
 892 1120 892 1120 1050 972 c 1,8,-1
 1002 830 l 1,9,10
 910 1021 910 1021 729 1021 c 0,11,12
 592 1021 592 1021 484 924 c 128,-1,13
 376 827 376 827 326 675 c 0,14,15
 288 559 288 559 288 459 c 0,16,17
 288 340 288 340 348 232 c 0,18,19
 433 79 433 79 599 79 c 0,20,21
 751 79 751 79 856 192 c 1,22,-1
 958 159 l 1,23,-1
 958 448 l 1,24,-1
 1015 467 l 1,25,26
 1128 432 1128 432 1128 253 c 2,27,-1
 1128 -411 l 1,28,-1
 1071 -430 l 1,29,30
 958 -395 958 -395 958 -216 c 2,31,-1
 958 57 l 1,32,33
 816 -20 816 -20 664 -20 c 0,0,1
EndSplineSet
Validated: 1
EndChar

StartChar: k
Encoding: 107 107 167
Width: 1351
Flags: W
HStem: -20 21G<261.5 370 872 1149.72> 1100 20G<904.142 944.627> 1510 20G<186.74 308.5>
VStem: 200 170<32.2031 1415.12>
DStem2: 458 726 634 733 0.766347 0.642427<129.381 612.856>
LayerCount: 2
Fore
SplineSet
323 -20 m 1,0,1
 200 15 200 15 200 194 c 2,2,-1
 200 1319 l 2,3,4
 200 1428 200 1428 98 1428 c 0,5,6
 60 1428 60 1428 25 1419 c 1,7,-1
 15 1453 l 1,8,-1
 247 1530 l 1,9,10
 370 1495 370 1495 370 1319 c 2,11,-1
 370 -4 l 1,12,-1
 323 -20 l 1,0,1
1089 -20 m 1,13,14
 655 230 655 230 458 726 c 1,15,-1
 928 1120 l 1,16,-1
 997 1037 l 1,17,-1
 634 733 l 1,18,19
 798 363 798 363 1155 123 c 0,20,21
 1207 88 1207 88 1258 88 c 0,22,23
 1296 88 1296 88 1331 97 c 1,24,-1
 1341 63 l 1,25,-1
 1089 -20 l 1,13,14
EndSplineSet
Validated: 1
EndChar

StartChar: r
Encoding: 114 114 168
Width: 1056
Flags: W
HStem: -20 21G<261.5 370> 1021 99<558.98 877.855>
VStem: 200 170<32.2031 816.006>
LayerCount: 2
Fore
SplineSet
323 -20 m 1,0,1
 200 15 200 15 200 194 c 2,2,-1
 200 909 l 2,3,4
 200 1018 200 1018 98 1018 c 0,5,6
 60 1018 60 1018 25 1009 c 1,7,-1
 15 1043 l 1,8,-1
 247 1120 l 1,9,10
 323 1099 323 1099 352 1020 c 1,11,12
 474 1120 474 1120 660 1120 c 0,13,14
 888 1120 888 1120 1046 972 c 1,15,-1
 998 830 l 1,16,17
 906 1021 906 1021 724 1021 c 0,18,19
 586 1021 586 1021 490 922 c 0,20,21
 370 800 370 800 370 608 c 2,22,-1
 370 -4 l 1,23,-1
 323 -20 l 1,0,1
EndSplineSet
Validated: 1
EndChar

StartChar: t
Encoding: 116 116 169
Width: 1189
Flags: W
HStem: -20 99<480.545 808.015> 992 108<83.4062 381 547.668 1065.59>
VStem: 10 21<881 897.666> 139 188<316.612 708.515>
LayerCount: 2
Fore
SplineSet
703 -20 m 0,0,1
 475 -20 475 -20 317 128 c 0,2,3
 139 295 139 295 139 546 c 0,4,5
 139 799 139 799 329 955 c 0,6,7
 353 975 353 975 381 992 c 1,8,-1
 187 992 l 2,9,10
 96 992 96 992 31 881 c 1,11,-1
 10 881 l 1,12,-1
 57 1026 l 2,13,14
 81 1100 81 1100 186 1100 c 2,15,-1
 962 1100 l 2,16,17
 1053 1100 1053 1100 1118 1211 c 1,18,-1
 1139 1211 l 1,19,-1
 1091 1066 l 2,20,21
 1067 992 1067 992 962 992 c 2,22,-1
 718 992 l 2,23,24
 592 992 592 992 514 923 c 0,25,26
 412 832 412 832 360 675 c 0,27,28
 327 574 327 574 327 459 c 0,29,30
 327 331 327 331 382 232 c 0,31,32
 467 79 467 79 638 79 c 0,33,34
 790 79 790 79 895 192 c 1,35,-1
 1089 128 l 1,36,37
 932 -20 932 -20 703 -20 c 0,0,1
EndSplineSet
Validated: 1
EndChar

StartChar: y
Encoding: 121 121 170
Width: 1405
Flags: W
HStem: -430 21G<319 819.5> 1070 30<791 837.395> 1100 20G<197.512 299>
VStem: 1100 205<509.508 885.327>
LayerCount: 2
Fore
SplineSet
632 123 m 1,0,1
 557 145 557 145 520 201 c 0,2,3
 285 557 285 557 187 967 c 0,4,5
 176 1013 176 1013 93 1013 c 0,6,7
 55 1013 55 1013 20 1004 c 1,8,-1
 10 1038 l 1,9,-1
 258 1120 l 1,10,11
 340 1104 340 1104 362 1009 c 0,12,13
 458 595 458 595 757 165 c 1,14,-1
 632 123 l 1,0,1
791 1100 m 1,15,16
 1305 1100 1305 1100 1305 735 c 0,17,18
 1305 204 1305 204 334 -430 c 1,19,-1
 316 -406 l 1,20,21
 1100 301 1100 301 1100 689 c 0,22,23
 1100 992 1100 992 791 1070 c 1,24,-1
 791 1100 l 1,15,16
EndSplineSet
Validated: 1
EndChar

StartChar: z
Encoding: 122 122 171
Width: 1105
Flags: W
HStem: 0 128<93 864.667> 141 24<167.248 178.107> 992 108<219.406 640.393>
VStem: 744 210<610.839 901.727>
LayerCount: 2
Fore
SplineSet
50 0 m 1,0,-1
 93 128 l 1,1,-1
 826 128 l 2,2,3
 929 128 929 128 955 54 c 1,4,-1
 892 -136 l 1,5,-1
 858 -126 l 1,6,7
 867 -91 867 -91 867 -53 c 0,8,9
 867 0 867 0 817 0 c 2,10,-1
 50 0 l 1,0,-1
323 1100 m 2,11,-1
 419 1100 l 2,12,13
 954 1100 954 1100 954 749 c 0,14,15
 954 365 954 365 178 141 c 1,16,-1
 160 165 l 1,17,18
 744 472 744 472 744 770 c 0,19,20
 744 992 744 992 419 992 c 2,21,-1
 323 992 l 2,22,23
 232 992 232 992 167 881 c 1,24,-1
 146 881 l 1,25,-1
 194 1026 l 2,26,27
 218 1100 218 1100 323 1100 c 2,11,-1
EndSplineSet
Validated: 1
EndChar

StartChar: x
Encoding: 120 120 172
Width: 1157
Flags: W
HStem: -20 21G<882.5 982.811> 0 30<403.845 460> 1070 30<693 749.155> 1100 20G<201.277 292>
VStem: 86 190<87.8287 292.359> 877 190<792.329 1012.17>
LayerCount: 2
Fore
SplineSet
922 -20 m 1,0,1
 843 -12 843 -12 784 49 c 0,2,3
 507 330 507 330 202 972 c 0,4,5
 183 1012 183 1012 93 1012 c 0,6,7
 55 1012 55 1012 20 1003 c 1,8,-1
 10 1037 l 1,9,-1
 262 1120 l 1,10,11
 322 1109 322 1109 366 1009 c 0,12,13
 596 485 596 485 947 115 c 0,14,15
 981 79 981 79 1064 79 c 0,16,17
 1102 79 1102 79 1137 88 c 1,18,-1
 1147 54 l 1,19,-1
 922 -20 l 1,0,1
693 1100 m 1,20,21
 1067 1100 1067 1100 1067 938 c 0,22,23
 1067 709 1067 709 681 530 c 1,24,-1
 662 554 l 1,25,26
 877 787 877 787 877 909 c 0,27,28
 877 1039 877 1039 693 1070 c 1,29,-1
 693 1100 l 1,20,21
460 0 m 1,30,31
 86 0 86 0 86 162 c 0,32,33
 86 329 86 329 355 464 c 1,34,-1
 374 440 l 1,35,36
 276 324 276 324 276 191 c 0,37,38
 276 61 276 61 460 30 c 1,39,-1
 460 0 l 1,30,31
EndSplineSet
Validated: 1
EndChar

StartChar: U
Encoding: 85 85 173
Width: 1726
Flags: W
HStem: -20 132<596.509 1005.73> 1400 130<733.092 907>
VStem: 100 207<477.884 933.72> 1336 190<442.212 1477.8>
LayerCount: 2
Fore
SplineSet
1459 -20 m 1,0,1
 1358 9 1358 9 1340 139 c 1,2,3
 1162 -20 1162 -20 864 -20 c 0,4,5
 558 -20 558 -20 337 183 c 0,6,7
 100 401 100 401 100 755 c 128,-1,8
 100 1109 100 1109 337 1327 c 0,9,10
 558 1530 558 1530 907 1530 c 1,11,-1
 951 1400 l 1,12,13
 753 1400 753 1400 588 1271 c 0,14,15
 419 1139 419 1139 352 934 c 0,16,17
 307 797 307 797 307 638 c 0,18,19
 307 468 307 468 393 327 c 0,20,21
 524 112 524 112 775 112 c 0,22,23
 987 112 987 112 1140 237 c 0,24,25
 1336 398 1336 398 1336 680 c 2,26,-1
 1336 1507 l 1,27,-1
 1403 1530 l 1,28,29
 1526 1495 1526 1495 1526 1316 c 2,30,-1
 1526 198 l 2,31,32
 1526 89 1526 89 1628 89 c 0,33,34
 1666 89 1666 89 1701 98 c 1,35,-1
 1711 64 l 1,36,-1
 1459 -20 l 1,0,1
EndSplineSet
Validated: 1
EndChar

StartChar: D
Encoding: 68 68 174
Width: 1726
Flags: W
HStem: -20 130<819 992.908> 1398 132<720.275 1129.49>
VStem: 200 190<32.2031 1067.79> 1419 207<576.28 1032.12>
LayerCount: 2
Fore
SplineSet
323 -20 m 1,0,1
 200 15 200 15 200 194 c 2,2,-1
 200 1312 l 2,3,4
 200 1421 200 1421 98 1421 c 0,5,6
 60 1421 60 1421 25 1412 c 1,7,-1
 15 1446 l 1,8,-1
 267 1530 l 1,9,10
 368 1501 368 1501 386 1371 c 1,11,12
 564 1530 564 1530 862 1530 c 0,13,14
 1168 1530 1168 1530 1389 1327 c 0,15,16
 1626 1109 1626 1109 1626 755 c 128,-1,17
 1626 401 1626 401 1389 183 c 0,18,19
 1168 -20 1168 -20 819 -20 c 1,20,-1
 775 110 l 1,21,22
 973 110 973 110 1138 239 c 0,23,24
 1307 371 1307 371 1374 576 c 0,25,26
 1419 713 1419 713 1419 872 c 0,27,28
 1419 1042 1419 1042 1333 1183 c 0,29,30
 1202 1398 1202 1398 951 1398 c 0,31,32
 739 1398 739 1398 586 1273 c 0,33,34
 390 1112 390 1112 390 830 c 2,35,-1
 390 3 l 1,36,-1
 323 -20 l 1,0,1
EndSplineSet
Validated: 1
EndChar

StartChar: M
Encoding: 77 77 175
Width: 2852
Flags: W
HStem: -20 130<593.802 818 1945 2118.91> 1398 132<732.731 1110.63 1849.3 2255.49>
VStem: 100 207<472.091 927.611> 1326 200<32.2031 1080.59> 2545 207<576.28 1032.12>
CounterMasks: 1 38
LayerCount: 2
Fore
SplineSet
1449 -20 m 1,0,1
 1326 15 1326 15 1326 194 c 2,2,-1
 1326 833 l 2,3,4
 1326 1104 1326 1104 1258 1218 c 0,5,6
 1151 1398 1151 1398 952 1398 c 128,-1,7
 753 1398 753 1398 588 1268 c 0,8,9
 420 1135 420 1135 352 931 c 0,10,11
 307 796 307 796 307 636 c 0,12,13
 307 458 307 458 393 324 c 0,14,15
 527 110 527 110 818 110 c 1,16,-1
 862 -20 l 1,17,18
 556 -20 556 -20 335 183 c 0,19,20
 100 399 100 399 100 755 c 128,-1,21
 100 1111 100 1111 335 1327 c 0,22,23
 556 1530 556 1530 862 1530 c 0,24,25
 1134 1530 1134 1530 1321 1350 c 0,26,27
 1374 1299 1374 1299 1414 1239 c 1,28,29
 1451 1306 1451 1306 1504 1358 c 0,30,31
 1682 1530 1682 1530 1988 1530 c 128,-1,32
 2294 1530 2294 1530 2515 1327 c 0,33,34
 2752 1109 2752 1109 2752 755 c 128,-1,35
 2752 401 2752 401 2515 183 c 0,36,37
 2294 -20 2294 -20 1945 -20 c 1,38,-1
 1901 110 l 1,39,40
 2099 110 2099 110 2264 239 c 0,41,42
 2433 371 2433 371 2500 576 c 0,43,44
 2545 713 2545 713 2545 872 c 0,45,46
 2545 1042 2545 1042 2459 1183 c 0,47,48
 2328 1398 2328 1398 2077 1398 c 0,49,50
 1867 1398 1867 1398 1712 1273 c 0,51,52
 1526 1122 1526 1122 1526 833 c 2,53,-1
 1526 6 l 1,54,-1
 1449 -20 l 1,0,1
EndSplineSet
Validated: 1
EndChar

StartChar: P
Encoding: 80 80 176
Width: 1726
Flags: W
HStem: -430 21G<261.5 381.261> -20 130<819 992.908> 1398 132<720.275 1129.49>
VStem: 200 190<-377.797 1067.79> 1419 207<576.28 1032.12>
LayerCount: 2
Fore
SplineSet
323 -430 m 1,0,1
 200 -395 200 -395 200 -216 c 2,2,-1
 200 1312 l 2,3,4
 200 1421 200 1421 98 1421 c 0,5,6
 60 1421 60 1421 25 1412 c 1,7,-1
 15 1446 l 1,8,-1
 267 1530 l 1,9,10
 368 1501 368 1501 386 1371 c 1,11,12
 564 1530 564 1530 862 1530 c 0,13,14
 1168 1530 1168 1530 1389 1327 c 0,15,16
 1626 1109 1626 1109 1626 755 c 128,-1,17
 1626 401 1626 401 1389 183 c 0,18,19
 1168 -20 1168 -20 819 -20 c 1,20,-1
 775 110 l 1,21,22
 973 110 973 110 1138 239 c 0,23,24
 1307 371 1307 371 1374 576 c 0,25,26
 1419 713 1419 713 1419 872 c 0,27,28
 1419 1042 1419 1042 1333 1183 c 0,29,30
 1202 1398 1202 1398 951 1398 c 0,31,32
 739 1398 739 1398 586 1273 c 0,33,34
 390 1112 390 1112 390 830 c 2,35,-1
 390 -407 l 1,36,-1
 323 -430 l 1,0,1
EndSplineSet
Validated: 1
EndChar

StartChar: R
Encoding: 82 82 177
Width: 1474
Flags: W
HStem: -20 21G<261.5 381.261 997 1251> 1410 120<534.603 819.303>
VStem: 200 190<32.2031 1257.96> 931 204<895.746 1258.23>
LayerCount: 2
Fore
SplineSet
323 -20 m 1,0,1
 200 15 200 15 200 194 c 2,2,-1
 200 1312 l 2,3,4
 200 1421 200 1421 98 1421 c 0,5,6
 60 1421 60 1421 25 1412 c 1,7,-1
 15 1446 l 1,8,-1
 267 1530 l 1,9,10
 338 1510 338 1510 368 1441 c 1,11,12
 482 1530 482 1530 637 1530 c 0,13,14
 846 1530 846 1530 988 1398 c 0,15,16
 1135 1261 1135 1261 1135 1044 c 0,17,18
 1135 826 1135 826 988 691 c 0,19,20
 922 631 922 631 806 586 c 1,21,22
 996 325 996 325 1281 134 c 0,23,24
 1338 96 1338 96 1381 96 c 0,25,26
 1419 96 1419 96 1454 105 c 1,27,-1
 1464 71 l 1,28,-1
 1191 -20 l 1,29,30
 803 245 803 245 529 678 c 1,31,32
 681 678 681 678 769 746 c 0,33,34
 865 819 865 819 905 941 c 0,35,36
 931 1020 931 1020 931 1115 c 0,37,38
 931 1215 931 1215 881 1295 c 0,39,40
 809 1410 809 1410 690 1410 c 0,41,42
 585 1410 585 1410 506 1345 c 0,43,44
 390 1250 390 1250 390 1071 c 2,45,-1
 390 3 l 1,46,-1
 323 -20 l 1,0,1
EndSplineSet
Validated: 1
EndChar

StartChar: Z
Encoding: 90 90 178
Width: 1409
Flags: W
HStem: 0 148<100 1163.13> 1382 128<274.406 832.442>
VStem: 1006 241<845.201 1223.14>
LayerCount: 2
Fore
SplineSet
50 0 m 1,0,-1
 100 148 l 1,1,-1
 1130 148 l 2,2,3
 1233 148 1233 148 1259 74 c 1,4,-1
 1189 -136 l 1,5,-1
 1155 -126 l 1,6,7
 1164 -91 1164 -91 1164 -53 c 0,8,9
 1164 0 1164 0 1114 0 c 2,10,-1
 50 0 l 1,0,-1
385 1510 m 2,11,-1
 604 1510 l 2,12,13
 1247 1510 1247 1510 1247 1023 c 0,14,15
 1247 494 1247 494 225 192 c 1,16,-1
 207 217 l 1,17,18
 1006 637 1006 637 1006 1027 c 0,19,20
 1006 1382 1006 1382 603 1382 c 2,21,-1
 378 1382 l 2,22,23
 287 1382 287 1382 222 1271 c 1,24,-1
 201 1271 l 1,25,-1
 256 1436 l 2,26,27
 281 1510 281 1510 385 1510 c 2,11,-1
EndSplineSet
Validated: 1
EndChar

StartChar: K
Encoding: 75 75 179
Width: 1574
Flags: W
HStem: -20 21G<266.5 386.261 1016.5 1351> 1510 20G<212 333.5 1121.14 1161.73>
VStem: 205 190<32.2031 1407.61>
DStem2: 484 976 690 971 0.766412 0.642349<144.117 862.333>
LayerCount: 2
Fore
SplineSet
328 -20 m 1,0,1
 205 15 205 15 205 194 c 2,2,-1
 205 1312 l 2,3,4
 205 1421 205 1421 103 1421 c 0,5,6
 65 1421 65 1421 30 1412 c 1,7,-1
 20 1446 l 1,8,-1
 272 1530 l 1,9,10
 395 1495 395 1495 395 1312 c 2,11,-1
 395 3 l 1,12,-1
 328 -20 l 1,0,1
1291 -20 m 1,13,14
 742 285 742 285 484 976 c 1,15,-1
 1145 1530 l 1,16,-1
 1232 1426 l 1,17,-1
 690 971 l 1,18,19
 908 440 908 440 1373 130 c 0,20,21
 1424 96 1424 96 1481 96 c 0,22,23
 1519 96 1519 96 1554 105 c 1,24,-1
 1564 71 l 1,25,-1
 1291 -20 l 1,13,14
EndSplineSet
Validated: 1
EndChar

StartChar: H
Encoding: 72 72 180
Width: 1726
Flags: W
HStem: -430 130<819 992.908> -20 21G<261.5 381.261> 988 132<721.15 1129.49> 1510 20G<207 328.5>
VStem: 200 190<32.2031 657.788 965 1407.19> 1419 207<166.28 622.116>
LayerCount: 2
Fore
SplineSet
323 -20 m 1,0,1
 200 15 200 15 200 194 c 2,2,-1
 200 1312 l 2,3,4
 200 1421 200 1421 98 1421 c 0,5,6
 60 1421 60 1421 25 1412 c 1,7,-1
 15 1446 l 1,8,-1
 267 1530 l 1,9,10
 390 1494 390 1494 390 1312 c 2,11,-1
 390 965 l 1,12,13
 568 1120 568 1120 862 1120 c 0,14,15
 1168 1120 1168 1120 1389 917 c 0,16,17
 1626 699 1626 699 1626 345 c 128,-1,18
 1626 -9 1626 -9 1389 -227 c 0,19,20
 1168 -430 1168 -430 819 -430 c 1,21,-1
 775 -300 l 1,22,23
 973 -300 973 -300 1138 -171 c 0,24,25
 1307 -39 1307 -39 1374 166 c 0,26,27
 1419 303 1419 303 1419 462 c 0,28,29
 1419 632 1419 632 1333 773 c 0,30,31
 1202 988 1202 988 951 988 c 0,32,33
 739 988 739 988 586 863 c 0,34,35
 390 702 390 702 390 420 c 2,36,-1
 390 3 l 1,37,-1
 323 -20 l 1,0,1
EndSplineSet
Validated: 1
EndChar

StartChar: B
Encoding: 66 66 181
Width: 1245
Flags: W
HStem: -20 119<569 734.924> 760 114<582 706.304> 1415 115<480.056 753.514>
VStem: 200 190<32.2031 1324.77> 838 197<1015.44 1322.05> 941 204<310.391 645.91>
LayerCount: 2
Fore
SplineSet
323 -20 m 1,0,1
 200 15 200 15 200 194 c 2,2,-1
 200 1178 l 1,3,-1
 200 1312 l 2,4,5
 200 1421 200 1421 98 1421 c 0,6,7
 60 1421 60 1421 25 1412 c 1,8,-1
 15 1446 l 1,9,-1
 267 1530 l 1,10,11
 325 1513 325 1513 356 1465 c 1,12,13
 450 1530 450 1530 602 1530 c 0,14,15
 774 1530 774 1530 898 1430 c 0,16,17
 1035 1320 1035 1320 1035 1146 c 0,18,19
 1035 974 1035 974 896 864 c 0,20,21
 885 855 885 855 874 848 c 1,22,23
 949 817 949 817 1009 762 c 0,24,25
 1145 641 1145 641 1145 458 c 0,26,27
 1145 256 1145 256 988 112 c 0,28,29
 843 -20 843 -20 569 -20 c 1,30,-1
 529 99 l 1,31,32
 682 99 682 99 774 167 c 0,33,34
 862 231 862 231 906 330 c 0,35,36
 941 409 941 409 941 506 c 0,37,38
 941 589 941 589 901 656 c 0,39,40
 838 760 838 760 706 760 c 2,41,-1
 582 760 l 1,42,-1
 543 874 l 1,43,44
 628 874 628 874 696 912 c 0,45,46
 763 949 763 949 803 1032 c 0,47,48
 838 1105 838 1105 838 1182 c 0,49,50
 838 1276 838 1276 777 1348 c 0,51,52
 720 1415 720 1415 626 1415 c 0,53,54
 536 1415 536 1415 480 1371 c 0,55,56
 390 1301 390 1301 390 1178 c 2,57,-1
 390 3 l 1,58,-1
 323 -20 l 1,0,1
EndSplineSet
Validated: 1
EndChar

StartChar: X
Encoding: 88 88 182
Width: 1445
Flags: W
HStem: -20 21G<1155.5 1255.76> 0 30<488.914 527> 1480 30<918 956.086> 1510 20G<216.318 308>
VStem: 111 206<122.17 369.726> 1128 206<1097.71 1381.8>
LayerCount: 2
Fore
SplineSet
1195 -20 m 1,0,1
 1116 -12 1116 -12 1057 49 c 0,2,3
 568 547 568 547 193 1375 c 0,4,5
 174 1417 174 1417 93 1417 c 0,6,7
 55 1417 55 1417 20 1408 c 1,8,-1
 10 1442 l 1,9,-1
 277 1530 l 1,10,11
 339 1518 339 1518 381 1419 c 0,12,13
 693 702 693 702 1244 122 c 0,14,15
 1280 84 1280 84 1352 84 c 0,16,17
 1390 84 1390 84 1425 93 c 1,18,-1
 1435 59 l 1,19,-1
 1195 -20 l 1,0,1
527 0 m 1,20,21
 111 0 111 0 111 216 c 0,22,23
 111 433 111 433 458 637 c 1,24,-1
 477 613 l 1,25,26
 317 415 317 415 317 241 c 0,27,28
 317 90 317 90 527 30 c 1,29,-1
 527 0 l 1,20,21
918 1510 m 1,30,31
 1334 1510 1334 1510 1334 1259 c 0,32,33
 1334 961 1334 961 846 758 c 1,34,-1
 827 782 l 1,35,36
 1128 1058 1128 1058 1128 1256 c 0,37,38
 1128 1420 1128 1420 918 1480 c 1,39,-1
 918 1510 l 1,30,31
EndSplineSet
Validated: 1
EndChar

StartChar: ae
Encoding: 230 230 183
Width: 1902
Flags: W
HStem: -20 99<1197.36 1521.01> 0 30<508.801 550> 458 108<1050 1628.59> 1021 99<1311.48 1633.99>
VStem: 100 195<158.196 422.063>
LayerCount: 2
Fore
SplineSet
1416 -20 m 0,0,1
 1272 -20 1272 -20 1183 18 c 1,2,-1
 1069 -20 l 1,3,4
 1003 4 1003 4 983 67 c 0,5,6
 819 587 819 587 553 971 c 0,7,8
 521 1017 521 1017 459 1017 c 0,9,10
 421 1017 421 1017 386 1008 c 1,11,-1
 376 1042 l 1,12,-1
 613 1120 l 1,13,14
 679 1096 679 1096 721 1035 c 0,15,16
 809 905 809 905 887 759 c 1,17,18
 931 879 931 879 1030 972 c 0,19,20
 1188 1120 1188 1120 1416 1120 c 128,-1,21
 1644 1120 1644 1120 1802 972 c 1,22,-1
 1754 830 l 1,23,24
 1662 1021 1662 1021 1481 1021 c 0,25,26
 1344 1021 1344 1021 1236 924 c 128,-1,27
 1128 827 1128 827 1078 675 c 0,28,29
 1060 619 1060 619 1050 566 c 1,30,-1
 1525 566 l 2,31,32
 1616 566 1616 566 1681 677 c 1,33,-1
 1702 677 l 1,34,-1
 1654 532 l 2,35,36
 1630 458 1630 458 1525 458 c 2,37,-1
 1040 458 l 1,38,39
 1040 340 1040 340 1100 232 c 0,40,41
 1185 79 1185 79 1351 79 c 0,42,43
 1503 79 1503 79 1608 192 c 1,44,-1
 1802 128 l 1,45,46
 1645 -20 1645 -20 1416 -20 c 0,0,1
550 0 m 1,47,48
 100 0 100 0 100 256 c 0,49,50
 100 511 100 511 530 815 c 1,51,-1
 548 791 l 1,52,53
 295 508 295 508 295 302 c 0,54,55
 295 101 295 101 550 30 c 1,56,-1
 550 0 l 1,47,48
EndSplineSet
Validated: 1
EndChar

StartChar: N
Encoding: 78 78 184
Width: 1693
Flags: W
HStem: -20 21G<237 338.348 999.5 1349.19> 1410 34<20.7835 59.0082> 1427 34<1214.78 1252.63> 1510 20G<217.605 308 1358.13 1456>
VStem: 200 148<3 1067> 1345 148<183 1434.13>
LayerCount: 2
Fore
SplineSet
274 -20 m 1,0,1
 200 6 200 6 200 109 c 2,2,-1
 200 1354 l 1,3,4
 162 1419 162 1419 98 1419 c 0,5,6
 60 1419 60 1419 25 1410 c 1,7,-1
 15 1444 l 1,8,-1
 279 1530 l 1,9,10
 337 1519 337 1519 383 1419 c 0,11,12
 754 631 754 631 1345 183 c 1,13,-1
 1345 1386 l 2,14,15
 1345 1436 1345 1436 1292 1436 c 0,16,17
 1254 1436 1254 1436 1219 1427 c 1,18,-1
 1209 1461 l 1,19,-1
 1419 1530 l 1,20,21
 1493 1504 1493 1504 1493 1401 c 2,22,-1
 1493 47 l 1,23,-1
 1288 -20 l 1,24,25
 711 400 711 400 348 1067 c 1,26,-1
 348 3 l 1,27,-1
 274 -20 l 1,0,1
EndSplineSet
Validated: 1
EndChar

StartChar: Dcroat
Encoding: 272 272 185
Width: 1726
Flags: W
HStem: -20 130<819 992.908> 623 100<33.0332 200 390 636.967> 1398 132<720.275 1129.49>
VStem: 200 190<32.2031 623 723 1067.79> 1419 207<576.28 1032.12>
LayerCount: 2
Fore
SplineSet
323 -20 m 1,0,1
 200 15 200 15 200 194 c 2,2,-1
 200 623 l 1,3,-1
 24 623 l 1,4,-1
 15 651 l 1,5,6
 49 723 49 723 149 723 c 2,7,-1
 200 723 l 1,8,-1
 200 1312 l 2,9,10
 200 1421 200 1421 98 1421 c 0,11,12
 60 1421 60 1421 25 1412 c 1,13,-1
 15 1446 l 1,14,-1
 267 1530 l 1,15,16
 368 1501 368 1501 386 1371 c 1,17,18
 564 1530 564 1530 862 1530 c 0,19,20
 1168 1530 1168 1530 1389 1327 c 0,21,22
 1626 1109 1626 1109 1626 755 c 128,-1,23
 1626 401 1626 401 1389 183 c 0,24,25
 1168 -20 1168 -20 819 -20 c 1,26,-1
 775 110 l 1,27,28
 973 110 973 110 1138 239 c 0,29,30
 1307 371 1307 371 1374 576 c 0,31,32
 1419 713 1419 713 1419 872 c 0,33,34
 1419 1042 1419 1042 1333 1183 c 0,35,36
 1202 1398 1202 1398 951 1398 c 0,37,38
 739 1398 739 1398 586 1273 c 0,39,40
 390 1112 390 1112 390 830 c 2,41,-1
 390 723 l 1,42,-1
 646 723 l 1,43,-1
 655 695 l 1,44,45
 621 623 621 623 521 623 c 2,46,-1
 390 623 l 1,47,-1
 390 3 l 1,48,-1
 323 -20 l 1,0,1
EndSplineSet
Validated: 1
EndChar

StartChar: dcroat
Encoding: 273 273 186
Width: 1328
VWidth: 2458
Flags: W
HStem: -20 99<442.233 768.733> 554 100<690.35 958 1128 1294.28> 1021 99<564.682 696> 1510 20G<944.74 1066.5>
VStem: 100 188<317.112 707.653> 958 170<283.994 554 654 1413.81>
LayerCount: 2
Fore
SplineSet
1071 -20 m 1,0,1
 1007 1 1007 1 976 80 c 1,2,3
 855 -20 855 -20 668 -20 c 0,4,5
 436 -20 436 -20 278 128 c 0,6,7
 100 295 100 295 100 550 c 0,8,9
 100 806 100 806 278 972 c 0,10,11
 435 1120 435 1120 696 1120 c 1,12,-1
 729 1021 l 1,13,14
 597 1021 597 1021 483 923 c 0,15,16
 368 824 368 824 321 675 c 0,17,18
 288 570 288 570 288 459 c 0,19,20
 288 331 288 331 343 232 c 0,21,22
 429 79 429 79 599 79 c 0,23,24
 741 79 741 79 838 178 c 0,25,26
 958 300 958 300 958 492 c 2,27,-1
 958 554 l 1,28,-1
 682 554 l 1,29,-1
 673 582 l 1,30,31
 705 654 705 654 807 654 c 2,32,-1
 958 654 l 1,33,-1
 958 1316 l 2,34,35
 958 1428 958 1428 856 1428 c 0,36,37
 818 1428 818 1428 783 1419 c 1,38,-1
 773 1453 l 1,39,-1
 1005 1530 l 1,40,41
 1128 1495 1128 1495 1128 1316 c 2,42,-1
 1128 654 l 1,43,-1
 1304 654 l 1,44,-1
 1313 626 l 1,45,46
 1277 554 1277 554 1179 554 c 2,47,-1
 1128 554 l 1,48,-1
 1128 194 l 2,49,50
 1128 85 1128 85 1230 85 c 0,51,52
 1268 85 1268 85 1303 94 c 1,53,-1
 1313 60 l 1,54,-1
 1071 -20 l 1,0,1
EndSplineSet
Validated: 1
EndChar

StartChar: oslash
Encoding: 248 248 187
Width: 1328
Flags: W
HStem: -20 99<547.395 767.64> 1021 99<560.36 780.605>
VStem: 100 188<317.112 707.725> 1040 188<392.275 782.888>
DStem2: 422 30 461 -153 0.342405 0.939553<-99.7238 5.34174 92.5969 1050.26 1137.28 1242.61>
LayerCount: 2
Fore
SplineSet
664 -20 m 0,0,1
 586 -20 586 -20 516 -3 c 1,2,-1
 461 -153 l 1,3,-1
 432 -152 l 1,4,5
 397 -118 397 -118 397 -68 c 0,6,7
 397 -37 397 -37 410 -1 c 2,8,-1
 422 30 l 1,9,10
 344 66 344 66 278 128 c 0,11,12
 100 295 100 295 100 550 c 128,-1,13
 100 805 100 805 278 972 c 0,14,15
 436 1120 436 1120 664 1120 c 0,16,17
 742 1120 742 1120 812 1103 c 1,18,-1
 867 1253 l 1,19,-1
 896 1252 l 1,20,21
 931 1217 931 1217 931 1168 c 0,22,23
 931 1138 931 1138 918 1101 c 2,24,-1
 906 1070 l 1,25,26
 984 1034 984 1034 1050 972 c 0,27,28
 1228 805 1228 805 1228 550 c 128,-1,29
 1228 295 1228 295 1050 128 c 0,30,31
 892 -20 892 -20 664 -20 c 0,0,1
599 79 m 0,32,33
 731 79 731 79 845 177 c 0,34,35
 957 273 957 273 1007 425 c 0,36,37
 1040 526 1040 526 1040 641 c 0,38,39
 1040 769 1040 769 985 868 c 0,40,41
 942 947 942 947 876 985 c 1,42,-1
 547 83 l 1,43,44
 572 79 572 79 599 79 c 0,32,33
452 115 m 1,45,-1
 781 1017 l 1,46,47
 756 1021 756 1021 729 1021 c 0,48,49
 597 1021 597 1021 483 923 c 0,50,51
 371 827 371 827 321 675 c 0,52,53
 288 574 288 574 288 459 c 0,54,55
 288 331 288 331 343 232 c 0,56,57
 385 153 385 153 452 115 c 1,45,-1
EndSplineSet
Validated: 1
EndChar

StartChar: kgreenlandic
Encoding: 312 312 188
Width: 1351
Flags: W
HStem: -20 21G<261.5 370 872 1149.72> 1100 20G<186.74 308.5 904.142 944.627>
VStem: 200 170<32.2031 1005.12>
DStem2: 458 726 634 733 0.766347 0.642427<129.381 612.856>
LayerCount: 2
Fore
SplineSet
1089 -20 m 1,0,1
 655 230 655 230 458 726 c 1,2,-1
 928 1120 l 1,3,-1
 997 1037 l 1,4,-1
 634 733 l 1,5,6
 798 363 798 363 1155 123 c 0,7,8
 1207 88 1207 88 1258 88 c 0,9,10
 1296 88 1296 88 1331 97 c 1,11,-1
 1341 63 l 1,12,-1
 1089 -20 l 1,0,1
323 -20 m 1,13,14
 200 15 200 15 200 194 c 2,15,-1
 200 909 l 2,16,17
 200 1018 200 1018 98 1018 c 0,18,19
 60 1018 60 1018 25 1009 c 1,20,-1
 15 1043 l 1,21,-1
 247 1120 l 1,22,23
 370 1085 370 1085 370 909 c 2,24,-1
 370 -4 l 1,25,-1
 323 -20 l 1,13,14
EndSplineSet
Validated: 19457
EndChar

StartChar: S
Encoding: 83 83 189
Width: 1241
Flags: W
HStem: -20 125<284.799 672.587> 774 120<443.524 805.359> 1415 115<506.939 872.87>
VStem: 141 220<978.205 1276.22> 916 225<325.588 658.143>
LayerCount: 2
Fore
SplineSet
521 -20 m 0,0,1
 275 -20 275 -20 100 117 c 1,2,-1
 151 270 l 1,3,4
 270 105 270 105 462 105 c 0,5,6
 601 105 601 105 721 172 c 0,7,8
 845 242 845 242 888 364 c 0,9,10
 916 443 916 443 916 525 c 0,11,12
 916 639 916 639 837 707 c 0,13,14
 759 774 759 774 613 774 c 0,15,16
 409 774 409 774 280 874 c 0,17,18
 141 981 141 981 141 1146 c 0,19,20
 141 1313 141 1313 281 1422 c 0,21,22
 420 1530 420 1530 649 1530 c 0,23,24
 884 1530 884 1530 1011 1430 c 1,25,-1
 960 1277 l 1,26,27
 880 1415 880 1415 706 1415 c 0,28,29
 600 1415 600 1415 527 1382 c 0,30,31
 438 1342 438 1342 395 1258 c 0,32,33
 361 1192 361 1192 361 1108 c 0,34,35
 361 1018 361 1018 416 961 c 0,36,37
 481 894 481 894 619 894 c 0,38,39
 846 894 846 894 980 793 c 0,40,41
 1141 671 1141 671 1141 470 c 0,42,43
 1141 252 1141 252 964 117 c 0,44,45
 784 -20 784 -20 521 -20 c 0,0,1
EndSplineSet
Validated: 1
EndChar

StartChar: Oslash
Encoding: 216 216 190
Width: 1726
Flags: W
HStem: -20 130<686.159 991.87> 1398 132<732.642 1039.14>
VStem: 100 207<471.398 927.611> 1419 207<576.28 1032.87>
DStem2: 550 42 590 -141 0.342065 0.939676<-99.3853 3.82074 117.252 1434.64 1549.36 1653.53>
LayerCount: 2
Fore
SplineSet
862 -20 m 0,0,1
 747 -20 747 -20 645 9 c 1,2,-1
 590 -141 l 1,3,-1
 561 -140 l 1,4,5
 526 -106 526 -106 526 -56 c 0,6,7
 526 -25 526 -25 539 11 c 2,8,-1
 550 42 l 1,9,10
 434 92 434 92 335 183 c 0,11,12
 100 399 100 399 100 755 c 128,-1,13
 100 1111 100 1111 335 1327 c 0,14,15
 556 1530 556 1530 862 1530 c 0,16,17
 978 1530 978 1530 1081 1501 c 1,18,-1
 1136 1651 l 1,19,-1
 1165 1650 l 1,20,21
 1200 1616 1200 1616 1200 1566 c 0,22,23
 1200 1536 1200 1536 1187 1499 c 2,24,-1
 1176 1467 l 1,25,26
 1291 1417 1291 1417 1389 1327 c 0,27,28
 1626 1109 1626 1109 1626 755 c 128,-1,29
 1626 401 1626 401 1389 183 c 0,30,31
 1168 -20 1168 -20 862 -20 c 0,0,1
775 110 m 0,32,33
 971 110 971 110 1138 239 c 0,34,35
 1307 371 1307 371 1374 576 c 0,36,37
 1419 713 1419 713 1419 872 c 0,38,39
 1419 1045 1419 1045 1333 1183 c 0,40,41
 1256 1310 1256 1310 1137 1362 c 1,42,-1
 684 118 l 1,43,44
 727 110 727 110 775 110 c 0,32,33
588 146 m 1,45,-1
 1041 1390 l 1,46,47
 998 1398 998 1398 951 1398 c 0,48,49
 753 1398 753 1398 588 1268 c 0,50,51
 420 1135 420 1135 352 931 c 0,52,53
 307 796 307 796 307 636 c 0,54,55
 307 465 307 465 393 324 c 0,56,57
 469 198 469 198 588 146 c 1,45,-1
EndSplineSet
Validated: 1
EndChar

StartChar: s
Encoding: 115 115 191
Width: 1011
Flags: W
HStem: -20 101<248.405 564.443> 557 108<360.358 648.145> 1027 93<409.319 694.965>
VStem: 131 189<707.237 941.511> 707 204<228.453 500.776>
LayerCount: 2
Fore
SplineSet
433 -20 m 0,0,1
 241 -20 241 -20 100 97 c 1,2,-1
 154 257 l 1,3,4
 224 81 224 81 391 81 c 0,5,6
 507 81 507 81 584 137 c 0,7,8
 645 181 645 181 681 266 c 0,9,10
 707 327 707 327 707 389 c 0,11,12
 707 467 707 467 650 514 c 0,13,14
 598 557 598 557 500 557 c 0,15,16
 334 557 334 557 236 633 c 0,17,18
 131 714 131 714 131 834 c 0,19,20
 131 959 131 959 236 1038 c 0,21,22
 344 1120 344 1120 526 1120 c 0,23,24
 691 1120 691 1120 817 1040 c 1,25,-1
 766 890 l 1,26,27
 699 1027 699 1027 568 1027 c 0,28,29
 500 1027 500 1027 442 1001 c 0,30,31
 382 974 382 974 352 924 c 0,32,33
 320 871 320 871 320 808 c 0,34,35
 320 747 320 747 359 708 c 0,36,37
 402 665 402 665 505 665 c 0,38,39
 685 665 685 665 790 586 c 0,40,41
 911 495 911 495 911 351 c 0,42,43
 911 194 911 194 778 93 c 0,44,45
 629 -20 629 -20 433 -20 c 0,0,1
EndSplineSet
Validated: 1
EndChar

StartChar: OE
Encoding: 338 338 192
Width: 2553
Flags: W
HStem: -20 130<594.795 992.502 1654.81 2065.01> 634 128<1378 2229.59> 1398 132<732.337 1133.5 1795.79 2193.87>
VStem: 100 207<471.398 927.611> 1164 207<472.5 634 762 927.63>
LayerCount: 2
Fore
SplineSet
862 -20 m 0,0,1
 556 -20 556 -20 335 183 c 0,2,3
 100 399 100 399 100 755 c 128,-1,4
 100 1111 100 1111 335 1327 c 0,5,6
 556 1530 556 1530 861 1530 c 0,7,8
 1186 1530 1186 1530 1392 1321 c 1,9,10
 1616 1530 1616 1530 1926 1530 c 0,11,12
 2232 1530 2232 1530 2453 1327 c 1,13,-1
 2402 1174 l 1,14,15
 2266 1398 2266 1398 2015 1398 c 0,16,17
 1817 1398 1817 1398 1652 1268 c 0,18,19
 1484 1135 1484 1135 1416 931 c 0,20,21
 1389 851 1389 851 1378 762 c 1,22,-1
 2126 762 l 2,23,24
 2217 762 2217 762 2282 873 c 1,25,-1
 2303 873 l 1,26,-1
 2248 708 l 2,27,28
 2223 634 2223 634 2119 634 c 2,29,-1
 1371 634 l 1,30,31
 1372 466 1372 466 1457 324 c 0,32,33
 1585 110 1585 110 1839 110 c 0,34,35
 2062 110 2062 110 2226 258 c 1,36,-1
 2453 183 l 1,37,38
 2232 -20 2232 -20 1926 -20 c 0,39,40
 1602 -20 1602 -20 1394 188 c 1,41,42
 1171 -20 1171 -20 862 -20 c 0,0,1
775 110 m 0,43,44
 971 110 971 110 1138 239 c 0,45,46
 1207 293 1207 293 1259 359 c 1,47,48
 1164 529 1164 529 1164 755 c 0,49,50
 1164 1032 1164 1032 1306 1224 c 1,51,52
 1177 1398 1177 1398 951 1398 c 0,53,54
 753 1398 753 1398 588 1268 c 0,55,56
 420 1135 420 1135 352 931 c 0,57,58
 307 796 307 796 307 636 c 0,59,60
 307 465 307 465 393 324 c 0,61,62
 521 110 521 110 775 110 c 0,43,44
EndSplineSet
Validated: 1
EndChar

StartChar: oe
Encoding: 339 339 193
Width: 1868
Flags: W
HStem: -20 99<441.047 766.531 1164.51 1487.01> 458 108<1016 1594.59> 1021 99<560.36 888.012 1275.56 1599.99>
VStem: 100 188<317.112 707.725> 818 188<317.901 458>
LayerCount: 2
Fore
SplineSet
1382 -20 m 0,0,1
 1173 -20 1173 -20 1023 104 c 1,2,3
 873 -20 873 -20 664 -20 c 0,4,5
 436 -20 436 -20 278 128 c 0,6,7
 100 295 100 295 100 550 c 128,-1,8
 100 805 100 805 278 972 c 0,9,10
 436 1120 436 1120 664 1120 c 0,11,12
 874 1120 874 1120 1023 996 c 1,13,14
 1173 1120 1173 1120 1382 1120 c 0,15,16
 1610 1120 1610 1120 1768 972 c 1,17,-1
 1720 830 l 1,18,19
 1628 1021 1628 1021 1447 1021 c 0,20,21
 1310 1021 1310 1021 1202 924 c 128,-1,22
 1094 827 1094 827 1044 675 c 0,23,24
 1026 619 1026 619 1016 566 c 1,25,-1
 1491 566 l 2,26,27
 1582 566 1582 566 1647 677 c 1,28,-1
 1668 677 l 1,29,-1
 1620 532 l 2,30,31
 1596 458 1596 458 1491 458 c 2,32,-1
 1006 458 l 1,33,34
 1006 340 1006 340 1066 232 c 0,35,36
 1151 79 1151 79 1317 79 c 0,37,38
 1469 79 1469 79 1574 192 c 1,39,-1
 1768 128 l 1,40,41
 1611 -20 1611 -20 1382 -20 c 0,0,1
599 79 m 0,42,43
 731 79 731 79 845 177 c 0,44,45
 877 205 877 205 905 237 c 1,46,47
 818 372 818 372 818 550 c 0,48,49
 818 769 818 769 949 922 c 1,50,51
 868 1021 868 1021 729 1021 c 0,52,53
 597 1021 597 1021 483 923 c 0,54,55
 371 827 371 827 321 675 c 0,56,57
 288 574 288 574 288 459 c 0,58,59
 288 331 288 331 343 232 c 0,60,61
 426 79 426 79 599 79 c 0,42,43
EndSplineSet
Validated: 1
EndChar

StartChar: Tbar
Encoding: 358 358 194
Width: 1529
Flags: W
HStem: -20 130<633.55 1041.01> 703 100<31.5771 140 360 637.309> 1382 128<83.4062 516 748.844 1405.59>
VStem: 140 207<473.5 703>
LayerCount: 2
Fore
SplineSet
902 -20 m 0,0,1
 591 -20 591 -20 375 183 c 0,2,3
 157 387 157 387 140 703 c 1,4,-1
 24 703 l 1,5,-1
 15 731 l 1,6,7
 46 800 46 800 140 803 c 1,8,9
 156 1125 156 1125 397 1313 c 0,10,11
 448 1353 448 1353 516 1382 c 1,12,-1
 187 1382 l 2,13,14
 96 1382 96 1382 31 1271 c 1,15,-1
 10 1271 l 1,16,-1
 65 1436 l 2,17,18
 90 1510 90 1510 194 1510 c 2,19,-1
 1302 1510 l 2,20,21
 1393 1510 1393 1510 1458 1621 c 1,22,-1
 1479 1621 l 1,23,-1
 1424 1456 l 2,24,25
 1399 1382 1399 1382 1295 1382 c 2,26,-1
 1004 1382 l 2,27,28
 773 1382 773 1382 628 1268 c 0,29,30
 460 1135 460 1135 392 931 c 0,31,32
 372 870 372 870 360 803 c 1,33,-1
 646 803 l 1,34,-1
 655 775 l 1,35,36
 622 703 622 703 521 703 c 2,37,-1
 349 703 l 1,38,39
 347 670 347 670 347 636 c 0,40,41
 347 467 347 467 433 324 c 0,42,43
 561 110 561 110 815 110 c 0,44,45
 1038 110 1038 110 1202 258 c 1,46,-1
 1429 183 l 1,47,48
 1208 -20 1208 -20 902 -20 c 0,0,1
EndSplineSet
Validated: 1
EndChar

StartChar: tbar
Encoding: 359 359 195
Width: 1189
Flags: W
HStem: -20 99<480.545 808.015> 492 100<31.625 145.371 339 637.309> 992 108<83.4062 381 547.668 1065.59>
VStem: 10 21<881 897.666> 141 186<316.508 492 592 704.222>
LayerCount: 2
Fore
SplineSet
703 -20 m 0,0,1
 475 -20 475 -20 317 128 c 0,2,3
 159 277 159 277 141 492 c 1,4,-1
 24 492 l 1,5,-1
 15 520 l 1,6,7
 46 589 46 589 141 592 c 1,8,9
 157 814 157 814 329 955 c 0,10,11
 353 975 353 975 381 992 c 1,12,-1
 187 992 l 2,13,14
 96 992 96 992 31 881 c 1,15,-1
 10 881 l 1,16,-1
 57 1026 l 2,17,18
 81 1100 81 1100 186 1100 c 2,19,-1
 962 1100 l 2,20,21
 1053 1100 1053 1100 1118 1211 c 1,22,-1
 1139 1211 l 1,23,-1
 1091 1066 l 2,24,25
 1067 992 1067 992 962 992 c 2,26,-1
 718 992 l 2,27,28
 592 992 592 992 514 923 c 0,29,30
 412 832 412 832 360 675 c 0,31,32
 347 635 347 635 339 592 c 1,33,-1
 646 592 l 1,34,-1
 655 564 l 1,35,36
 622 492 622 492 521 492 c 2,37,-1
 328 492 l 1,38,39
 327 476 327 476 327 459 c 0,40,41
 327 331 327 331 382 232 c 0,42,43
 467 79 467 79 638 79 c 0,44,45
 790 79 790 79 895 192 c 1,46,-1
 1089 128 l 1,47,48
 932 -20 932 -20 703 -20 c 0,0,1
EndSplineSet
Validated: 1
EndChar

StartChar: thorn
Encoding: 254 254 196
Width: 1328
Flags: W
HStem: -430 21G<261.5 370> -20 99<632 763.318> 1021 99<560.359 885.767> 1510 20G<186.74 308.5>
VStem: 200 170<-377.797 816.006 1034 1415.12> 1040 188<392.347 782.888>
LayerCount: 2
Fore
SplineSet
323 -430 m 1,0,1
 200 -395 200 -395 200 -216 c 2,2,-1
 200 1319 l 2,3,4
 200 1428 200 1428 98 1428 c 0,5,6
 60 1428 60 1428 25 1419 c 1,7,-1
 15 1453 l 1,8,-1
 247 1530 l 1,9,10
 370 1495 370 1495 370 1319 c 2,11,-1
 370 1034 l 1,12,13
 487 1120 487 1120 660 1120 c 0,14,15
 892 1120 892 1120 1050 972 c 0,16,17
 1228 805 1228 805 1228 550 c 0,18,19
 1228 294 1228 294 1050 128 c 0,20,21
 893 -20 893 -20 632 -20 c 1,22,-1
 599 79 l 1,23,24
 731 79 731 79 845 177 c 0,25,26
 960 276 960 276 1007 425 c 0,27,28
 1040 530 1040 530 1040 641 c 0,29,30
 1040 769 1040 769 985 868 c 0,31,32
 899 1021 899 1021 729 1021 c 0,33,34
 587 1021 587 1021 490 922 c 0,35,36
 370 800 370 800 370 608 c 2,37,-1
 370 -414 l 1,38,-1
 323 -430 l 1,0,1
EndSplineSet
Validated: 1
EndChar

StartChar: Thorn
Encoding: 222 222 197
Width: 1235
Flags: W
HStem: -20 21G<261.5 381.261> 279 119<569 727.652> 1130 120<533.768 819.303> 1510 20G<207 328.5>
VStem: 200 190<32.2031 976.554 1181 1405.3> 931 204<612.168 978.23>
LayerCount: 2
Fore
SplineSet
323 -20 m 1,0,1
 200 15 200 15 200 194 c 2,2,-1
 200 1312 l 2,3,4
 200 1421 200 1421 98 1421 c 0,5,6
 60 1421 60 1421 25 1412 c 1,7,-1
 15 1446 l 1,8,-1
 267 1530 l 1,9,10
 390 1495 390 1495 390 1316 c 2,11,-1
 390 1181 l 1,12,13
 499 1250 499 1250 637 1250 c 0,14,15
 846 1250 846 1250 988 1118 c 0,16,17
 1135 981 1135 981 1135 764 c 0,18,19
 1135 546 1135 546 988 411 c 0,20,21
 843 279 843 279 569 279 c 1,22,-1
 529 398 l 1,23,24
 675 398 675 398 769 466 c 0,25,26
 864 535 864 535 905 661 c 0,27,28
 931 741 931 741 931 835 c 0,29,30
 931 935 931 935 881 1015 c 0,31,32
 809 1130 809 1130 690 1130 c 0,33,34
 585 1130 585 1130 506 1065 c 0,35,36
 390 968 390 968 390 788 c 2,37,-1
 390 3 l 1,38,-1
 323 -20 l 1,0,1
EndSplineSet
Validated: 19457
EndChar

StartChar: AE
Encoding: 198 198 198
Width: 2516
Flags: W
HStem: -20 130<1622.35 2028.01> 0 30<628.716 682> 634 128<1341 2192.59> 1100 20G<406.5 728> 1398 132<1759.47 2156.87> 1412 34<525.784 563.691>
VStem: 100 223<221.525 549.593>
LayerCount: 2
Fore
SplineSet
1889 -20 m 0,0,1
 1681 -20 1681 -20 1513 73 c 1,2,3
 1521 49 1521 49 1528 24 c 1,4,-1
 1395 -20 l 1,5,6
 1328 4 1328 4 1309 67 c 0,7,8
 1083 820 1083 820 697 1375 c 0,9,10
 665 1421 665 1421 603 1421 c 0,11,12
 565 1421 565 1421 530 1412 c 1,13,-1
 520 1446 l 1,14,-1
 776 1530 l 1,15,16
 841 1507 841 1507 884 1445 c 0,17,18
 1060 1188 1060 1188 1154 981 c 1,19,20
 1207 1184 1207 1184 1362 1327 c 0,21,22
 1582 1530 1582 1530 1889 1530 c 0,23,24
 2195 1530 2195 1530 2416 1327 c 1,25,-1
 2365 1174 l 1,26,27
 2229 1398 2229 1398 1978 1398 c 0,28,29
 1780 1398 1780 1398 1615 1268 c 0,30,31
 1447 1135 1447 1135 1379 931 c 0,32,33
 1352 851 1352 851 1341 762 c 1,34,-1
 2089 762 l 2,35,36
 2180 762 2180 762 2245 873 c 1,37,-1
 2266 873 l 1,38,-1
 2211 708 l 2,39,40
 2186 634 2186 634 2082 634 c 2,41,-1
 1334 634 l 1,42,43
 1335 466 1335 466 1420 324 c 0,44,45
 1548 110 1548 110 1802 110 c 0,46,47
 2025 110 2025 110 2189 258 c 1,48,-1
 2416 183 l 1,49,50
 2195 -20 2195 -20 1889 -20 c 0,0,1
682 0 m 1,51,52
 100 0 100 0 100 365 c 0,53,54
 100 708 100 708 713 1120 c 1,55,-1
 731 1096 l 1,56,57
 323 643 323 643 323 388 c 0,58,59
 323 110 323 110 682 30 c 1,60,-1
 682 0 l 1,51,52
EndSplineSet
Validated: 1
EndChar

StartChar: longs
Encoding: 383 383 199
Width: 1164
Flags: W
HStem: -430 21G<369.5 488> 570 108<83.4062 308> 1431 99<668.892 985.855>
VStem: 308 180<-377.797 570 678 1235.77>
LayerCount: 2
Fore
SplineSet
431 -430 m 1,0,1
 308 -395 308 -395 308 -216 c 2,2,-1
 308 570 l 1,3,-1
 187 570 l 2,4,5
 96 570 96 570 31 459 c 1,6,-1
 10 459 l 1,7,-1
 58 604 l 2,8,9
 82 678 82 678 187 678 c 2,10,-1
 308 678 l 1,11,-1
 308 1021 l 2,12,13
 308 1245 308 1245 406 1368 c 0,14,15
 536 1530 536 1530 768 1530 c 0,16,17
 996 1530 996 1530 1154 1382 c 1,18,-1
 1106 1240 l 1,19,20
 1014 1431 1014 1431 832 1431 c 0,21,22
 696 1431 696 1431 598 1332 c 0,23,24
 488 1220 488 1220 488 1021 c 2,25,-1
 488 -411 l 1,26,-1
 431 -430 l 1,0,1
EndSplineSet
Validated: 1
EndChar

StartChar: florin
Encoding: 402 402 200
Width: 1056
Flags: W
HStem: -430 21G<35 207.5> 458 108<380 735.594> 1431 99<560.451 877.855>
VStem: 200 180<-153.069 458 566 1235.77>
LayerCount: 2
Fore
SplineSet
35 -430 m 1,0,-1
 35 -420 l 1,1,2
 200 -214 200 -214 200 78 c 2,3,-1
 200 1021 l 2,4,5
 200 1245 200 1245 298 1368 c 0,6,7
 428 1530 428 1530 660 1530 c 0,8,9
 888 1530 888 1530 1046 1382 c 1,10,-1
 998 1240 l 1,11,12
 906 1431 906 1431 724 1431 c 0,13,14
 586 1431 586 1431 490 1332 c 0,15,16
 380 1220 380 1220 380 1021 c 2,17,-1
 380 566 l 1,18,-1
 632 566 l 2,19,20
 723 566 723 566 788 677 c 1,21,-1
 809 677 l 1,22,-1
 761 532 l 2,23,24
 737 458 737 458 632 458 c 2,25,-1
 380 458 l 1,26,-1
 380 78 l 2,27,28
 380 -286 380 -286 35 -430 c 1,0,-1
EndSplineSet
Validated: 1
EndChar

StartChar: Hbar
Encoding: 294 294 201
Width: 1726
Flags: W
HStem: -430 130<819 992.908> -20 21G<261.5 381.261> 437 100<32.3496 200 399 636.967> 988 132<721.15 1129.49> 1510 20G<207 328.5>
VStem: 200 190<32.2031 437 537 660.283 965 1407.19> 1419 207<166.28 622.116>
LayerCount: 2
Fore
SplineSet
323 -20 m 1,0,1
 200 15 200 15 200 194 c 2,2,-1
 200 437 l 1,3,-1
 24 437 l 1,4,-1
 15 465 l 1,5,6
 47 537 47 537 149 537 c 2,7,-1
 200 537 l 1,8,-1
 200 1312 l 2,9,10
 200 1421 200 1421 98 1421 c 0,11,12
 60 1421 60 1421 25 1412 c 1,13,-1
 15 1446 l 1,14,-1
 267 1530 l 1,15,16
 390 1494 390 1494 390 1312 c 2,17,-1
 390 965 l 1,18,19
 568 1120 568 1120 862 1120 c 0,20,21
 1168 1120 1168 1120 1389 917 c 0,22,23
 1626 699 1626 699 1626 345 c 128,-1,24
 1626 -9 1626 -9 1389 -227 c 0,25,26
 1168 -430 1168 -430 819 -430 c 1,27,-1
 775 -300 l 1,28,29
 973 -300 973 -300 1138 -171 c 0,30,31
 1307 -39 1307 -39 1374 166 c 0,32,33
 1419 303 1419 303 1419 462 c 0,34,35
 1419 632 1419 632 1333 773 c 0,36,37
 1202 988 1202 988 951 988 c 0,38,39
 739 988 739 988 586 863 c 0,40,41
 433 737 433 737 399 537 c 1,42,-1
 646 537 l 1,43,-1
 655 509 l 1,44,45
 621 437 621 437 521 437 c 2,46,-1
 390 437 l 1,47,48
 390 429 390 429 390 420 c 2,49,-1
 390 3 l 1,50,-1
 323 -20 l 1,0,1
EndSplineSet
Validated: 1
EndChar

StartChar: hbar
Encoding: 295 295 202
Width: 1328
Flags: W
HStem: -20 99<632 763.318> 487 100<30.6406 200 370 637.309> 1021 99<560.359 885.767> 1510 20G<186.74 308.5>
VStem: 200 170<32.2031 487 587 816.006 1034 1415.12> 1040 188<392.347 782.888>
LayerCount: 2
Fore
SplineSet
323 -20 m 1,0,1
 200 15 200 15 200 194 c 2,2,-1
 200 487 l 1,3,-1
 24 487 l 1,4,-1
 15 515 l 1,5,6
 42 587 42 587 149 587 c 2,7,-1
 200 587 l 1,8,-1
 200 1319 l 2,9,10
 200 1428 200 1428 98 1428 c 0,11,12
 60 1428 60 1428 25 1419 c 1,13,-1
 15 1453 l 1,14,-1
 247 1530 l 1,15,16
 370 1495 370 1495 370 1319 c 2,17,-1
 370 1034 l 1,18,19
 487 1120 487 1120 660 1120 c 0,20,21
 892 1120 892 1120 1050 972 c 0,22,23
 1228 805 1228 805 1228 550 c 0,24,25
 1228 294 1228 294 1050 128 c 0,26,27
 893 -20 893 -20 632 -20 c 1,28,-1
 599 79 l 1,29,30
 731 79 731 79 845 177 c 0,31,32
 960 276 960 276 1007 425 c 0,33,34
 1040 530 1040 530 1040 641 c 0,35,36
 1040 769 1040 769 985 868 c 0,37,38
 899 1021 899 1021 729 1021 c 0,39,40
 587 1021 587 1021 490 922 c 0,41,42
 370 800 370 800 370 608 c 2,43,-1
 370 587 l 1,44,-1
 646 587 l 1,45,-1
 655 559 l 1,46,47
 622 487 622 487 521 487 c 2,48,-1
 370 487 l 1,49,-1
 370 -4 l 1,50,-1
 323 -20 l 1,0,1
EndSplineSet
Validated: 1
EndChar

StartChar: eth
Encoding: 240 240 203
Width: 1343
Flags: W
HStem: -20 99<441.545 767.64> 1021 99<560.97 664> 1510 20G<458.913 551.5 918.102 988.652>
VStem: 100 188<317.112 707.725> 1040 203<393.062 899.94>
DStem2: 506 1360 423 1223 0.939676 0.342066<-116.327 80.9932 291.473 488.456>
LayerCount: 2
Fore
SplineSet
664 -20 m 128,-1,1
 436 -20 436 -20 278 128 c 0,2,3
 100 295 100 295 100 550 c 128,-1,4
 100 805 100 805 278 972 c 0,5,6
 436 1120 436 1120 664 1120 c 1,7,-1
 729 1021 l 1,8,9
 597 1021 597 1021 483 923 c 0,10,11
 371 827 371 827 321 675 c 0,12,13
 288 574 288 574 288 459 c 0,14,15
 288 331 288 331 343 232 c 0,16,17
 428 79 428 79 599 79 c 0,18,19
 731 79 731 79 845 177 c 0,20,21
 957 273 957 273 1007 425 c 0,22,23
 1040 526 1040 526 1040 641 c 0,24,25
 1040 1041 1040 1041 682 1318 c 1,26,-1
 423 1223 l 1,27,-1
 405 1247 l 1,28,29
 410 1326 410 1326 506 1360 c 2,30,-1
 582 1388 l 1,31,32
 504 1438 504 1438 412 1484 c 1,33,-1
 495 1530 l 1,34,35
 608 1484 608 1484 704 1432 c 1,36,-1
 973 1530 l 1,37,-1
 991 1507 l 1,38,39
 985 1428 985 1428 890 1393 c 2,40,-1
 814 1366 l 1,41,42
 1243 1083 1243 1083 1243 634 c 0,43,44
 1243 309 1243 309 1050 128 c 0,45,0
 892 -20 892 -20 664 -20 c 128,-1,1
EndSplineSet
Validated: 1
EndChar

StartChar: Lslash
Encoding: 321 321 204
Width: 1009
Flags: W
HStem: 0 128<427.046 925.594> 1510 20G<242 363.5>
VStem: 235 190<128.878 528 658 687 818 1407.61>
DStem2: 111 554 235 528 0.764949 0.64409<-115.69 78.1074 410.234 669.331>
LayerCount: 2
Fore
SplineSet
313 0 m 1,0,1
 235 51 235 51 235 194 c 2,2,-1
 235 528 l 1,3,-1
 80 397 l 1,4,-1
 55 413 l 1,5,6
 50 429 50 429 50 445 c 0,7,8
 50 503 50 503 111 554 c 2,9,-1
 235 658 l 1,10,-1
 235 1312 l 2,11,12
 235 1421 235 1421 133 1421 c 0,13,14
 95 1421 95 1421 60 1412 c 1,15,-1
 50 1446 l 1,16,-1
 302 1530 l 1,17,18
 425 1495 425 1495 425 1312 c 2,19,-1
 425 818 l 1,20,-1
 630 991 l 1,21,-1
 655 975 l 1,22,23
 660 959 660 959 660 943 c 0,24,25
 660 885 660 885 599 834 c 2,26,-1
 425 687 l 1,27,-1
 425 198 l 2,28,29
 425 156 425 156 444 128 c 1,30,-1
 822 128 l 2,31,32
 913 128 913 128 978 239 c 1,33,-1
 999 239 l 1,34,-1
 944 74 l 2,35,36
 919 0 919 0 815 0 c 2,37,-1
 313 0 l 1,0,1
EndSplineSet
Validated: 19457
EndChar

StartChar: lslash
Encoding: 322 322 205
Width: 650
Flags: W
HStem: -20 21G<301.5 423.26> 1510 20G<226.74 348.5>
VStem: 240 170<96.1875 532 662 675 805 1415.12>
DStem2: 240 662 80 397 0.765343 0.643622<-283.904 -83.6709 222.146 422.38>
LayerCount: 2
Fore
SplineSet
363 -20 m 1,0,1
 240 15 240 15 240 194 c 2,2,-1
 240 532 l 1,3,-1
 80 397 l 1,4,-1
 55 413 l 1,5,6
 50 429 50 429 50 445 c 0,7,8
 50 503 50 503 111 554 c 2,9,-1
 240 662 l 1,10,-1
 240 1319 l 2,11,12
 240 1428 240 1428 138 1428 c 0,13,14
 100 1428 100 1428 65 1419 c 1,15,-1
 55 1453 l 1,16,-1
 287 1530 l 1,17,18
 410 1495 410 1495 410 1319 c 2,19,-1
 410 805 l 1,20,-1
 570 940 l 1,21,-1
 595 924 l 1,22,23
 600 908 600 908 600 892 c 0,24,25
 600 834 600 834 539 783 c 2,26,-1
 410 675 l 1,27,-1
 410 194 l 2,28,29
 410 82 410 82 512 82 c 0,30,31
 550 82 550 82 585 91 c 1,32,-1
 595 57 l 1,33,-1
 363 -20 l 1,0,1
EndSplineSet
Validated: 19457
EndChar

StartChar: Eng
Encoding: 330 330 206
Width: 1693
Flags: W
HStem: -430 21G<1148 1320.5> -20 21G<237 338.348> 1404 34<20.7835 58.7871> 1427 34<1214.78 1252.63> 1510 20G<234.913 610.5 1358.13 1456>
VStem: 200 148<3 1255> 1347 146<281 1434.13>
LayerCount: 2
Fore
SplineSet
274 -20 m 1,0,1
 200 6 200 6 200 109 c 2,2,-1
 200 1361 l 1,3,4
 136 1413 136 1413 96 1413 c 0,5,6
 60 1413 60 1413 25 1404 c 1,7,-1
 15 1438 l 1,8,-1
 296 1530 l 1,9,10
 925 1068 925 1068 1347 281 c 1,11,-1
 1345 1386 l 2,12,13
 1345 1436 1345 1436 1292 1436 c 0,14,15
 1254 1436 1254 1436 1219 1427 c 1,16,-1
 1209 1461 l 1,17,-1
 1419 1530 l 1,18,19
 1493 1504 1493 1504 1493 1401 c 2,20,-1
 1493 78 l 2,21,22
 1493 -286 1493 -286 1148 -430 c 1,23,-1
 1148 -420 l 1,24,25
 1298 -216 1298 -216 1317 -52 c 1,26,27
 900 761 900 761 348 1255 c 1,28,-1
 348 3 l 1,29,-1
 274 -20 l 1,0,1
EndSplineSet
Validated: 1
EndChar

StartChar: eng
Encoding: 331 331 207
Width: 1368
Flags: W
HStem: -430 21G<823 995.5> -20 21G<237 328> 1100 20G<206.2 487 1033.68 1131>
VStem: 200 128<-3 862> 1040 128<265 1029.67>
LayerCount: 2
Fore
SplineSet
274 -20 m 1,0,1
 200 6 200 6 200 109 c 2,2,-1
 200 944 l 1,3,4
 131 995 131 995 90 995 c 0,5,6
 56 995 56 995 25 986 c 1,7,-1
 15 1020 l 1,8,-1
 254 1120 l 1,9,10
 720 833 720 833 1040 265 c 1,11,-1
 1040 982 l 2,12,13
 1040 1032 1040 1032 987 1032 c 0,14,15
 949 1032 949 1032 914 1023 c 1,16,-1
 904 1057 l 1,17,-1
 1094 1120 l 1,18,19
 1168 1094 1168 1094 1168 991 c 2,20,-1
 1168 78 l 2,21,22
 1168 -286 1168 -286 823 -430 c 1,23,-1
 823 -420 l 1,24,25
 983 -210 983 -210 1006 -44 c 1,26,27
 717 536 717 536 328 862 c 1,28,-1
 328 -3 l 1,29,-1
 274 -20 l 1,0,1
EndSplineSet
Validated: 19457
EndChar

StartChar: germandbls
Encoding: 223 223 208
Width: 1210
Flags: W
HStem: -20 99<583 721.086> 760 87<582 691.652> 1444 86<479.058 735.059>
VStem: 200 180<32.2031 1338.69> 828 184<981.03 1321.98> 906 204<286.187 623.61>
LayerCount: 2
Fore
SplineSet
323 -20 m 1,0,1
 200 15 200 15 200 194 c 2,2,-1
 200 1158 l 2,3,4
 200 1322 200 1322 319 1435 c 0,5,6
 419 1530 419 1530 576 1530 c 0,7,8
 762 1530 762 1530 878 1430 c 0,9,10
 1012 1314 1012 1314 1012 1144 c 0,11,12
 1012 975 1012 975 888 868 c 0,13,14
 860 844 860 844 830 825 c 1,15,16
 907 800 907 800 963 752 c 0,17,18
 1110 627 1110 627 1110 426 c 128,-1,19
 1110 225 1110 225 963 101 c 0,20,21
 818 -20 818 -20 583 -20 c 1,22,-1
 550 79 l 1,23,24
 668 79 668 79 747 142 c 0,25,26
 840 217 840 217 880 331 c 0,27,28
 906 406 906 406 906 491 c 0,29,30
 906 584 906 584 856 657 c 0,31,32
 786 760 786 760 666 760 c 2,33,-1
 582 760 l 1,34,-1
 553 847 l 1,35,36
 630 854 630 854 692 889 c 0,37,38
 773 934 773 934 802 1021 c 0,39,40
 828 1098 828 1098 828 1186 c 0,41,42
 828 1291 828 1291 770 1366 c 0,43,44
 709 1444 709 1444 613 1444 c 0,45,46
 528 1444 528 1444 479 1402 c 0,47,48
 380 1318 380 1318 380 1158 c 2,49,-1
 380 -1 l 1,50,-1
 323 -20 l 1,0,1
EndSplineSet
Validated: 1
EndChar

StartChar: Eth
Encoding: 208 208 209
Width: 1726
Flags: W
HStem: -20 130<819 992.908> 623 100<33.0332 200 390 636.967> 1398 132<720.275 1129.49>
VStem: 200 190<32.2031 623 723 1067.79> 1419 207<576.28 1032.12>
LayerCount: 2
Fore
SplineSet
323 -20 m 1,0,1
 200 15 200 15 200 194 c 2,2,-1
 200 623 l 1,3,-1
 24 623 l 1,4,-1
 15 651 l 1,5,6
 49 723 49 723 149 723 c 2,7,-1
 200 723 l 1,8,-1
 200 1312 l 2,9,10
 200 1421 200 1421 98 1421 c 0,11,12
 60 1421 60 1421 25 1412 c 1,13,-1
 15 1446 l 1,14,-1
 267 1530 l 1,15,16
 368 1501 368 1501 386 1371 c 1,17,18
 564 1530 564 1530 862 1530 c 0,19,20
 1168 1530 1168 1530 1389 1327 c 0,21,22
 1626 1109 1626 1109 1626 755 c 128,-1,23
 1626 401 1626 401 1389 183 c 0,24,25
 1168 -20 1168 -20 819 -20 c 1,26,-1
 775 110 l 1,27,28
 973 110 973 110 1138 239 c 0,29,30
 1307 371 1307 371 1374 576 c 0,31,32
 1419 713 1419 713 1419 872 c 0,33,34
 1419 1042 1419 1042 1333 1183 c 0,35,36
 1202 1398 1202 1398 951 1398 c 0,37,38
 739 1398 739 1398 586 1273 c 0,39,40
 390 1112 390 1112 390 830 c 2,41,-1
 390 723 l 1,42,-1
 646 723 l 1,43,-1
 655 695 l 1,44,45
 621 623 621 623 521 623 c 2,46,-1
 390 623 l 1,47,-1
 390 3 l 1,48,-1
 323 -20 l 1,0,1
EndSplineSet
Validated: 1
EndChar

StartChar: uni1E02
Encoding: 7682 7682 210
Width: 1245
Flags: W
HStem: -20 119<569 734.924> 760 114<582 706.304> 1415 115<480.056 753.514> 1630 264<516.191 697.809>
VStem: 200 190<32.2031 1324.77> 477 260<1669.71 1854.29> 838 197<1015.44 1322.05> 941 204<310.391 645.91>
LayerCount: 2
Fore
SplineSet
607 1894 m 128,-1,1
 661 1894 661 1894 699 1855.5 c 128,-1,2
 737 1817 737 1817 737 1762 c 128,-1,3
 737 1707 737 1707 699 1668.5 c 128,-1,4
 661 1630 661 1630 607 1630 c 128,-1,5
 553 1630 553 1630 515 1668.5 c 128,-1,6
 477 1707 477 1707 477 1762 c 128,-1,7
 477 1817 477 1817 515 1855.5 c 128,-1,0
 553 1894 553 1894 607 1894 c 128,-1,1
323 -20 m 1,8,9
 200 15 200 15 200 194 c 2,10,-1
 200 1178 l 1,11,-1
 200 1312 l 2,12,13
 200 1421 200 1421 98 1421 c 0,14,15
 60 1421 60 1421 25 1412 c 1,16,-1
 15 1446 l 1,17,-1
 267 1530 l 1,18,19
 325 1513 325 1513 356 1465 c 1,20,21
 450 1530 450 1530 602 1530 c 0,22,23
 774 1530 774 1530 898 1430 c 0,24,25
 1035 1320 1035 1320 1035 1146 c 0,26,27
 1035 974 1035 974 896 864 c 0,28,29
 885 855 885 855 874 848 c 1,30,31
 949 817 949 817 1009 762 c 0,32,33
 1145 641 1145 641 1145 458 c 0,34,35
 1145 256 1145 256 988 112 c 0,36,37
 843 -20 843 -20 569 -20 c 1,38,-1
 529 99 l 1,39,40
 682 99 682 99 774 167 c 0,41,42
 862 231 862 231 906 330 c 0,43,44
 941 409 941 409 941 506 c 0,45,46
 941 589 941 589 901 656 c 0,47,48
 838 760 838 760 706 760 c 2,49,-1
 582 760 l 1,50,-1
 543 874 l 1,51,52
 628 874 628 874 696 912 c 0,53,54
 763 949 763 949 803 1032 c 0,55,56
 838 1105 838 1105 838 1182 c 0,57,58
 838 1276 838 1276 777 1348 c 0,59,60
 720 1415 720 1415 626 1415 c 0,61,62
 536 1415 536 1415 480 1371 c 0,63,64
 390 1301 390 1301 390 1178 c 2,65,-1
 390 3 l 1,66,-1
 323 -20 l 1,8,9
EndSplineSet
Validated: 1
EndChar

StartChar: uni1E03
Encoding: 7683 7683 211
Width: 1328
Flags: W
HStem: -20 99<467.94 767.801> 1021 99<522.722 886.953> 1510 20G<196.5 318.5> 1630 264<169.191 350.809>
VStem: 130 260<1669.71 1854.29> 200 180<246.957 1409.59> 1040 188<392.275 782.888>
LayerCount: 2
Fore
SplineSet
260 1894 m 128,-1,1
 314 1894 314 1894 352 1855.5 c 128,-1,2
 390 1817 390 1817 390 1762 c 128,-1,3
 390 1707 390 1707 352 1668.5 c 128,-1,4
 314 1630 314 1630 260 1630 c 128,-1,5
 206 1630 206 1630 168 1668.5 c 128,-1,6
 130 1707 130 1707 130 1762 c 128,-1,7
 130 1817 130 1817 168 1855.5 c 128,-1,0
 206 1894 206 1894 260 1894 c 128,-1,1
664 -20 m 0,8,9
 411 -20 411 -20 292 156 c 0,10,11
 200 292 200 292 200 489 c 2,12,-1
 200 1316 l 2,13,14
 200 1425 200 1425 98 1425 c 0,15,16
 60 1425 60 1425 25 1416 c 1,17,-1
 15 1450 l 1,18,-1
 257 1530 l 1,19,20
 380 1495 380 1495 380 1316 c 2,21,-1
 380 489 l 2,22,23
 380 318 380 318 399 243 c 0,24,25
 441 79 441 79 602 79 c 0,26,27
 731 79 731 79 845 177 c 0,28,29
 957 273 957 273 1007 425 c 0,30,31
 1040 526 1040 526 1040 641 c 0,32,33
 1040 769 1040 769 985 868 c 0,34,35
 902 1021 902 1021 729 1021 c 0,36,37
 643 1021 643 1021 564 979 c 1,38,-1
 458 1085 l 1,39,40
 553 1120 553 1120 664 1120 c 0,41,42
 892 1120 892 1120 1050 972 c 0,43,44
 1228 805 1228 805 1228 550 c 128,-1,45
 1228 295 1228 295 1050 128 c 0,46,47
 892 -20 892 -20 664 -20 c 0,8,9
EndSplineSet
Validated: 1
EndChar

StartChar: uni1E0A
Encoding: 7690 7690 212
Width: 1726
Flags: W
HStem: -20 130<819 992.908> 1398 132<720.275 1129.49> 1630 264<769.191 950.809>
VStem: 200 190<32.2031 1067.79> 730 260<1669.71 1854.29> 1419 207<576.28 1032.12>
LayerCount: 2
Fore
SplineSet
323 -20 m 1,0,1
 200 15 200 15 200 194 c 2,2,-1
 200 1312 l 2,3,4
 200 1421 200 1421 98 1421 c 0,5,6
 60 1421 60 1421 25 1412 c 1,7,-1
 15 1446 l 1,8,-1
 267 1530 l 1,9,10
 368 1501 368 1501 386 1371 c 1,11,12
 564 1530 564 1530 862 1530 c 0,13,14
 1168 1530 1168 1530 1389 1327 c 0,15,16
 1626 1109 1626 1109 1626 755 c 128,-1,17
 1626 401 1626 401 1389 183 c 0,18,19
 1168 -20 1168 -20 819 -20 c 1,20,-1
 775 110 l 1,21,22
 973 110 973 110 1138 239 c 0,23,24
 1307 371 1307 371 1374 576 c 0,25,26
 1419 713 1419 713 1419 872 c 0,27,28
 1419 1042 1419 1042 1333 1183 c 0,29,30
 1202 1398 1202 1398 951 1398 c 0,31,32
 739 1398 739 1398 586 1273 c 0,33,34
 390 1112 390 1112 390 830 c 2,35,-1
 390 3 l 1,36,-1
 323 -20 l 1,0,1
860 1894 m 128,-1,38
 914 1894 914 1894 952 1855.5 c 128,-1,39
 990 1817 990 1817 990 1762 c 128,-1,40
 990 1707 990 1707 952 1668.5 c 128,-1,41
 914 1630 914 1630 860 1630 c 128,-1,42
 806 1630 806 1630 768 1668.5 c 128,-1,43
 730 1707 730 1707 730 1762 c 128,-1,44
 730 1817 730 1817 768 1855.5 c 128,-1,37
 806 1894 806 1894 860 1894 c 128,-1,38
EndSplineSet
Validated: 1
EndChar

StartChar: uni1E0B
Encoding: 7691 7691 213
Width: 1328
VWidth: 2458
Flags: W
HStem: -20 99<442.233 768.733> 1021 99<564.682 696> 1510 20G<944.74 1066.5> 1630 264<917.191 1098.81>
VStem: 100 188<317.112 707.653> 878 260<1669.71 1854.29> 958 170<283.994 1413.81>
LayerCount: 2
Fore
SplineSet
1071 -20 m 1,0,1
 1007 1 1007 1 976 80 c 1,2,3
 855 -20 855 -20 668 -20 c 0,4,5
 436 -20 436 -20 278 128 c 0,6,7
 100 295 100 295 100 550 c 0,8,9
 100 806 100 806 278 972 c 0,10,11
 435 1120 435 1120 696 1120 c 1,12,-1
 729 1021 l 1,13,14
 597 1021 597 1021 483 923 c 0,15,16
 368 824 368 824 321 675 c 0,17,18
 288 570 288 570 288 459 c 0,19,20
 288 331 288 331 343 232 c 0,21,22
 429 79 429 79 599 79 c 0,23,24
 741 79 741 79 838 178 c 0,25,26
 958 300 958 300 958 492 c 2,27,-1
 958 1316 l 2,28,29
 958 1428 958 1428 856 1428 c 0,30,31
 818 1428 818 1428 783 1419 c 1,32,-1
 773 1453 l 1,33,-1
 1005 1530 l 1,34,35
 1128 1495 1128 1495 1128 1316 c 2,36,-1
 1128 194 l 2,37,38
 1128 85 1128 85 1230 85 c 0,39,40
 1268 85 1268 85 1303 94 c 1,41,-1
 1313 60 l 1,42,-1
 1071 -20 l 1,0,1
1008 1894 m 128,-1,44
 1062 1894 1062 1894 1100 1855.5 c 128,-1,45
 1138 1817 1138 1817 1138 1762 c 128,-1,46
 1138 1707 1138 1707 1100 1668.5 c 128,-1,47
 1062 1630 1062 1630 1008 1630 c 128,-1,48
 954 1630 954 1630 916 1668.5 c 128,-1,49
 878 1707 878 1707 878 1762 c 128,-1,50
 878 1817 878 1817 916 1855.5 c 128,-1,43
 954 1894 954 1894 1008 1894 c 128,-1,44
EndSplineSet
Validated: 1
EndChar

StartChar: uni1E1E
Encoding: 7710 7710 214
Width: 1399
Flags: W
HStem: -430 21G<261.5 381.261> 334 128<390 1062.59> 1398 132<720.275 1128.28> 1630 264<708.191 889.809>
VStem: 200 190<-377.797 334 462 1067.79> 669 260<1669.71 1854.29>
LayerCount: 2
Fore
SplineSet
323 -430 m 1,0,1
 200 -395 200 -395 200 -216 c 2,2,-1
 200 1312 l 2,3,4
 200 1421 200 1421 98 1421 c 0,5,6
 60 1421 60 1421 25 1412 c 1,7,-1
 15 1446 l 1,8,-1
 267 1530 l 1,9,10
 368 1501 368 1501 386 1371 c 1,11,12
 564 1530 564 1530 862 1530 c 0,13,14
 1168 1530 1168 1530 1389 1327 c 1,15,-1
 1338 1175 l 1,16,17
 1209 1398 1209 1398 951 1398 c 0,18,19
 739 1398 739 1398 586 1273 c 0,20,21
 390 1112 390 1112 390 830 c 2,22,-1
 390 462 l 1,23,-1
 959 462 l 2,24,25
 1050 462 1050 462 1115 573 c 1,26,-1
 1136 573 l 1,27,-1
 1081 408 l 2,28,29
 1056 334 1056 334 952 334 c 2,30,-1
 390 334 l 1,31,-1
 390 -407 l 1,32,-1
 323 -430 l 1,0,1
799 1894 m 128,-1,34
 853 1894 853 1894 891 1855.5 c 128,-1,35
 929 1817 929 1817 929 1762 c 128,-1,36
 929 1707 929 1707 891 1668.5 c 128,-1,37
 853 1630 853 1630 799 1630 c 128,-1,38
 745 1630 745 1630 707 1668.5 c 128,-1,39
 669 1707 669 1707 669 1762 c 128,-1,40
 669 1817 669 1817 707 1855.5 c 128,-1,33
 745 1894 745 1894 799 1894 c 128,-1,34
EndSplineSet
Validated: 1
EndChar

StartChar: uni1E1F
Encoding: 7711 7711 215
Width: 1056
Flags: W
HStem: -430 21G<261.5 380> 458 108<380 735.594> 1431 99<560.451 877.855> 1630 264<498.191 679.809>
VStem: 200 180<-377.797 458 566 1235.77> 459 260<1669.71 1854.29>
LayerCount: 2
Fore
SplineSet
589 1894 m 128,-1,1
 643 1894 643 1894 681 1855.5 c 128,-1,2
 719 1817 719 1817 719 1762 c 128,-1,3
 719 1707 719 1707 681 1668.5 c 128,-1,4
 643 1630 643 1630 589 1630 c 128,-1,5
 535 1630 535 1630 497 1668.5 c 128,-1,6
 459 1707 459 1707 459 1762 c 128,-1,7
 459 1817 459 1817 497 1855.5 c 128,-1,0
 535 1894 535 1894 589 1894 c 128,-1,1
323 -430 m 1,8,9
 200 -395 200 -395 200 -216 c 2,10,-1
 200 1021 l 2,11,12
 200 1245 200 1245 298 1368 c 0,13,14
 428 1530 428 1530 660 1530 c 0,15,16
 888 1530 888 1530 1046 1382 c 1,17,-1
 998 1240 l 1,18,19
 906 1431 906 1431 724 1431 c 0,20,21
 586 1431 586 1431 490 1332 c 0,22,23
 380 1220 380 1220 380 1021 c 2,24,-1
 380 566 l 1,25,-1
 632 566 l 2,26,27
 723 566 723 566 788 677 c 1,28,-1
 809 677 l 1,29,-1
 761 532 l 2,30,31
 737 458 737 458 632 458 c 2,32,-1
 380 458 l 1,33,-1
 380 -411 l 1,34,-1
 323 -430 l 1,8,9
EndSplineSet
Validated: 1
EndChar

StartChar: uni1E40
Encoding: 7744 7744 216
Width: 2852
Flags: W
HStem: -20 130<593.802 818 1945 2118.91> 1398 132<732.731 1110.63 1849.3 2255.49> 1630 264<1351.19 1532.81>
VStem: 100 207<472.091 927.611> 1312 260<1669.71 1854.29> 1326 200<32.2031 1080.59> 2545 207<576.28 1032.12>
LayerCount: 2
Fore
SplineSet
1442 1894 m 128,-1,1
 1496 1894 1496 1894 1534 1855.5 c 128,-1,2
 1572 1817 1572 1817 1572 1762 c 128,-1,3
 1572 1707 1572 1707 1534 1668.5 c 128,-1,4
 1496 1630 1496 1630 1442 1630 c 128,-1,5
 1388 1630 1388 1630 1350 1668.5 c 128,-1,6
 1312 1707 1312 1707 1312 1762 c 128,-1,7
 1312 1817 1312 1817 1350 1855.5 c 128,-1,0
 1388 1894 1388 1894 1442 1894 c 128,-1,1
1449 -20 m 1,8,9
 1326 15 1326 15 1326 194 c 2,10,-1
 1326 833 l 2,11,12
 1326 1104 1326 1104 1258 1218 c 0,13,14
 1151 1398 1151 1398 952 1398 c 128,-1,15
 753 1398 753 1398 588 1268 c 0,16,17
 420 1135 420 1135 352 931 c 0,18,19
 307 796 307 796 307 636 c 0,20,21
 307 458 307 458 393 324 c 0,22,23
 527 110 527 110 818 110 c 1,24,-1
 862 -20 l 1,25,26
 556 -20 556 -20 335 183 c 0,27,28
 100 399 100 399 100 755 c 128,-1,29
 100 1111 100 1111 335 1327 c 0,30,31
 556 1530 556 1530 862 1530 c 0,32,33
 1134 1530 1134 1530 1321 1350 c 0,34,35
 1374 1299 1374 1299 1414 1239 c 1,36,37
 1451 1306 1451 1306 1504 1358 c 0,38,39
 1682 1530 1682 1530 1988 1530 c 128,-1,40
 2294 1530 2294 1530 2515 1327 c 0,41,42
 2752 1109 2752 1109 2752 755 c 128,-1,43
 2752 401 2752 401 2515 183 c 0,44,45
 2294 -20 2294 -20 1945 -20 c 1,46,-1
 1901 110 l 1,47,48
 2099 110 2099 110 2264 239 c 0,49,50
 2433 371 2433 371 2500 576 c 0,51,52
 2545 713 2545 713 2545 872 c 0,53,54
 2545 1042 2545 1042 2459 1183 c 0,55,56
 2328 1398 2328 1398 2077 1398 c 0,57,58
 1867 1398 1867 1398 1712 1273 c 0,59,60
 1526 1122 1526 1122 1526 833 c 2,61,-1
 1526 6 l 1,62,-1
 1449 -20 l 1,8,9
EndSplineSet
Validated: 1
EndChar

StartChar: uni1E41
Encoding: 7745 7745 217
Width: 2076
Flags: W
HStem: -18 99<447.619 631 1380 1518.59> 1021 99<561.485 860.851 1306.53 1633.99> 1260 264<965.191 1126.68>
VStem: 100 188<319.835 704.653> 926 260<1299.71 1484.29> 948 180<32.2031 825.766> 1788 188<392.347 782.888>
LayerCount: 2
Fore
SplineSet
1056 1524 m 128,-1,1
 1110 1524 1110 1524 1148 1485.5 c 128,-1,2
 1186 1447 1186 1447 1186 1392 c 128,-1,3
 1186 1337 1186 1337 1148 1298.5 c 128,-1,4
 1110 1260 1110 1260 1056 1260 c 128,-1,5
 1002 1260 1002 1260 964 1298.5 c 128,-1,6
 926 1337 926 1337 926 1392 c 128,-1,7
 926 1447 926 1447 964 1485.5 c 128,-1,0
 1002 1524 1002 1524 1056 1524 c 128,-1,1
1071 -20 m 1,8,9
 948 15 948 15 948 194 c 2,10,-1
 948 611 l 2,11,12
 948 782 948 782 929 857 c 0,13,14
 887 1021 887 1021 726 1021 c 0,15,16
 597 1021 597 1021 483 923 c 0,17,18
 371 827 371 827 321 675 c 0,19,20
 288 574 288 574 288 461 c 0,21,22
 288 336 288 336 343 234 c 0,23,24
 426 81 426 81 631 81 c 1,25,-1
 664 -18 l 1,26,27
 436 -18 436 -18 278 130 c 0,28,29
 100 297 100 297 100 552 c 0,30,31
 100 805 100 805 278 972 c 0,32,33
 435 1120 435 1120 669 1120 c 0,34,35
 917 1120 917 1120 1036 944 c 1,36,37
 1179 1120 1179 1120 1410 1120 c 0,38,39
 1640 1120 1640 1120 1798 972 c 0,40,41
 1976 805 1976 805 1976 550 c 0,42,43
 1976 294 1976 294 1798 128 c 0,44,45
 1641 -20 1641 -20 1380 -20 c 1,46,-1
 1347 79 l 1,47,48
 1479 79 1479 79 1593 177 c 0,49,50
 1708 276 1708 276 1755 425 c 0,51,52
 1788 530 1788 530 1788 641 c 0,53,54
 1788 769 1788 769 1733 868 c 0,55,56
 1647 1021 1647 1021 1477 1021 c 0,57,58
 1335 1021 1335 1021 1238 922 c 0,59,60
 1128 810 1128 810 1128 611 c 2,61,-1
 1128 -1 l 1,62,-1
 1071 -20 l 1,8,9
EndSplineSet
Validated: 1
EndChar

StartChar: uni1E56
Encoding: 7766 7766 218
Width: 1726
Flags: W
HStem: -430 21G<261.5 381.261> -20 130<819 992.908> 1398 132<720.275 1129.49> 1630 264<769.191 950.809>
VStem: 200 190<-377.797 1067.79> 730 260<1669.71 1854.29> 1419 207<576.28 1032.12>
LayerCount: 2
Fore
SplineSet
323 -430 m 1,0,1
 200 -395 200 -395 200 -216 c 2,2,-1
 200 1312 l 2,3,4
 200 1421 200 1421 98 1421 c 0,5,6
 60 1421 60 1421 25 1412 c 1,7,-1
 15 1446 l 1,8,-1
 267 1530 l 1,9,10
 368 1501 368 1501 386 1371 c 1,11,12
 564 1530 564 1530 862 1530 c 0,13,14
 1168 1530 1168 1530 1389 1327 c 0,15,16
 1626 1109 1626 1109 1626 755 c 128,-1,17
 1626 401 1626 401 1389 183 c 0,18,19
 1168 -20 1168 -20 819 -20 c 1,20,-1
 775 110 l 1,21,22
 973 110 973 110 1138 239 c 0,23,24
 1307 371 1307 371 1374 576 c 0,25,26
 1419 713 1419 713 1419 872 c 0,27,28
 1419 1042 1419 1042 1333 1183 c 0,29,30
 1202 1398 1202 1398 951 1398 c 0,31,32
 739 1398 739 1398 586 1273 c 0,33,34
 390 1112 390 1112 390 830 c 2,35,-1
 390 -407 l 1,36,-1
 323 -430 l 1,0,1
860 1894 m 128,-1,38
 914 1894 914 1894 952 1855.5 c 128,-1,39
 990 1817 990 1817 990 1762 c 128,-1,40
 990 1707 990 1707 952 1668.5 c 128,-1,41
 914 1630 914 1630 860 1630 c 128,-1,42
 806 1630 806 1630 768 1668.5 c 128,-1,43
 730 1707 730 1707 730 1762 c 128,-1,44
 730 1817 730 1817 768 1855.5 c 128,-1,37
 806 1894 806 1894 860 1894 c 128,-1,38
EndSplineSet
Validated: 1
EndChar

StartChar: uni1E57
Encoding: 7767 7767 219
Width: 1328
Flags: W
HStem: -430 21G<261.5 370> -20 99<632 763.318> 1021 99<559.267 885.767> 1260 264<577.191 758.809>
VStem: 200 170<-377.797 816.006> 538 260<1299.71 1484.29> 1040 188<392.347 782.888>
LayerCount: 2
Fore
SplineSet
323 -430 m 1,0,1
 200 -395 200 -395 200 -216 c 2,2,-1
 200 909 l 2,3,4
 200 1018 200 1018 98 1018 c 0,5,6
 60 1018 60 1018 25 1009 c 1,7,-1
 15 1043 l 1,8,-1
 247 1120 l 1,9,10
 322 1099 322 1099 352 1020 c 1,11,12
 473 1120 473 1120 660 1120 c 0,13,14
 892 1120 892 1120 1050 972 c 0,15,16
 1228 805 1228 805 1228 550 c 0,17,18
 1228 294 1228 294 1050 128 c 0,19,20
 893 -20 893 -20 632 -20 c 1,21,-1
 599 79 l 1,22,23
 731 79 731 79 845 177 c 0,24,25
 960 276 960 276 1007 425 c 0,26,27
 1040 530 1040 530 1040 641 c 0,28,29
 1040 769 1040 769 985 868 c 0,30,31
 899 1021 899 1021 729 1021 c 0,32,33
 587 1021 587 1021 490 922 c 0,34,35
 370 800 370 800 370 608 c 2,36,-1
 370 -414 l 1,37,-1
 323 -430 l 1,0,1
668 1524 m 128,-1,39
 722 1524 722 1524 760 1485.5 c 128,-1,40
 798 1447 798 1447 798 1392 c 128,-1,41
 798 1337 798 1337 760 1298.5 c 128,-1,42
 722 1260 722 1260 668 1260 c 128,-1,43
 614 1260 614 1260 576 1298.5 c 128,-1,44
 538 1337 538 1337 538 1392 c 128,-1,45
 538 1447 538 1447 576 1485.5 c 128,-1,38
 614 1524 614 1524 668 1524 c 128,-1,39
EndSplineSet
Validated: 1
EndChar

